ply
format ascii 1.0
comment Generated by the CGAL library
element vertex 1505
property double x
property double y
property double z
property double nx
property double ny
property double nz
end_header
-0.10027 -18.0756 -12.0315 -0.192382 -0.596058 -0.779554
11.8537 -24.0902 -5.7875 0.665163 0.38097 -0.6422
41.7651 52.3157 0.0225 0.562165 0.306236 -0.768238
-36.1731 35.9837 36.0505 -0.480726 -0.724173 0.494446
6.0808 37.5462 -24.0745 0.272344 -0.047348 -0.961034
-18.0289 -11.0204 24.0745 -0.536216 -0.177913 0.825118
18.1063 12.682 -0.1675 0.731749 0.548638 -0.4044
-17.5807 -48.2416 6.2475 -0.561022 0.648993 -0.51387
-30.1032 -59.7674 10.2565 -0.817635 0.557063 -0.145442
0.33414 -0.607335 -18.037 0.465365 -0.424507 -0.776678
13.0672 -47.8972 17.9352 0.0699495 -0.574272 0.81567
4.52345 -54.1157 18.1318 0.0807004 -0.5684 0.818785
-0.468053 60.4354 -35.9652 0.287212 -0.359148 -0.887988
-42.1091 42.0153 24.3845 -0.937455 0.334356 0.096873
18.4228 18.3593 5.086 0.579388 0.632498 -0.514057
12.3225 30.4145 12.5125 0.799435 0.465368 0.379917
18.9256 -17.6224 6.5495 0.539733 -0.765037 -0.351292
-23.8665 -11.9254 5.47625 -0.719293 -0.680232 0.141076
12.0721 1.11835 -12.0205 0.525126 0.331589 -0.783767
-5.40725 72.059 -34.778 0.107009 0.978138 0.178309
3.15204 -53.8337 17.8352 0.0245343 -0.474887 0.879705
36.0321 -17.9606 9.9145 0.69362 0.705546 -0.145245
5.95419 50.7966 -23.9855 0.228086 0.099918 -0.9685
29.7748 60.0084 -23.831 0.496647 -0.345012 -0.796435
0.24674 66.0758 -36.2355 0.374019 0.399735 -0.836852
11.7719 29.3814 -5.668 0.897864 0.186879 -0.398643
-36.0486 51.0294 36.1575 -0.825854 -0.0694036 0.559596
-24.1842 -12.054 -0.629167 -0.539547 -0.821443 -0.18472
-29.3255 -66.0277 12.1075 0.269658 -0.60037 0.752888
-48.3107 47.9385 12.261 -0.190239 -0.838429 0.510731
17.5831 -17.6827 1.37283 0.52011 -0.845484 -0.121002
-12.2652 -47.8662 -11.6775 -0.718946 0.592714 0.363053
17.9897 17.9771 11.4875 0.921939 0.354241 0.156658
4.23298 35.3413 17.4867 0.538764 0.554925 0.63387
-30.1981 40.7882 42.2217 -0.174102 -0.0773642 0.981684
6.46268 -35.1231 24.0628 0.195368 0.242003 0.950403
-0.16498 31.8696 -23.867 0.74278 0.13776 -0.65521
22.9561 42.0402 23.8865 -0.104837 -0.994482 0.00374
10.7249 42.047 35.8472 0.0601287 -0.790239 0.609841
11.9741 36.2273 -6.2315 0.397269 -0.475684 0.784795
-23.3312 41.4075 -23.482 -0.592748 0.358756 -0.721071
18.2137 -29.8126 -6.784 0.597821 0.734384 -0.321388
-35.7031 0.275809 11.516 -0.561399 -0.74927 0.35132
-23.4984 42.2215 -23.7568 -0.206159 -0.822065 -0.530762
-48.2826 60.0512 -12.5665 -0.83371 0.46091 -0.30412
48.149 66.1712 -1.99383 0.903219 0.265803 -0.336964
-18.2469 -61.202 -17.4029 -0.839952 -0.16221 0.51785
-47.8011 48.1905 -8.715 -0.646188 -0.680464 0.345557
30.6914 -24.2525 5.64 0.307379 -0.804203 -0.508699
-11.531 -54.9689 -24.4262 0.789164 -0.530475 -0.309541
-17.3784 23.4483 23.8985 -0.229281 -0.0591089 0.971564
-18.9264 72.0404 -40.179 0.000936506 0.978696 0.205312
30.1542 -11.8911 18.4885 0.897385 0.422623 0.126849
26.8453 54.1585 35.7762 -0.117908 -0.857235 0.501245
-17.2051 24.5731 23.852 -0.134573 -0.00549115 0.990889
18.3379 -42.2799 -6.0075 0.675188 -0.527293 -0.515833
-30.2409 18.8864 24.2095 -0.310598 0.234032 0.921281
3.97522 37.156 16.2464 0.573855 -0.27824 0.770242
11.3217 -23.2558 16.6943 0.640151 -0.280523 0.715201
29.8568 -42.4623 11.7777 0.598367 0.303106 0.741676
-36.005 17.9096 -24.1405 -0.604541 -0.0612586 -0.794215
-22.5235 59.5948 -42.0438 -0.0199227 -0.0833846 -0.996318
-42.1011 61.6186 -24.0884 -0.814651 0.108932 -0.56963
-35.1606 40.9615 -17.889 -0.270965 -0.429971 -0.861222
11.7829 3.83453 -11.8338 0.65214 0.066285 -0.755195
18.2947 -11.8539 30.5399 0.655145 0.387512 0.648552
-12.3754 -18.2312 -6.1785 -0.544158 -0.65952 -0.518581
-19.234 48.3749 -29.6174 0.374607 -0.601276 -0.705788
-8.92187 36.5299 23.0342 0.275016 -0.932353 0.234701
36.1148 -17.9765 12.4595 0.752232 0.650846 0.102696
5.31503 30.3101 -17.259 0.768115 -0.29514 -0.568236
-11.9019 -30.8091 0.265 -0.970707 0.0869216 -0.223991
-29.3483 0.17019 17.669 -0.431358 -0.742475 0.512505
-41.8463 6.30968 -11.4365 -0.879008 -0.373283 -0.296654
22.357 -6.6772 16.6242 0.291366 0.790598 0.538572
42.5789 35.866 24.2961 0.22346 -0.783873 0.579317
-41.5573 42.5663 -11.3314 -0.68507 -0.667026 -0.292839
12.5746 66.7365 -30.1523 0.168351 0.0384082 -0.984979
18.0882 -54.0427 -0.3995 0.649185 -0.688691 -0.322899
-42.115 31.6984 18.2153 -0.910927 0.0509404 0.409411
-17.7347 2.42546 23.7662 -0.640869 -0.0536284 0.765775
-41.2129 29.6027 -23.6324 -0.263105 0.624609 -0.735282
0.372965 59.7292 35.729 -0.414756 0.481338 0.772199
30.2217 66.3469 -24.4257 0.395968 0.781732 -0.481773
-29.7305 31.4268 29.782 -0.689533 -0.222438 0.68925
36.3242 66.279 -18.6273 0.400147 0.836798 -0.3737
-34.8584 29.537 -23.8605 0.131398 0.191966 -0.972565
-5.32956 -42.6001 -11.3525 -0.536791 0.607565 -0.585423
-24.5835 44.6302 41.8473 0.294638 0.0552181 0.954012
-23.7368 -11.785 -4.72937 -0.487261 -0.859161 -0.156267
-1.61951 66.0611 12.0345 -0.0683904 0.992515 0.101179
-30.2661 11.1097 24.2655 -0.396301 -0.200751 0.895904
-6.63378 -18.0757 30.2475 -0.296281 -0.808432 0.508582
-25.7363 -0.343083 18.2724 -0.141781 -0.652584 0.744333
6.23132 11.6874 -18.4959 0.912773 -0.219567 -0.344434
25.0548 -35.3668 13.1519 0.599397 0.738422 0.308959
-17.8212 -7.58666 23.8146 -0.833493 0.0756615 0.547326
-47.8808 59.8666 -9.781 -0.735337 0.615491 0.283637
-1.12363 -39.8184 -12.2626 -0.343003 0.243472 -0.907232
-17.801 -17.6996 1.71405 -0.729254 -0.669801 -0.139839
-7.92995 72.038 -35.375 -0.0619426 0.992619 0.104264
23.8151 -36.373 0.191167 0.741657 0.5106 -0.435009
-27.5241 22.8866 23.8184 -0.0395544 0.191773 0.980642
-35.7181 48.633 35.8315 -0.817478 -0.214821 0.534398
-28.1775 65.9325 5.61195 -0.0419685 0.990286 0.132562
-35.4771 59.4235 29.1859 -0.690992 0.638893 0.33815
-13.2901 54.2744 -35.8775 -0.00925685 -0.470867 -0.882156
-36.2811 60.6845 25.0965 -0.743075 0.59337 0.309438
-24.9737 47.6596 -36.6321 -0.25758 -0.864467 -0.431682
-29.4947 59.612 35.5338 -0.362682 0.742056 0.563751
-5.05516 -48.7709 -18.8017 0.640573 -0.714649 -0.28097
-29.1617 48.3593 -35.3377 -0.235647 -0.879337 -0.413807
47.3429 60.3778 0.62075 0.416157 -0.812762 -0.407716
41.4427 46.9915 -5.14505 0.658203 0.514904 -0.549221
-23.1011 -4.73978 17.1849 -0.675047 -0.323608 0.663016
-5.43109 24.9209 -30.1657 0.454886 0.228849 -0.860643
4.77189 23.243 23.6758 0.309082 0.322136 0.894816
20.3799 35.8409 -0.83715 0.00876492 -0.991546 -0.129459
29.7606 -13.9852 6.18775 0.799437 -0.00891414 -0.600684
11.5324 9.61902 -11.3548 0.727833 0.105921 -0.677525
-12.3783 36.1131 27.8657 0.337995 -0.939995 -0.0465768
-6.6799 28.8796 -29.7909 0.431718 0.149651 -0.889508
-17.9692 -17.9008 11.2175 -0.812159 -0.555849 0.177286
-11.2888 -52.2651 -24.5445 0.133615 0.423695 -0.895896
-35.316 0.532066 -17.5014 -0.545571 -0.586895 -0.598253
-28.7756 48.5441 42.0948 0.0495438 0.140414 0.988853
-11.5335 -0.253385 -24.044 0.22893 -0.608477 -0.759833
30.9612 -24.3247 7.26126 0.345938 -0.921642 0.175793
-42.2798 14.8992 12.5419 -0.874901 -0.0422146 0.482459
-35.7491 47.5785 35.5587 -0.883108 0.0455552 0.466954
10.4542 36.8349 3.33066 0.915795 0.401159 0.0197979
5.42543 7.6413 -17.432 0.745672 -0.209182 -0.632626
-42.0933 47.7051 -24.3568 -0.548427 -0.666475 -0.505014
-41.7423 35.7255 -16.8875 -0.743615 0.599518 -0.295998
25.7672 60.294 36.5275 0.196166 0.735906 0.648045
-6.53176 -5.91206 -17.9735 0.205879 -0.441493 -0.873326
-18.0822 -18.0464 8.91717 -0.801555 -0.597879 0.00709687
-42.4652 36.503 -12.8708 -0.777678 0.576154 -0.251524
18.2391 13.7587 12.7172 0.952351 0.0956646 0.289612
-10.3615 72.055 -36.9011 -0.00291795 0.999073 0.0429596
4.66966 55.7218 -28.0735 0.609437 -0.540373 -0.580159
17.5368 -45.6218 -4.84825 0.890827 -0.121621 -0.437763
30.7123 64.2176 -24.5072 0.564395 -0.0608919 -0.823256
11.0412 28.9927 16.3251 0.723691 0.483907 0.492043
48.4356 40.5846 24.7507 0.869957 -0.0454036 0.491033
-2.25684 -18.3409 31.2097 -0.100673 -0.952206 0.28839
10.7271 -26.5693 17.3606 0.557621 0.225841 0.798783
-12.6655 -60.6705 -11.5599 -0.394467 -0.517835 0.759106
-42.3378 66.2154 -19.0782 -0.571689 0.812798 -0.111945
-6.57806 -26.7592 -6.33764 -0.545841 -0.115437 -0.829899
19.0811 0.580971 -6.81613 0.388492 0.809615 -0.439998
18.5977 46.1102 -18.6091 0.72206 -0.0499117 -0.690027
7.56924 -50.4516 19.202 0.612019 -0.275147 0.741435
-18.078 -18.0762 4.717 -0.69008 -0.723203 0.0276986
19.0418 -35.4349 18.6754 0.384411 0.500482 0.775723
-42.5114 43.0867 20.1626 -0.879532 0.414332 0.23399
-12.9258 -9.99205 30.626 -0.605713 0.122851 0.786142
10.7114 51.8539 35.6004 0.364921 0.0773964 0.927816
-12.3853 -47.7136 -14.9542 -0.522774 0.849064 -0.0761379
23.5967 -47.4861 0.2345 0.321532 -0.471975 -0.820888
-48.1937 24.7435 -17.3509 -0.952578 0.0851171 0.292146
15.5993 36.7718 2.73862 -0.288726 -0.950384 0.115794
-12.261 -34.9045 12.7404 -0.917222 0.226237 0.327905
11.2633 -41.6182 -11.7789 0.250639 -0.425705 -0.869457
8.19105 -27.7166 19.147 0.308557 0.348535 0.885052
-5.39867 60.2362 36.036 0.206666 0.660982 0.721382
-20.1037 66.0793 6.70702 -0.0380264 0.990502 0.132135
12.8452 31.6275 8.4909 0.878528 0.442884 0.179002
-18.3817 -47.6316 9.62013 -0.533077 0.846039 0.0068851
20.0079 65.9917 17.9355 -0.051126 0.984104 0.170075
18.5907 53.8791 -24.1998 0.288426 -0.90734 -0.305851
-5.1864 -26.7767 17.609 -0.454821 -0.0966708 0.885321
-30.9832 -66.6667 12.3369 0.258961 -0.628591 0.733357
29.0368 -23.7563 9.45707 0.399417 -0.861769 -0.312761
24.3724 -12.4835 -6.96704 0.675322 -0.572291 -0.465213
-21.5306 24.72 23.667 0.0190795 -0.471914 0.881438
-48.7208 57.0677 18.6409 -0.716886 0.000191114 0.69719
-1.37322 28.9604 23.696 0.275678 0.268693 0.922933
-18.5585 -66.5626 -24.7547 -0.838619 -0.19578 -0.50832
-23.2995 0.273668 -23.9087 -0.227308 -0.601606 -0.765768
-8.61197 -47.4299 -19.2522 -0.234109 0.866261 -0.441345
-41.5371 7.41945 10.9721 -0.866706 -0.345936 0.359373
11.7426 -22.4949 -5.689 0.809788 -0.053427 -0.584285
-5.83236 -60.4246 -11.5315 0.421048 -0.755342 0.502172
9.06421 -30.3295 -11.7692 0.0132481 0.575914 -0.817403
-23.055 28.5677 -29.7346 -0.351138 0.247068 -0.903139
-30.4101 -6.27422 -12.3457 -0.501165 -0.828462 -0.24997
0.919646 63.9095 -36.3697 0.311321 0.00435899 -0.950295
-17.6474 -2.26925 23.4959 -0.701524 -0.0128812 0.712529
-18.5988 -13.6733 20.646 -0.91061 -0.327341 0.252266
-13.3128 -12.4959 -12.6613 -0.284719 -0.735122 -0.615248
-17.6101 -17.3817 15.7126 -0.829212 -0.543955 0.128534
34.2654 34.746 1.77714 -0.412264 -0.91065 0.0274564
23.1164 -18.2713 29.663 0.24654 0.509125 0.824627
-48.1669 23.0086 -17.3654 -0.917003 -0.173408 0.359215
18.4691 -4.37601 18.5967 0.796291 0.230274 0.559369
11.7605 -0.63541 23.9815 0.542584 0.000429 0.840001
16.9516 -17.4152 -3.82794 0.486003 -0.865973 -0.117864
-17.795 10.163 23.7927 -0.575617 -0.0471444 0.816359
-16.9834 67.4508 -42.203 0.211359 0.173989 -0.961798
-18.5569 33.7894 -30.4372 -0.447685 0.0315816 -0.893633
-14.1332 -66.734 -17.2831 -0.0635156 -0.64232 0.7638
13.3148 20.6547 19.5589 0.734084 0.192845 0.6511
17.4161 16.1978 1.30832 0.913113 0.28567 -0.290889
-31.3804 -1.07024 -19.3273 -0.468137 -0.633722 -0.615828
-44.9616 53.1633 18.7182 -0.236152 -0.597312 0.766453
-41.5758 35.0686 16.9171 -0.771538 0.542677 0.332011
24.8517 53.5734 -18.6531 0.387621 -0.801117 -0.456028
-18.892 14.7496 23.9269 0.157288 0.0140054 0.987453
-26.5197 37.2595 -24.6392 -0.41546 0.46482 -0.781879
19.944 52.7211 36.4696 0.13405 -0.357393 0.924284
-21.4169 -62.2015 11.3328 0.000342861 -0.0815368 0.99667
-41.5299 65.1751 -23.0657 -0.75267 0.541987 -0.373816
2.8953 37.827 20.9202 0.12737 -0.976861 0.171814
25.0139 -40.6547 18.7782 0.531859 0.570788 0.625562
44.3998 62.5424 -9.08679 0.812166 0.579885 -0.0641822
12.4727 63.3874 -30.1355 0.18673 0.0214213 -0.982178
20.3769 35.8062 2.37805 0.0638642 -0.997722 0.0217149
-41.6924 35.47 5.202 -0.827823 0.303406 0.471862
8.72743 59.1951 -30.1847 -0.00385633 -0.26501 -0.964238
-11.8948 -28.3867 0.481605 -0.945953 -0.0460868 -0.321011
10.0661 38.0436 8.6495 0.669404 -0.732337 0.124825
-12.4158 -24.4388 12.5894 -0.722846 -0.555759 0.41064
-18.669 36.9296 -30.1708 -0.37971 0.188537 -0.90569
-24.1835 -12.162 2.06741 -0.629573 -0.775494 0.0474034
14.9694 40.0902 27.3332 0.163752 -0.974609 0.152717
47.3871 65.9447 17.6478 0.06314 0.98091 0.183928
49.0032 66.3437 13.6279 0.192412 0.969393 0.152496
-3.04402 -7.57214 34.7442 -0.143632 0.66076 0.736726
48.3427 44.8788 24.8103 0.943666 0.0176667 0.330427
14.8302 39.0956 15.3706 0.208389 -0.977767 0.0233472
-30.5615 44.2983 42.2167 -0.250117 0.0446018 0.967188
-42.5361 66.6133 -14.5157 -0.624916 0.778526 -0.058104
-47.8295 52.0952 -17.6535 -0.881279 0.144032 -0.450113
11.5217 3.34907 23.7121 0.607493 0.108602 0.786866
26.3813 67.108 -25.7294 0.329306 0.839606 -0.431995
6.82994 41.8843 36.1608 0.047619 -0.813855 0.579114
-0.34013 43.3666 -23.9795 0.170736 0.583262 -0.794137
-14.5535 72.0486 -38.2353 -0.0496058 0.997349 -0.0532371
-43.4567 17.7723 -19.3623 -0.221339 -0.974087 -0.0465216
33.2165 35.1746 20.8899 -0.198631 -0.959257 0.200927
4.35406 61.3009 36.744 -0.342663 0.573085 0.744416
34.4404 35.3211 -1.86312 -0.403727 -0.86248 -0.305177
21.7659 -16.6541 2.40567 0.170195 -0.935633 -0.309232
-20.3563 -68.7845 12.8122 0.109784 -0.629485 0.769218
-33.2058 37.9886 39.6687 -0.41841 -0.560992 0.714298
-14.8152 37.7949 -30.6722 -0.0507513 0.31705 -0.94705
-42.13 11.3236 12.1115 -0.86927 -0.214881 0.445192
42.5308 43.1943 -6.56796 0.655053 0.252021 -0.712314
-24.2417 67.2244 -42.1291 -0.371012 0.0134193 -0.928531
3.65581 43.5096 -23.1992 0.253316 -0.28574 -0.924221
12.618 45.2547 36.3801 0.483768 -0.0174482 0.875023
-7.32141 -52.2011 -16.5849 0.634941 -0.289075 -0.716439
-15.3441 40.7888 -29.0543 -0.15189 0.632584 -0.759451
30.7439 -48.746 4.86707 0.637161 -0.65308 -0.409283
-2.45898 37.1234 21.6 0.269 -0.89934 0.344714
36.185 53.931 -12.352 0.256502 -0.92505 -0.28016
-32.3437 35.7339 37.0813 -0.145316 -0.951833 0.269995
-7.395 -33.7947 -7.2255 -0.595977 0.279912 -0.752635
21.225 -21.5754 7.75893 -0.630852 -0.264174 -0.729546
8.77581 37.9761 15.0833 0.244743 -0.953652 0.17507
-24.6837 -53.3802 9.88868 -0.746962 0.635807 -0.194415
8.90895 67.4925 -30.3993 0.0193326 0.230264 -0.972936
47.3645 56.0038 6.7919 0.807734 -0.078488 -0.5843
44.195 60.7909 30.7845 0.316904 0.744559 0.58754
17.2163 21.3003 9.5899 0.917752 0.395977 -0.0305642
13.0406 34.9579 -18.9069 0.580043 -0.613775 -0.535566
21.3357 36.482 -3.45627 0.088702 -0.973424 -0.211135
2.93566 -4.51753 31.8523 0.108716 0.824372 0.555511
13.4505 -37.9918 -12.6074 0.336157 -0.228034 -0.913783
21.5234 36.7208 8.74893 -0.00667459 -0.99212 0.125115
-7.90817 -5.15092 31.0932 -0.259249 0.725703 0.637296
-3.60275 68.0388 -37.0098 0.374914 0.412285 -0.830337
30.454 -11.3143 9.58248 0.889833 0.44867 -0.0830205
-37.4567 30.3755 -24.2031 -0.0131397 0.362847 -0.931756
-41.7581 27.2852 10.4441 -0.989778 0.0619287 0.128466
-20.8872 10.7849 -30.4284 -0.175617 -0.344862 -0.922079
28.589 54.4459 -17.4256 0.286127 -0.857619 -0.427341
9.23303 -21.3966 -9.49298 0.474981 -0.606446 -0.637665
-9.01178 62.8356 -39.117 0.215544 -0.25845 -0.941671
-23.9039 -5.85891 -17.8985 -0.238428 -0.803498 -0.545475
-30.1904 -6.17184 6.631 -0.567524 -0.786628 0.243174
-24.528 -53.401 13.1874 -0.659339 0.634604 0.403175
-44.7254 56.7842 20.4725 -0.252004 -0.230688 0.939828
12.2626 25.633 -6.33986 0.857578 0.176415 -0.483154
36.6168 36.4849 8.12406 -0.194786 -0.973557 -0.119352
43.0296 58.5284 -13.3567 0.689486 -0.512916 -0.511397
-41.4466 38.6221 -3.08361 -0.987809 0.117847 -0.101709
-25.0456 15.3513 -30.3432 -0.364306 -0.0842865 -0.927457
18.7666 -29.3487 -3.14548 0.753039 0.649785 -0.103499
-27.1205 42.461 -23.0044 -0.138973 -0.922515 -0.360074
17.2263 9.21804 16.4381 0.879972 0.111808 0.461679
-30.5662 14.2563 24.3674 -0.428353 0.00389004 0.903603
11.3815 -6.36744 28.1417 0.528565 0.818845 0.223857
-33.0624 8.91174 21.9731 -0.524103 -0.263524 0.809859
-27.0998 -8.89764 -9.0812 -0.449284 -0.858959 -0.245626
-13.3079 -53.1224 -24.6894 -0.359976 0.579527 -0.73114
-26.7689 -67.1992 5.51445 -0.106628 -0.293192 -0.950089
6.97508 30.9065 18.9341 0.494121 0.493507 0.715748
18.9462 -13.1825 -12.7285 0.516335 -0.455493 -0.725206
-26.5879 37.5224 41.1595 0.127882 -0.536362 0.834243
-12.1873 33.0593 28.3056 0.891109 0.121706 0.437164
-29.0769 -5.1471 10.5009 -0.596651 -0.66133 0.454588
-13.4447 -45.1438 3.08238 -0.955116 -0.0262413 -0.295066
-36.7827 55.6667 31.8171 -0.827074 0.435689 0.355138
25.0462 36.3354 15.4247 -0.319066 -0.944312 0.0804441
-17.2511 64.7179 -42.1516 0.206315 -0.141781 -0.968159
6.80146 15.4178 -19.7271 0.898357 -0.199911 -0.391139
-28.2467 7.00769 23.6112 -0.264326 -0.383507 0.884903
45.8195 51.509 2.34622 0.657722 0.467671 -0.590496
-42.7032 32.5071 9.99776 -0.959367 0.127843 -0.251539
16.3615 -26.4511 3.03359 0.8346 0.546236 -0.0711984
-36.4917 -0.586606 7.85627 -0.612922 -0.742859 0.269234
25.3016 44.4431 28.837 -0.5077 -0.460561 0.728096
-37.7522 37.5896 -19.1466 -0.511003 0.538348 -0.670117
-36.2777 5.48401 18.2408 -0.640491 -0.402156 0.654249
-34.2986 45.6142 39.5255 -0.704022 0.24859 0.665249
21.2639 60.67 36.5997 0.0214494 0.728557 0.684649
-25.0645 20.5677 -30.306 -0.337127 0.0763539 -0.938358
3.87005 -18.9531 -12.5644 -0.133408 -0.518608 -0.84454
-1.23426 -38.0727 24.2916 -0.193533 -0.120849 0.973622
-12.7174 -13.1001 30.5094 -0.551824 -0.35421 0.755
16.8318 -49.2459 18.6301 -0.404617 -0.557003 0.725281
-3.08076 26.3876 24.7855 0.148931 0.239934 0.959297
-37.4453 35.536 32.8385 -0.319811 -0.926912 0.196357
-21.1366 -62.5291 12.4333 0.0227141 -0.170405 0.985112
-8.30514 39.1912 -29.1013 0.296142 0.343957 -0.891063
31.2069 -40.7896 4.22395 0.794352 0.522623 -0.309628
-42.4469 56.7514 -24.5777 -0.789204 0.153766 -0.59457
4.83292 40.3198 -23.6471 0.269556 0.271443 -0.923936
-14.6434 50.9724 -33.7382 0.394626 -0.834579 -0.38438
-27.3683 39.9438 -22.3742 -0.366334 0.368491 -0.854408
-41.3299 36.9076 15.0558 -0.732285 -0.678482 -0.058483
16.4644 42.7817 -16.1292 0.393188 -0.903124 -0.172538
-31.406 51.8732 -36.6979 -0.570901 -0.204692 -0.795093
-2.57355 21.0485 25.7908 0.0745557 0.147388 0.986265
30.2151 -11.5704 14.9744 0.85539 0.50576 0.11187
-42.1824 5.43443 6.4595 -0.887078 -0.409464 0.213147
44.9909 29.883 8.45581 0.0528417 -0.997943 -0.0362845
5.65786 28.6897 -17.1171 0.842509 0.32416 -0.430231
11.0433 15.2126 -10.8849 0.788711 0.130267 -0.600804
2.55036 32.3033 20.5368 0.411243 0.455882 0.789335
-37.4034 -1.37795 2.66496 -0.656575 -0.726999 0.200953
-48.4452 25.358 -20.4851 -0.969081 0.245907 -0.0203096
-3.98894 -17.26 -11.5098 -0.218101 -0.508354 -0.833071
-10.8084 -66.4566 -17.557 0.353265 -0.738689 0.574057
43.4322 34.7121 -1.25068 0.444048 -0.689029 -0.572765
-33.2264 33.7248 -23.0268 -0.308499 0.385451 -0.86963
14.7618 -33.7061 19.9304 0.436091 0.47718 0.762971
-32.9898 67.6938 -8.873 -0.0265742 0.9904 0.135649
16.8193 -26.1551 30.8742 -0.541541 -0.434616 0.719612
-30.9474 67.4958 -37.0285 -0.666265 0.365706 -0.649885
-33.2099 21.0833 22.5383 -0.454445 -0.0150859 0.890647
-15.0294 10.44 -30.6602 0.0302989 -0.369895 -0.928579
3.92721 -52.6921 -11.2148 0.235561 -0.495536 -0.836036
-13.4711 -44.8725 13.3142 -0.780373 0.322576 0.535689
44.9683 34.6933 20.9712 0.21634 -0.891865 0.397208
26.1266 -54.8639 13.2167 0.315197 -0.877351 0.361809
15.4359 38.0366 9.16279 -0.199515 -0.960298 0.194993
-33.8016 14.5628 22.3832 -0.589089 -0.0348176 0.807318
-21.3522 2.98705 21.7167 -0.234117 -0.423737 0.875006
-18.5275 -62.7372 -24.7654 -0.836307 0.104396 -0.538231
-27.233 20.0312 24.59 -0.122793 0.238129 0.96344
-29.021 -72.0869 9.06762 0.0720752 -0.99598 -0.0531839
-10.7301 37.6559 -30.46 0.195924 0.232933 -0.952552
-11.614 -28.3179 10.8231 -0.919183 -0.0988641 0.38122
36.7068 -20.3074 9.83703 0.981112 -0.127258 -0.145684
23.003 -19.1632 5.31527 -0.294593 -0.521615 -0.800708
28.8085 35.6992 19.104 -0.223123 -0.948981 0.222824
33.3349 36.4902 6.97443 0.211755 -0.838144 -0.502667
17.4579 42.5729 -10.4564 0.207655 -0.949127 -0.236724
-13.1151 -51.5963 -10.3604 -0.763773 0.238669 0.59974
-36.4094 66.8689 -30.8007 -0.771055 0.423208 -0.475783
13.2615 -18.6551 -8.71203 0.522256 -0.815157 -0.250536
21.8761 49.958 -16.0548 0.530715 -0.601272 -0.597339
21.8593 -32.631 2.69264 0.742644 0.665808 -0.0719737
18.8283 14.8657 9.00771 0.979352 0.130937 0.154028
17.6214 4.46013 -4.57031 0.893306 0.244831 -0.376911
41.5881 54.3282 -4.59256 0.594635 -0.792257 -0.136891
34.8865 35.6919 24.7168 -0.239641 -0.92312 0.300701
21.3212 -20.9781 31.3797 0.0188924 0.383507 0.923345
-14.4077 -63.0848 -22.4116 0.552027 0.0276707 -0.833367
-27.0048 8.81338 -27.8622 -0.348673 -0.335844 -0.875006
47.0857 50.5915 28.5955 0.814227 -0.148772 0.561161
16.2401 -31.2005 16.5592 0.591093 0.599463 0.539679
21.4793 -49.9072 19.7703 -0.112727 -0.713677 0.691345
3.23236 -7.11344 35.0446 0.0689079 0.696874 0.713875
-10.0985 -61.8779 13.2752 0.735235 -0.601488 0.312476
-2.00144 59.6233 35.5943 0.0570814 0.564696 0.823323
44.7473 62.1248 27.065 0.601684 0.76855 0.217503
-1.53249 -13.5055 36.4905 -0.255337 -0.292665 0.921493
-21.4241 38.3452 -27.5487 -0.64025 0.270258 -0.719055
-5.07504 30.3938 24.1841 0.232722 0.214076 0.94869
-27.2319 47.0384 -32.9795 -0.149891 -0.956736 -0.249375
49.2281 50.7032 9.19496 0.977955 -0.0137215 -0.208365
15.7375 -32.3146 -10.8433 0.492941 0.366843 -0.788946
-27.8556 -5.2026 -16.6357 -0.355402 -0.76372 -0.538907
28.5794 53.5013 36.3207 -0.245088 -0.574668 0.780825
-41.4249 38.5051 27.7812 -0.927057 -0.319476 0.196213
-9.35406 -16.2822 -10.2411 -0.33476 -0.64991 -0.682315
-19.6862 -0.337998 -24.2507 -0.0932851 -0.583803 -0.806518
15.7092 -26.784 21.9055 -0.639653 -0.762294 -0.0987513
0.620931 53.4338 -30.9846 0.52021 -0.738073 -0.429686
38.5705 66.3315 20.2799 0.0450086 0.98965 0.13626
-37.2005 39.242 37.1606 -0.718177 -0.300168 0.62779
47.0067 36.5805 23.2168 0.368264 -0.717902 0.590761
2.59214 20.9859 25.0582 0.200282 0.272584 0.941055
-33.7511 26.2541 23.228 -0.306139 -0.386817 0.869857
15.3559 37.0319 -3.14168 0.0169486 -0.999726 0.0161242
5.23005 21.0092 -22.9525 0.790836 0.117625 -0.600618
-8.14846 -33.444 19.3084 -0.7071 0.35813 0.609715
21.8668 43.9621 28.3393 0.376778 -0.674595 0.634791
-16.2602 -66.9578 9.80952 0.486277 -0.816701 -0.3107
37.1782 66.7542 -14.619 0.455735 0.879957 -0.134096
51.3332 62.5279 14.8003 0.94685 -0.238692 0.215641
19.3751 -33.3365 -7.79994 0.820299 0.239552 -0.51935
47.6834 53.182 6.68606 0.835226 0.326306 -0.44263
14.7996 53.4416 -25.1535 0.160862 -0.897241 -0.411195
-21.2184 44.1385 41.2528 0.119079 -0.351235 0.928684
13.5587 34.5807 -9.78665 0.668145 -0.662737 0.338173
21.762 43.7976 -10.7215 0.125393 -0.621121 -0.773619
3.79607 66.1165 12.909 -0.0363023 0.992316 0.118281
-12.3922 -39.3192 -1.15186 -0.957987 0.0378817 -0.284299
2.88915 -19.7454 26.9016 -0.0686244 -0.970694 0.230312
-27.4832 -63.0915 9.08421 -0.893185 -0.21779 0.393432
2.7555 -34.9249 24.3556 0.0184891 0.315012 0.948907
-24.4194 24.625 -30.0851 -0.33883 0.139245 -0.930486
-21.259 48.6816 42.0764 -0.0507347 0.144069 0.988266
-42.5849 38.3879 -8.64052 -0.998929 -0.0102482 -0.0451214
-18.344 -57.7155 -17.2147 -0.923809 0.0547048 0.378925
-42.3617 5.17573 -7.72894 -0.889275 -0.420259 -0.180478
-30.7838 4.9792 -24.3984 -0.453953 -0.430567 -0.780089
-3.19601 -26.9765 -8.02433 -0.379569 -0.0173639 -0.925
31.644 36.8455 3.83267 -0.126637 -0.990333 0.0566042
8.26792 -14.4617 36.5687 0.194364 -0.212999 0.957525
-3.21757 52.2038 -32.0329 0.29326 -0.786257 -0.543874
3.02661 -21.9828 21.8792 0.1247 -0.760389 0.637384
49.4495 44.9206 3.43425 0.923325 0.0278241 -0.383011
33.2297 34.5407 14.7183 -0.087391 -0.995986 -0.0193525
19.707 2.62589 -2.3999 0.765491 0.511844 -0.389923
-19.9656 -6.50467 -18.4903 -0.175417 -0.725416 -0.665583
-8.92123 -9.35786 33.2334 -0.516763 0.190204 0.834733
47.6649 57.5339 28.0704 0.909705 0.250984 0.330824
-8.7324 36.5312 26.9221 0.118228 -0.992952 0.00826783
-2.96232 2.94854 28.0969 -0.086316 0.071492 0.993699
-15.6816 65.7834 10.0544 -0.0266428 0.99213 0.122347
14.6574 -28.669 15.424 0.572189 0.561786 0.597492
-10.6098 -51.7881 1.15645 -0.759126 -0.476978 -0.442967
20.4025 -27.5297 8.8315 0.768311 0.0226185 -0.639677
31.2023 56.2592 36.5423 0.347304 0.171768 0.921887
-44.9142 65.6106 3.46331 -0.068012 0.991046 0.114904
-9.0738 21.0276 -31.8371 0.183481 0.0593191 -0.981232
21.0127 67.2505 9.11979 -0.0352381 0.991118 0.128235
-14.5554 26.8137 26.8361 0.382185 -0.790583 0.478448
-39.2736 57.0397 22.5767 -0.766545 0.120634 0.630758
-15.5668 60.9241 36.9963 0.00270143 0.708114 0.706093
2.77416 -41.5033 23.7977 -0.0168989 -0.400526 0.91613
38.8191 56.8203 34.0635 0.198501 0.248597 0.948049
-26.8191 9.59383 24.7653 -0.160323 -0.270101 0.94939
-8.76096 57.5589 38.7339 0.131199 0.49129 0.861058
-14.6846 15.2129 25.4288 -0.282342 0.00226609 0.959311
-42.619 10.3806 -13.1154 -0.87819 -0.281012 -0.387058
23.1107 -0.530577 -3.78099 0.491263 0.860116 -0.137332
-8.32444 54.8866 -35.5489 0.194746 -0.463776 -0.864284
22.582 54.6653 -22.8003 0.413031 -0.800039 -0.435135
13.6078 -34.205 -12.55 0.335618 0.182142 -0.924221
8.18524 -18.7678 -12.7252 0.105979 -0.647955 -0.75427
45.3262 32.8557 15.0913 -0.228633 -0.907652 0.351987
21.6374 -32.1781 8.96272 0.631931 0.77239 0.0638475
-22.251 19.685 24.4345 0.210315 0.256754 0.943316
-43.2945 45.0006 15.0746 -0.941235 0.243687 0.233866
42.7494 40.0618 -6.57102 0.508756 -0.278035 -0.814779
-17.0279 -67.1485 -24.524 0.637795 -0.301594 -0.708702
4.03633 27.2907 -21.5475 0.777487 0.394088 -0.490111
-27.0771 -56.8635 8.74418 -0.738172 0.587118 -0.332257
-4.41074 -61.3466 -15.2863 0.610194 -0.752771 0.246978
-8.11655 34.2265 23.169 0.227295 0.432904 0.872314
10.7606 15.4313 23.1768 0.605274 0.105123 0.789045
-40.8796 36.3993 21.2138 -0.360902 -0.932365 -0.0211163
3.50709 -34.1573 -12.69 -0.271557 0.247241 -0.930123
-15.0066 32.7714 32.4761 0.635996 -0.141105 0.758682
-8.7674 -60.9138 -11.1149 0.0868031 -0.754614 0.650403
-50.7765 56.9232 14.8521 -0.917064 0.0913655 0.38813
-15.0778 -57.239 3.54921 0.118596 -0.174381 -0.97751
-39.3865 50.9174 27.0279 -0.971605 0.0503597 0.231189
-10.5526 -33.0634 15.1691 -0.86188 0.294586 0.412774
22.786 36.248 3.22025 0.291748 -0.954241 0.0656317
-3.45457 -2.05543 -19.3804 0.372727 -0.479804 -0.794269
-21.0875 60.9104 36.8157 -0.0547488 0.66367 0.746019
-8.74139 20.6546 25.8411 -0.0758029 0.1049 0.99159
1.05525 10.1431 -25.1159 0.592166 -0.427826 -0.682865
19.1168 -5.16778 -12.7391 0.438025 0.404671 -0.80273
-38.6902 44.5821 32.8858 -0.844678 0.429515 0.319432
1.01483 24.9859 24.3276 0.276141 0.255921 0.926418
-3.54273 -51.3818 17.3411 -0.200318 -0.282492 0.938121
3.08283 65.0277 20.967 -0.0350158 0.991133 0.128177
-49.7257 62.3316 -2.88597 -0.795676 0.574495 -0.191977
-10.0635 -6.54236 -18.4705 0.166958 -0.598461 -0.783562
30.7673 36.2834 22.8002 -0.276237 -0.905843 0.321157
7.80507 46.1829 -24.3439 0.196325 -0.129255 -0.971982
-9.11458 -2.145 28.2057 -0.231868 0.360216 0.903594
27.3767 -24.452 5.52585 -0.116367 -0.689407 -0.714967
-36.8612 44.1001 37.3807 -0.785303 0.417848 0.456839
-41.6186 13.5723 -17.1281 -0.873136 -0.210408 -0.43973
-15.1118 -0.438332 -24.3282 0.027558 -0.583331 -0.811767
-20.6805 56.8876 -41.2703 0.219183 -0.162742 -0.962016
21.1468 -39.2713 19.927 0.308243 0.428164 0.849507
-14.6423 -69.0317 -20.8107 0.168337 -0.945873 0.277465
-27.1846 27.2861 -28.3259 -0.389224 0.20564 -0.897896
26.5664 -15.2843 26.2947 0.521182 0.472338 0.71082
-6.93928 33.3446 -29.4058 0.500447 0.0441199 -0.864642
31.5479 -45.3188 3.61666 0.820507 -0.225113 -0.525445
-20.6623 -2.99329 20.3758 -0.700467 -0.128283 0.702061
-31.9126 9.11718 -25.2844 -0.559935 -0.274511 -0.781739
32.2383 65.8563 22.9062 -0.040361 0.992222 0.117756
38.5974 35.4659 24.8911 0.0823671 -0.859158 0.505037
26.9202 65.0932 26.9084 -0.0275324 0.98199 0.186917
-3.08577 70.3633 -20.9447 -0.0300254 0.992131 0.121547
7.11629 -38.0918 24.2182 0.217322 -0.0574238 0.974409
26.7268 56.8269 37.2166 0.140491 -0.122655 0.982455
-3.05577 45.1169 -25.8218 0.222549 -0.0123703 -0.974843
12.7762 20.6629 -7.09005 0.828411 0.167727 -0.534418
38.9758 66.9734 15.0911 0.0571113 0.990874 0.122095
28.8883 41.1171 30.7338 -0.397418 -0.658283 0.639314
-2.60415 -32.6302 22.5453 -0.28289 0.429273 0.857728
-27.7856 33.2621 32.9194 -0.550743 -0.591177 0.58923
-37.9148 21.3694 19.3907 -0.700671 -0.249186 0.668555
19.1238 8.55365 -1.19848 0.728023 0.206881 -0.653592
-44.5127 9.03802 -2.98491 -0.952483 -0.299368 -0.0561736
48.6962 51.5019 25.8309 0.918789 -0.197964 0.341521
-26.8926 2.66995 20.9075 -0.12316 -0.649077 0.750687
-4.14801 59.1382 -36.4422 0.240693 -0.395781 -0.886242
-10.0705 10.9553 -30.4308 0.160492 -0.359767 -0.919135
-37.9625 -1.73579 -3.03673 -0.708331 -0.705799 -0.0107669
-25.2431 60.4955 36.7284 -0.216454 0.662721 0.716902
14.9868 50.1087 34.5701 0.181147 -0.41167 0.893148
-10.5187 -50.2062 -7.60848 -0.813533 0.153188 0.560979
-2.0755 -4.63351 -17.4601 0.251373 -0.360397 -0.89829
45.236 30.6361 8.76803 -0.0341809 -0.998123 0.0508074
-38.955 66.7389 -3.22896 -0.0337844 0.990556 0.132879
-26.9886 70.9711 -32.9842 -0.112219 0.99352 0.018002
-12.8016 -18.7531 25.2432 -0.492426 -0.732188 0.470551
-2.64991 -45.0784 20.6436 -0.235472 -0.543707 0.805565
26.5168 -4.47362 8.49454 0.533438 0.768867 0.352545
-11.1578 -38.7815 16.4629 -0.864855 0.0257659 0.501361
9.01853 -39.068 -13.0905 0.0886954 -0.257795 -0.96212
20.874 68.0461 3.08072 -0.0303971 0.990211 0.136226
14.6968 41.054 32.1252 0.271837 -0.892707 0.359415
15.2436 -9.05365 -15.1474 0.266838 0.0681671 -0.961328
-45.3271 44.7811 9.2123 -0.912002 -0.159002 0.378115
-45.5327 19.13 -21.2069 -0.350075 -0.910081 -0.221813
27.527 -14.7439 3.0694 0.660838 -0.565049 -0.493977
12.6415 25.312 18.6633 0.678833 0.278955 0.679242
-42.7172 4.53926 -2.81606 -0.889 -0.453102 -0.0661637
13.6121 -21.304 -3.0992 0.893693 -0.248321 -0.373696
48.9411 56.3924 26.5446 0.958339 0.115594 0.261197
-45.4518 20.9729 -8.95677 -0.983714 -0.0399449 -0.175247
-0.473225 -35.4711 24.2846 -0.174988 0.253068 0.951491
14.1467 61.1127 37.1096 0.318178 0.603577 0.731066
-48.901 47.3855 -9.46895 -0.592267 -0.801934 0.078245
8.22495 8.86341 25.4542 0.535819 0.0517659 0.842744
25.0583 -11.5151 24.5637 0.370565 0.674713 0.638313
-14.9218 3.05643 25.551 -0.458391 -0.00669024 0.888725
-8.80901 51.8879 -33.1118 0.0984769 -0.790008 -0.605136
9.40603 31.8113 -15.108 0.452923 -0.865583 -0.213602
-36.7701 -0.859305 -13.6221 -0.675381 -0.669063 -0.310185
2.34543 -21.5962 -10.7187 -0.129934 -0.472688 -0.871598
-16.7305 51.9629 -37.3868 0.607423 -0.395939 -0.688673
-8.96284 14.8701 26.4382 -0.0790495 0.10875 0.990921
8.89988 56.2907 -28.435 -0.192537 -0.593279 -0.781633
36.4889 -19.5585 13.6515 0.945181 0.0816882 0.316164
15.9758 -16.8692 -9.68768 0.440088 -0.864416 -0.243121
44.5668 66.6173 14.9914 0.0815847 0.983196 0.163309
-26.9914 63.9396 21.07 -0.0291814 0.991077 0.130058
10.6194 32.3462 -8.95484 0.877857 -0.47812 -0.0277128
9.04285 56.4708 38.372 -0.0918765 -0.418721 0.903455
-23.2851 -11.2029 9.86744 -0.751027 -0.612183 0.247368
-2.72181 -20.8919 -9.87882 -0.269075 -0.412078 -0.870512
31.6974 -15.7775 20.5747 0.76131 0.532064 0.37056
-14.9352 70.5418 -39.2472 0.132727 0.837016 -0.530836
-4.87192 -62.1147 -19.2365 0.766969 -0.601943 -0.222315
-39.4429 39.523 -15.4692 -0.873244 0.0350387 -0.486022
-41.0223 37.0763 8.61041 -0.98533 -0.0809228 -0.150256
-15.6242 -55.151 14.0735 0.35968 -0.770436 0.526363
2.87961 -58.3485 -3.06213 -0.0658607 -0.961845 -0.26555
10.9465 34.4911 9.22307 0.772981 0.588533 0.236914
37.9024 67.5205 -8.78242 0.461338 0.821697 -0.334637
-4.205 4.66546 -24.9558 0.406506 -0.561056 -0.721089
16.5094 21.0212 2.70841 0.959199 0.240789 -0.148184
-13.7453 -57.0493 -10.6086 -0.677136 -0.192907 0.710122
-12.7655 -33.0354 3.19457 -0.983254 0.130131 -0.127579
-44.7567 61.9565 19.3393 -0.355366 0.690925 0.629554
-22.7181 47.7014 -36.809 0.162234 -0.865121 -0.474601
30.8662 -17.005 5.69025 0.245583 0.358311 -0.900723
-14.823 -44.8144 8.68449 -0.894046 0.446783 -0.0326656
-14.9983 -50.0746 3.46922 -0.476821 0.214454 -0.852439
28.086 -9.11746 -3.00702 0.879925 -0.148566 -0.451287
-38.8735 65.1195 9.00922 -0.0291909 0.99063 0.133416
-14.5286 -51.6443 15.9006 0.142353 -0.0211691 0.98959
20.8044 -33.4498 14.7969 0.510005 0.737445 0.442798
-26.6598 14.8124 25.428 -0.113623 0.0442025 0.99254
-43.5338 9.08471 -8.90077 -0.922902 -0.305692 -0.234103
27.2461 -21.1567 4.76669 -0.14726 -0.0855777 -0.985389
14.8066 3.06738 -9.12011 0.700194 0.240922 -0.672075
-39.8036 33.138 21.0068 -0.787828 0.0557544 0.613367
15.3451 66.3142 14.5785 -0.0325662 0.990987 0.129938
-3.13079 38.9066 33.2688 0.212353 -0.905101 0.368373
25.1176 -35.4 4.15209 0.601123 0.759157 -0.249664
-21.004 45.1436 -27.6163 -0.0832504 -0.669619 -0.738024
23.0228 -36.5467 17.211 0.481651 0.626138 0.613158
20.9954 40.449 20.9162 0.0289675 -0.97291 0.229363
16.6868 -7.18006 22.3669 0.674919 0.478142 0.562018
14.8172 -28.5148 -8.40302 0.42118 0.685933 -0.593383
14.7316 -3.76554 -13.561 0.250089 0.509961 -0.82304
13.2681 31.9471 -2.21753 0.958342 0.159776 -0.236753
8.87443 67.6295 2.88853 -0.0361879 0.991131 0.127868
-27.1334 -9.58428 3.18442 -0.613431 -0.773512 0.159315
-8.51623 -13.5102 -13.07 -0.152787 -0.62622 -0.764529
23.0882 -0.524619 3.58276 0.5493 0.819888 0.161411
49.0618 35.0956 19.1457 0.395165 -0.783366 0.479773
-49.2495 51.1079 -14.8837 -0.91445 0.0726344 -0.398127
-37.7059 67.4988 -26.5879 -0.681965 0.691068 -0.239474
33.0772 66.2506 20.1542 -0.0267998 0.99174 0.125435
13.1168 -22.2724 22.0922 -0.874111 -0.485372 0.0185368
9.41073 50.5085 -23.2773 0.304318 -0.0996451 -0.947344
26.7321 37.3416 21.1958 -0.425719 -0.825497 0.370566
3.3044 -32.1723 23.0373 0.0537942 0.500038 0.864331
-15.2447 -56.3748 -22.1771 -0.0436904 0.25704 -0.965413
-20.8951 -68.7606 8.97508 0.376846 -0.844075 -0.381477
40.14 54.9511 -10.0154 0.451213 -0.834916 -0.315154
12.649 -4.40663 24.4976 0.545995 0.304819 0.780368
-20.8238 64.0294 20.8645 -0.01166 0.986834 0.161314
19.6537 8.86178 9.03321 0.971045 0.164727 0.173024
-49.5381 61.948 14.2787 -0.777363 0.507455 0.371748
2.99445 51.0646 38.7141 0.256701 0.282378 0.92432
21.0217 57.0218 -26.8518 0.349985 -0.597629 -0.721353
47.7333 45.9687 0.269278 0.772392 0.238696 -0.588588
-8.83077 -51.2047 16.1473 -0.191683 -0.292203 0.93695
22.5787 -9.66075 -10.6239 0.719005 -0.14995 -0.678636
-4.92991 15.6639 -30.4883 0.30028 -0.162616 -0.939887
-13.4817 -38.9351 3.01052 -0.973867 0.0599101 -0.219077
7.45623 -5.30714 31.2443 0.33618 0.873641 0.351759
15.0842 -56.8133 2.94637 0.316757 -0.930256 -0.185174
-39.2689 19.4649 -22.7839 -0.186564 -0.552007 -0.8127
3.05934 -26.9694 -9.42935 -0.0485535 0.186496 -0.981255
3.23918 -9.70636 36.9355 0.0422406 0.389958 0.919863
10.0956 27.287 -9.20051 0.835727 0.0653196 -0.545247
14.865 -39.0109 21.4781 0.286169 0.038992 0.957385
27.5615 -45.659 0.917871 0.358757 -0.343974 -0.867742
32.7873 62.0387 32.3661 0.146773 0.765451 0.626532
-41.4261 37.6427 3.05803 -0.984574 -0.128178 0.119099
-10.0058 32.934 -30.7684 0.30987 0.0439866 -0.949761
20.8635 -25.8874 31.6776 0.162271 -0.660783 0.732826
-9.05495 9.03561 27.0665 -0.134113 0.0893242 0.986932
-26.3837 -7.1633 -14.3943 -0.327805 -0.83959 -0.433165
47.6055 59.6371 23.1958 0.829555 0.306583 0.466739
11.136 33.6396 -4.32079 0.962621 0.246832 -0.111507
-34.5022 -4.77058 -3.01598 -0.616528 -0.787152 0.0168866
19.7434 -8.85201 -13.1697 0.550291 0.0284626 -0.834488
-15.0385 26.9672 -31.6315 -0.0207028 0.168712 -0.985448
9.21443 -2.96273 26.474 0.52954 0.364806 0.765835
-50.5641 62.5444 8.74897 -0.813182 0.573448 0.099463
2.2782 -17.2709 35.0832 -0.154196 -0.690803 0.70641
-26.9023 35.5026 38.1733 -0.0500188 -0.970626 0.235337
-14.8386 7.30465 -29.2573 0.0329886 -0.459729 -0.887447
2.96705 -3.04004 -16.4983 0.263743 -0.146459 -0.953409
-14.9787 63.3618 27.0078 -0.038946 0.992138 0.118937
-18.776 -57.4076 -20.4843 -0.965991 0.251378 -0.0605841
-22.2233 -66.7189 5.44257 0.215219 -0.603227 -0.767983
20.9595 -27.1112 15.4329 0.506356 -0.842727 0.182797
-8.97361 -21.8767 20.8749 -0.158336 -0.898047 0.410417
-21.1271 3.09657 -26.4062 -0.130925 -0.545609 -0.82775
-15.019 -6.79004 -18.8417 0.0233361 -0.710967 -0.702838
-25.9395 28.0562 31.833 -0.5525 -0.663346 0.504694
-42.593 4.81279 2.74951 -0.877796 -0.463653 0.12042
-44.5619 46.5413 -20.6805 -0.553669 -0.647551 -0.523573
26.9826 37.5131 -3.17152 0.281955 -0.932405 -0.226102
29.0214 -13.4831 22.4134 0.786598 0.377961 0.488272
26.4477 37.2841 3.02828 0.153052 -0.985845 0.0684416
-3.28988 -16.0815 34.0683 -0.310811 -0.647789 0.695533
-39.9968 57.0876 -27.5602 -0.76277 0.116128 -0.636157
30.4447 -25.1713 18.9463 0.859105 -0.391462 0.32969
-17.5333 -11.6973 -11.5489 -0.3438 -0.786377 -0.513239
17.8965 -0.83963 17.8082 0.783506 0.187962 0.592274
29.3058 -8.45188 9.15511 0.940603 0.307634 0.143621
-27.051 -62.2408 13.7633 0.359129 -0.594537 0.719411
-40.989 39.816 -9.20007 -0.934531 -0.234809 -0.267424
-8.73145 -57.9364 -8.47151 -0.12268 -0.600142 0.79043
33.4191 -22.1024 8.93032 0.5265 -0.850019 0.0162868
33.2934 40.4415 30.9982 0.00684878 -0.497483 0.867447
-18.929 -67.5977 -21.753 -0.947883 -0.295355 0.119511
-50.1155 51.2855 14.2285 -0.717687 -0.429729 0.547958
9.55728 44.5858 -22.933 0.190566 -0.335017 -0.922739
44.9845 67.3928 9.13101 0.0744282 0.989024 0.127643
-21.5292 -50.7905 8.40493 -0.663087 0.680927 -0.310893
27.7941 39.4165 26.6357 -0.512469 -0.754744 0.409558
2.90931 70.9871 -26.9224 0.0572946 0.989224 -0.134735
14.8647 21.036 -3.10272 0.901292 0.169953 -0.398482
8.9676 -58.1138 -2.88885 0.135 -0.986845 -0.0889482
-31.4246 -7.04018 -3.27064 -0.594461 -0.803659 -0.027354
26.0786 58.5813 -25.2441 0.470766 -0.552977 -0.687456
-2.91783 37.5001 26.8523 0.177938 -0.98103 0.0769332
-20.8119 -14.001 -2.89412 -0.542928 -0.809904 -0.222002
-11.7331 -31.3206 11.1125 -0.937367 0.160549 0.30914
30.4063 -49.7577 13.3786 0.940621 -0.196906 0.276513
-4.85828 20.7942 -30.5777 0.404713 0.0915947 -0.909845
27.6083 -21.0749 27.5499 0.73296 -0.202859 0.649321
-26.4731 50.9648 41.1734 0.157625 0.231664 0.959941
33.3337 44.9028 32.4843 0.080692 -0.25537 0.96347
43.1308 41.2998 30.3989 0.231715 -0.690694 0.685018
9.21847 -15.2295 -14.7693 0.0716628 -0.447155 -0.891581
20.3237 45.1471 -14.6199 0.723099 -0.563452 -0.399563
-27.2955 -9.85119 -2.97817 -0.548676 -0.833332 -0.0671801
-33.005 65.3037 9.14303 -0.0344087 0.990668 0.131884
-20.791 -57.2301 15.1047 0.416644 -0.704384 0.574675
2.81812 40.0943 33.2035 0.117214 -0.919146 0.376074
-44.6228 39.7196 9.10798 -0.822492 -0.568681 -0.0104345
-7.38142 -58.6639 8.91697 0.65523 -0.741273 -0.145564
8.90073 -56.8738 14.5102 0.462976 -0.671096 0.579037
-31.0895 62.9272 -36.9748 -0.664756 -0.0764719 -0.743137
-9.21134 -51.1385 -2.9183 -0.832401 -0.495673 -0.247823
43.235 66.1518 18.8018 0.0797792 0.985891 0.147153
-8.60926 44.8276 40.4575 0.122879 -0.192776 0.973518
38.5709 40.8085 30.7371 0.120712 -0.505068 0.854597
27.5282 -3.58762 3.00676 0.72669 0.680674 0.0927607
15.504 -21.8327 7.58885 0.992736 -0.0525139 -0.108246
-45.7136 20.6905 -15.049 -0.816963 -0.495161 0.295613
-21.7093 35.4558 37.2254 0.183884 -0.912042 0.366559
-21.5013 14.8826 24.8929 0.321008 0.0154287 0.946951
-2.92014 38.732 -27.1184 0.3763 0.100123 -0.921072
27.7325 35.4278 14.9045 -0.279481 -0.959634 0.0315102
49.7041 62.5708 3.1878 0.875142 -0.106505 -0.471998
-14.7239 62.571 -40.6784 0.315264 -0.304803 -0.898723
-31.3106 -63.4136 9.41576 -0.90369 0.327608 -0.275713
33.1538 40.4281 -7.44148 -0.254051 -0.650891 -0.715401
7.00741 20.833 -20.0158 0.893117 0.0863157 -0.441465
48.3951 66.3384 3.33714 0.758167 0.64099 -0.119645
14.9371 -56.1554 -2.71017 0.540014 -0.830476 -0.136726
-2.77238 -58.684 8.97245 -0.280333 -0.953877 0.107389
9.14488 39.3526 27.531 0.108241 -0.980809 0.162163
2.78916 -51.1434 19.0919 -0.252598 -0.286784 0.924094
-41.4488 25.3794 15.3116 -0.928855 -0.320239 0.186213
3.07943 -44.8823 21.6129 -0.0164747 -0.55266 0.833244
3.13283 -59.7162 8.8564 0.015276 -0.999866 0.00580252
20.8922 3.02888 9.01527 0.95674 0.225078 0.184358
-19.5716 -9.12557 20.9922 -0.879826 -0.0958821 0.465525
9.04491 61.8443 37.4954 -0.0432124 0.698808 0.714003
9.43531 32.3182 15.1534 0.688235 0.523255 0.50253
21.8219 50.4469 34.8067 0.17643 -0.512708 0.84024
20.9741 -26.935 21.1608 0.180271 -0.957366 0.225728
-10.1094 -44.9213 16.4419 -0.656654 -0.17923 0.732586
32.4246 35.2874 9.55023 0.00372882 -0.959425 -0.281938
-46.1174 28.1959 -21.6927 -0.65063 0.638661 -0.410844
-21.089 67.7056 -42.4777 -0.0225379 0.152574 -0.988035
8.89969 34.0201 -20.7473 0.310735 -0.747387 -0.587245
-6.29305 -28.1816 18.3565 -0.570203 0.373638 0.731617
-27.2188 -3.08177 14.9455 -0.50029 -0.629848 0.594139
-33.1666 2.827 -21.1592 -0.54983 -0.482668 -0.681703
-44.5763 25.9203 -25.006 -0.288057 0.392536 -0.873464
-33.8809 50.6164 38.6675 -0.735207 0.145902 0.661954
-40.87 1.65153 -3.42956 -0.806756 -0.588836 -0.0491618
-9.52429 -26.9372 14.7607 -0.748347 -0.168495 0.64155
-20.423 32.9005 35.0307 0.24 -0.308651 0.920399
-4.70081 65.9591 11.6107 -0.0310512 0.989865 0.138578
-34.1841 62.8844 -33.9066 -0.72532 -0.0581903 -0.685948
3.03331 44.6788 38.4422 0.159956 -0.410205 0.897856
-41.1275 45.5909 21.7397 -0.940469 0.202031 0.273317
-21.062 57.1126 38.9973 -0.0726152 0.436212 0.896909
-12.6855 -39.1705 13.4804 -0.928668 0.0647513 0.365217
20.8384 -8.352 20.8537 0.325214 0.821223 0.468859
32.996 68.5279 2.92865 -0.0317631 0.989969 0.137671
18.5381 9.11243 13.4101 0.938196 0.140959 0.316099
20.4442 -55.2592 3.83332 0.332615 -0.839052 -0.430533
-43.6715 62.7289 -20.8538 -0.842458 0.284332 -0.457624
46.8858 45.0102 27.9848 0.878409 -0.0222393 0.477391
45.1776 44.937 -2.7804 0.674462 0.40442 -0.617694
3.04502 -57.7498 15.4028 -0.0146834 -0.774926 0.631881
14.8095 -55.2723 13.359 0.0790358 -0.765034 0.639122
-31.8778 -0.948515 13.7187 -0.444061 -0.771879 0.454987
39.0037 34.2476 21.0654 -0.0703299 -0.976956 0.201522
4.23209 2.63879 -17.0845 0.500771 -0.210464 -0.839603
-3.09612 -19.5118 27.0766 -0.0019756 -0.940442 0.339948
-37.6492 -1.48412 -8.65365 -0.709545 -0.69128 -0.136669
32.7499 57.7386 -20.0778 0.36673 -0.6358 -0.679166
-21.8417 -10.9356 -9.69492 -0.338351 -0.85457 -0.39399
-43.3666 66.7674 -8.64654 -0.425659 0.899313 -0.100248
15.4 -21.0198 3.14875 0.960149 -0.241559 -0.140584
-32.6337 39.072 -20.6083 -0.424442 0.227683 -0.876362
-8.53881 -63.5622 -20.5612 0.536632 -0.143952 -0.831447
2.97277 45.6683 -24.9587 0.163464 -0.182868 -0.969453
33.2399 62.4634 -22.4083 0.501831 -0.198755 -0.841821
-26.9193 40.5803 42.3037 0.111576 -0.174641 0.97829
-45.3075 45.4163 -15.4141 -0.55623 -0.817762 -0.147895
11.4717 34.889 2.5498 0.875037 0.483205 -0.0286862
-38.8966 68.005 -20.7726 -0.466859 0.876243 -0.119335
-22.0164 9.83853 24.6613 0.230786 -0.200843 0.95205
-38.7011 66.1583 1.21795 -0.0392271 0.990782 0.129662
-1.89343 -49.1632 18.4114 -0.230721 -0.378959 0.896191
15.3013 50.8234 -21.3418 0.376935 -0.557436 -0.739719
26.6422 45.8193 31.2454 -0.105796 -0.598427 0.794162
-2.90623 66.4073 8.82523 -0.0313035 0.991433 0.126808
17.5341 3.1798 17.3639 0.825309 0.12612 0.550417
3.03438 -9.16091 -15.9288 -0.0505587 -0.133358 -0.989777
13.8189 14.7727 20.2766 0.753366 0.0991919 0.650078
13.5041 38.8864 -20.0692 0.747798 -0.0281849 -0.663328
-48.5116 22.0421 -20.8813 -0.986405 -0.162232 -0.0262032
-46.2071 43.8747 2.85922 -0.843502 -0.523585 0.119841
-20.4094 26.521 -31.036 -0.237025 0.224498 -0.945209
-14.6983 8.81415 25.53 -0.424079 0.0178545 0.905449
-52.5079 57.0796 9.04711 -0.970626 0.162814 0.177137
13.892 34.3069 -14.7695 0.658413 -0.746637 -0.0950053
-15.1707 -62.9919 -15.2836 -0.506045 -0.499979 0.702808
-32.8947 46.3112 -27.2281 -0.204664 -0.874584 -0.439562
-30.9112 -62.6185 12.8391 -0.834766 0.313955 0.452325
9.05773 -51.0717 -10.6908 0.288807 -0.196809 -0.93694
-43.031 39.0888 21.1554 -0.968171 -0.199405 0.15127
39.021 67.6604 9.0353 0.0520907 0.992814 0.107738
9.11828 62.9157 -30.6402 0.148361 -0.0578741 -0.987238
-16.6268 -62.2813 -25.4102 0.35661 -0.269608 -0.894506
40.8858 65.2444 -9.33309 0.505572 0.855987 -0.10809
-3.02241 9.12022 -27.1297 0.410642 -0.445997 -0.795274
-8.94186 69.1818 -38.7766 0.357705 0.415081 -0.836514
16.8625 15.2053 15.6291 0.891 0.105279 0.441628
-44.7612 57.1287 -21.0634 -0.834285 0.169011 -0.524789
-14.9587 -14.6146 -8.79936 -0.397837 -0.760918 -0.512571
-9.18653 65.8695 11.1586 -0.0308577 0.991308 0.127892
-15.6135 -57.6783 11.6923 -0.102776 -0.0850273 0.991064
-40.7331 8.51761 -15.8046 -0.850649 -0.291801 -0.437319
20.8966 70.306 -21.0089 0.266636 0.947867 -0.174511
-13.9731 36.9965 34.3946 0.315965 -0.77719 0.54419
38.8437 61.5833 31.5241 0.152564 0.674016 0.722791
-9.11609 49.5084 -27.9212 0.0550451 -0.565181 -0.823128
43.9964 57.4519 -8.77129 0.765724 -0.609459 -0.205493
28.9626 -38.4325 9.62025 0.858654 0.508095 0.0674707
3.40361 3.37996 27.9728 0.245433 0.0461101 0.968316
-15.0936 44.7663 41.1267 0.0775011 -0.210202 0.974581
-15.8784 -20.9004 8.93832 -0.814508 -0.578144 0.0482413
4.99229 14.0871 -22.4442 0.819041 -0.233579 -0.524035
-16.0736 -9.45101 26.8029 -0.817761 0.0802445 0.569937
7.78842 -10.6736 36.6186 0.277114 0.267772 0.922771
48.873 49.2945 4.27331 0.780522 0.533964 -0.325067
15.4125 39.3665 21.4681 0.197836 -0.978466 0.0588691
20.3561 45.8741 31.2752 0.368248 -0.63056 0.683219
3.60114 -1.87394 28.5658 0.267074 0.356164 0.895443
-32.8247 68.5024 -14.8895 -0.0280562 0.991164 0.12964
26.1911 -49.4953 19.2204 0.446679 -0.618375 0.646599
29.6749 -9.34868 2.81187 0.993092 -0.0839461 -0.08198
20.1988 9.08843 3.1247 0.987597 0.157009 0.00101369
33.0071 69.2863 -8.94221 0.21391 0.969417 -0.120304
15.5025 -26.4501 -3.45658 0.665514 0.708422 -0.235011
-7.68387 -57.1112 14.1822 0.450885 -0.545737 0.70631
-45.9688 21.0748 -2.90751 -0.99888 0.0322834 0.0345768
45.0141 56.6637 32.0429 0.56921 -0.00939531 0.822139
14.1848 26.0428 15.4313 0.810426 0.380815 0.445184
-43.3377 39.4942 -3.05786 -0.842327 -0.516047 -0.155503
20.8761 -56.4127 9.02092 0.130003 -0.991426 -0.0131971
-39.0152 44.7115 -21.2049 -0.291608 -0.808628 -0.510966
20.982 70.4021 -14.8949 -0.00138226 0.995031 0.0995589
2.75112 69.7782 -14.98 -0.033195 0.991343 0.127029
-11.2641 -38.9719 -4.16102 -0.912542 0.0673402 -0.4034
-2.47906 49.8717 -27.59 0.21271 -0.773663 -0.596825
19.8972 41.2075 26.5783 0.436174 -0.85923 0.267351
2.69488 38.5765 -24.9338 0.337376 0.0151703 -0.941248
2.71776 56.5852 37.1983 -0.0736307 0.177456 0.98137
7.4077 19.3499 24.6714 0.465428 0.212379 0.859228
49.1415 66.7403 9.15836 0.361304 0.93231 -0.0160249
-26.9038 67.9382 -9.13937 -0.0359988 0.990429 0.13325
27.0066 69.873 -9.08639 -0.0209637 0.992504 0.120401
10.5837 37.1359 -3.41121 0.931472 -0.120471 0.343287
-7.93299 -55.6283 -17.1261 0.26819 0.363232 -0.892265
48.8739 59.4237 4.65341 0.538331 -0.799709 -0.265829
-9.08191 69.3684 -15.0668 -0.0320768 0.989511 0.140854
-20.3213 21.6892 23.682 0.0673225 0.140657 0.987767
-3.08892 -9.04548 -15.9615 0.0247749 -0.393509 -0.918987
-20.2493 8.21003 23.6246 0.254081 -0.300699 0.919251
-26.6787 -57.0526 13.9533 -0.67917 0.495742 0.541266
-9.17745 14.8832 -31.357 0.165345 -0.203273 -0.96506
-11.0833 -45.4264 -3.61079 -0.910884 -0.185414 -0.368663
-27.7899 21.1028 -29.0684 -0.424279 0.0631669 -0.903326
-3.52819 -38.5764 -11.0346 -0.403303 0.193024 -0.894477
3.77582 62.8406 -33.6171 0.720495 0.00244618 -0.693456
-28.0487 14.8696 -28.8595 -0.466332 -0.085485 -0.88047
19.3805 14.0148 3.58768 0.965512 0.245277 -0.0873257
-15.1249 71.5395 -32.9707 -0.0368819 0.993583 0.106921
-49.5615 57.0798 -8.89296 -0.960236 0.237662 -0.146507
2.88062 66.5817 9.12217 -0.0439086 0.990291 0.131892
49.9399 38.9173 21.0331 0.91316 -0.04864 0.40469
32.9515 66.8977 15.0873 -0.0308936 0.992294 0.11999
-43.1749 15.1319 -14.514 -0.909708 -0.201086 -0.363312
-15.0476 14.6832 -31.8805 0.0188366 -0.182174 -0.983086
-40.2065 14.962 15.5455 -0.817185 -0.0133504 0.576221
-2.99825 -56.7646 -2.95511 -0.417146 -0.852833 -0.314109
-36.7517 63.0161 -30.966 -0.780801 -0.0010969 -0.624779
15.9278 -39.8895 -10.2954 0.531354 -0.438314 -0.724944
-32.1067 47.4523 -31.1629 -0.285779 -0.875378 -0.389927
-33.9123 58.0594 33.5837 -0.607954 0.657437 0.445161
-42.6712 28.0778 14.7171 -0.957841 -0.267489 0.10483
-15.1103 66.7333 3.03402 -0.0490599 0.989827 0.133547
2.85115 65.6928 15.8354 -0.0388019 0.990801 0.129648
-26.9835 69.5316 -21.0536 -0.0335887 0.9901 0.136289
-40.4557 2.37499 -9.28744 -0.833876 -0.513618 -0.202106
-9.20654 62.6139 32.9164 0.010515 0.966244 0.257416
2.31093 20.9248 -26.1849 0.665873 0.101637 -0.73911
-2.98474 27.2511 -28.1124 0.499045 0.269294 -0.823671
21.7933 -51.5177 1.3127 0.488019 -0.416204 -0.76721
39.4317 34.4057 -2.24192 0.0345507 -0.837495 -0.545351
48.9219 39.3502 3.59813 0.913872 -0.203938 -0.351067
-33.2253 65.8577 4.8799 -0.0411484 0.990302 0.132701
-38.8957 22.2746 -24.6822 0.0421155 -0.338495 -0.940025
-26.8995 65.5318 9.01925 -0.0425402 0.990204 0.132989
40.0767 51.3127 -3.49879 0.82402 0.0124345 -0.566424
-41.6966 49.2237 17.245 -0.964823 -0.00816043 0.262775
-3.09366 65.5728 15.1135 -0.0385566 0.991443 0.124719
14.8106 -51.6151 16.1424 -0.0766949 -0.54921 0.832158
-20.9525 51.2716 41.2675 -0.0666265 0.26429 0.962139
0.48171 -54.9462 -13.6255 0.905413 -0.424353 -0.0123295
3.37857 -18.8579 32.4624 -0.189238 -0.945231 0.265946
-26.8168 -2.40513 -20.4985 -0.300626 -0.676019 -0.672772
16.1032 14.9851 -3.09208 0.883782 0.191781 -0.42679
2.85417 -14.946 -14.2948 -0.190025 -0.390071 -0.900964
-31.5947 -68.4057 8.97313 -0.905358 -0.226914 -0.358939
15.5981 44.6461 33.9909 0.666357 -0.086011 0.740655
9.25273 -33.2544 22.1865 0.305245 0.444793 0.842012
-51.1471 46.0986 2.71202 -0.615473 -0.786786 -0.0464839
2.87085 51.4496 -26.4129 0.514837 -0.513283 -0.686646
-32.0745 28.238 25.4394 -0.464163 -0.546974 0.696686
-40.5372 43.2972 -15.9228 -0.666589 -0.558603 -0.493581
-38.0111 9.29298 -20.0581 -0.705095 -0.290641 -0.646814
51.973 62.1235 9.08949 0.898454 -0.437739 -0.0341276
-39.0953 27.0919 20.774 -0.656223 -0.31896 0.683839
24.7632 -24.6031 31.1405 0.57381 -0.623357 0.531196
26.8618 -45.1707 20.0416 0.572136 0.108591 0.812938
39.9291 65.8869 22.8851 0.0952372 0.987983 0.121736
1.7011 34.7952 -24.4449 0.390457 -0.438547 -0.809456
-38.549 46.8665 -25.8729 -0.345051 -0.772927 -0.53247
-52.7453 51.1237 -3.21409 -0.950785 -0.0864078 -0.297561
14.9214 65.469 20.9235 -0.0334673 0.991117 0.12871
-12.1679 -34.4988 -0.568152 -0.966388 0.121707 -0.226456
-21.7131 61.7905 -41.7729 -0.105483 -0.138607 -0.984714
-15.038 32.7379 -31.2894 -0.129983 -0.023378 -0.991241
-53.3164 50.8258 3.0925 -0.995025 -0.0970108 0.0226659
-45.1163 50.0079 15.607 -0.224979 -0.729065 0.646413
-45.0376 44.7481 -8.8146 -0.735849 -0.656873 -0.16445
-3.33458 -57.8993 -18.9354 0.353021 0.178853 -0.918361
-0.28126 6.73543 -23.7753 0.637217 -0.520193 -0.568643
41.5942 65.4236 -5.94717 0.512734 0.416457 -0.750778
-8.68035 -14.7952 32.0027 -0.467394 -0.527788 0.709213
17.1157 -51.2046 -4.14139 0.885525 -0.152079 -0.438997
8.8302 -9.02067 -16.1303 0.0170064 0.0373729 -0.999157
6.47666 25.3102 -19.0085 0.860664 0.375829 -0.343526
-10.5031 -22.3403 -4.41326 -0.656576 -0.43636 -0.615222
9.00619 52.4617 -25.1229 -0.0316037 -0.718393 -0.694919
-19.5909 48.5189 -32.7782 0.360336 -0.932727 0.0133807
3.37979 9.01946 27.6237 0.2295 0.089164 0.969216
-18.1026 -59.1098 -24.2849 -0.735605 0.221507 -0.640172
-37.838 3.81632 14.3863 -0.712761 -0.569024 0.410102
26.8722 40.0364 -8.26432 0.287439 -0.738759 -0.609602
-14.9925 69.1547 -15.0745 -0.032165 0.99111 0.129096
-45.1858 21.9111 -24.8601 -0.171243 -0.384935 -0.906918
-9.12241 68.5767 -9.17904 -0.0323034 0.989977 0.137485
21.3219 2.94886 3.13763 0.958147 0.282591 -0.0457858
38.9798 68.4345 2.93582 -0.00771858 0.989544 0.144027
-3.30832 62.1695 32.9334 0.0364458 0.858949 0.510763
-10.6618 32.0284 26.2234 0.825105 0.132084 0.549323
-32.9761 66.254 1.97115 -0.0379223 0.990267 0.133912
8.95123 40.6426 33.1413 0.0839189 -0.933557 0.348466
-26.7191 -63.0886 4.94405 -0.383979 0.0358299 -0.922646
14.9715 26.9116 3.4878 0.955588 0.285541 -0.0729191
-2.7819 -26.8981 19.263 -0.32739 0.0574795 0.94314
9.71412 -39.3134 23.2477 0.321822 -0.107569 0.94067
-31.0045 -6.75056 2.49116 -0.595173 -0.781136 0.188668
-42.8344 32.5372 14.9102 -0.971476 0.156407 0.178244
18.2999 19.0217 8.53617 0.973324 0.215966 0.0774514
44.8848 38.9849 26.803 0.382858 -0.662308 0.644024
9.12384 -44.9772 20.9056 0.178867 -0.564577 0.805766
15.0791 64.6686 27.0479 -0.0309137 0.991662 0.125102
-39.7873 38.9577 33.0061 -0.868223 -0.256296 0.424855
-9.1325 64.4227 21.1655 -0.0532181 0.987169 0.150547
-2.97858 -57.0445 -9.12794 0.383288 -0.827525 0.410235
3.10489 63.2845 32.7384 -0.109366 0.959105 0.261067
-15.4158 -51.0133 -15.1308 -0.836142 0.493817 0.238772
-38.3719 35.41 26.9648 -0.212702 -0.97686 0.0224118
27.657 -24.9664 8.84973 0.362962 -0.929342 0.0676873
-33.1393 -2.83985 8.84072 -0.57318 -0.742275 0.34712
14.9242 67.8409 2.96057 -0.0336943 0.990663 0.132101
-21.0434 64.9899 14.7143 -0.0293241 0.99076 0.132416
2.34288 68.3618 -32.5387 0.570887 0.594664 -0.566094
44.2325 51.2703 31.8169 0.610795 -0.110848 0.783991
33.3456 50.4551 34.6686 0.0904722 -0.446236 0.89033
49.7966 62.4203 20.4172 0.848199 -0.0927679 0.521491
16.8671 -27.2083 8.18994 0.85421 0.519684 0.0159163
30.4938 -45.8637 14.4108 0.981374 0.1153 0.153659
28.2897 -26.7944 15.8472 0.311783 -0.911045 -0.269792
26.2048 36.7348 8.78564 -0.123915 -0.961788 -0.244148
33.0156 67.708 9.02395 -0.0322796 0.990996 0.129943
-3.16823 63.9225 26.8084 -0.0510781 0.988953 0.139148
-48.8755 61.3112 -7.28923 -0.782295 0.339625 -0.522178
20.8681 62.8197 -29.068 0.0915104 -0.107302 -0.990006
45.4895 56.82 2.94092 0.841438 -0.365323 -0.398146
33.0907 68.2431 -15.0235 0.260297 0.958424 -0.116917
-42.3669 39.0659 25.483 -0.974862 -0.028192 0.221017
38.9826 56.7821 -15.0025 0.462709 -0.727477 -0.506634
-15.0463 70.7565 -26.9625 -0.0382443 0.989416 0.139976
-45.2554 15.0494 2.95171 -0.979171 -0.0590852 0.194249
49.6706 56.7222 21.0356 0.954893 0.276633 0.107952
15.0244 63.6101 32.8121 0.0652532 0.951629 0.30024
-32.4689 55.998 37.3912 -0.48926 0.568682 0.66123
20.9044 -52.3565 16.4853 -0.0466626 -0.72403 0.688188
-35.5947 13.5725 -23.7129 -0.585256 -0.157152 -0.795474
8.99231 -58.6126 3.0958 0.236836 -0.967865 -0.0845319
-15.0778 69.9207 -20.778 -0.0335042 0.990442 0.133802
19.0747 -50.5675 -1.3441 0.728467 -0.249698 -0.637955
-3.00872 -33.0301 -9.6579 -0.433372 0.312992 -0.845118
11.1955 9.56582 23.3537 0.61952 0.0609064 0.782614
15.2448 52.8611 36.6418 -0.0582033 -0.530271 0.845828
13.8053 -21.7064 27.4333 -0.750068 -0.53616 0.387208
8.70964 50.7366 37.2094 0.317372 0.207471 0.925327
-21.291 -3.36135 -21.337 -0.172207 -0.666679 -0.725179
8.57179 -21.1498 21.473 0.19216 -0.871438 0.451298
-3.12938 56.7759 37.8046 0.26585 0.502028 0.822977
20.5882 52.5517 -20.4404 0.348177 -0.790967 -0.503135
-14.4043 -64.4621 8.54806 0.518109 -0.724695 -0.454291
-34.5948 8.21735 -22.8131 -0.616988 -0.292988 -0.730399
9.73231 -8.40111 33.9911 0.395287 0.667511 0.631013
-9.69638 27.2095 25.3538 0.168459 0.00108297 0.985708
-15.7818 -62.0732 4.88982 0.326444 -0.490933 -0.807724
16.9281 9.28789 -4.01286 0.85832 0.166537 -0.485336
-45.9404 51.1488 -20.9457 -0.838051 0.0447857 -0.54375
27.0856 66.7074 14.9429 -0.0384582 0.991291 0.125947
38.7993 51.0385 33.8747 0.21111 -0.238829 0.947836
-19.5702 -13.0087 -7.5527 -0.394926 -0.82133 -0.411644
30.8177 -50.1248 9.30453 0.923822 -0.382746 -0.0076006
-20.9539 68.9308 -14.9903 -0.0336812 0.991934 0.122197
-41.3515 33.7633 8.07512 -0.95211 0.20677 -0.225238
18.9313 -29.4325 3.16621 0.733212 0.679927 0.010007
-32.8153 62.3178 26.9102 -0.343655 0.899398 0.270158
-39.0298 68.0995 -15.0989 -0.223476 0.972364 0.0675763
-10.8637 -16.9569 28.8612 -0.419901 -0.609187 0.672736
-32.9933 63.6741 21.0158 -0.11712 0.981932 0.148634
2.95728 -45.236 -13.3317 0.366825 0.104043 -0.924454
7.2558 26.8924 -14.8354 0.917507 0.213504 -0.335556
-33.646 43.7074 -21.9697 -0.444194 -0.666133 -0.599131
-7.50443 -44.0312 19.0046 -0.535735 -0.363463 0.762157
28.468 35.6058 10.4789 -0.28664 -0.931203 -0.225162
30.8615 -19.891 25.1402 0.845843 -0.161748 0.508317
-26.6648 69.0281 -39.096 -0.48915 0.620102 -0.613356
15.1665 71.0029 -20.9974 0.00183636 0.996564 0.0828065
-43.7382 15.0906 8.88781 -0.950167 -0.0427619 0.308795
-19.9935 -58.5015 11.0785 0.195952 -0.361733 0.911456
3.37291 32.9986 -21.9252 0.417744 -0.561052 -0.71464
-7.47469 0.66601 -23.4925 0.298241 -0.580999 -0.757293
-19.1878 -62.9819 -20.9195 -0.985284 -0.0456265 0.164723
-3.15171 9.06166 27.5938 -0.0795593 0.155297 0.984659
20.7422 63.033 33.0132 0.0313789 0.890125 0.454635
-50.365 62.857 3.15686 -0.793163 0.604481 -0.0741267
13.279 32.172 3.0395 0.930665 0.356277 -0.0832384
21.391 39.2674 -8.08452 -0.0885169 -0.606754 -0.789946
15.9233 38.5752 -15.0345 0.973442 -0.0312147 -0.226798
8.84243 63.6735 32.9066 -0.0389119 0.989858 0.136624
27.8252 -8.84199 15.0799 0.670934 0.696138 0.255422
14.873 70.2325 -14.9186 -0.034668 0.989801 0.138174
-21.0418 50.9152 -39.0306 0.27977 -0.568656 -0.773537
-38.8957 67.5245 -9.17692 -0.0456172 0.991536 0.121552
-19.9823 -52.1284 4.96122 -0.496221 0.451414 -0.741613
30.0894 -8.63448 3.83793 0.999934 0.0100453 -0.0055276
-27.3426 45.1141 -26.8876 -0.210884 -0.781206 -0.587576
-8.60844 8.17023 -28.7661 0.223721 -0.445756 -0.866747
-14.3718 -19.6125 20.6183 -0.618548 -0.741927 0.25873
3.37864 27.1049 22.7267 0.333758 0.359179 0.871548
8.942 64.4392 27.0916 -0.0384425 0.991186 0.126781
-39.1324 65.7606 4.06712 -0.0342752 0.991451 0.125897
2.03726 -50.7904 -13.8691 0.736692 -0.169668 -0.654597
14.3427 65.9157 17.3327 -0.0212459 0.991902 0.125216
-44.5195 39.9807 3.0211 -0.701753 -0.703131 -0.114671
-3.32635 -22.2428 21.7009 -0.127494 -0.801049 0.584864
-50.4511 46.586 8.33299 -0.466916 -0.781692 0.413457
38.8696 69.1665 -2.69735 0.0389322 0.995101 0.0908699
-21.0941 15.0221 -31.3967 -0.203814 -0.144556 -0.968279
15.0717 68.6424 -3.02138 -0.0349671 0.991278 0.127062
-27.1791 56.8931 -39.8932 -0.527872 0.0052798 -0.849308
-9.06262 51.1838 40.6628 0.0532866 0.111611 0.992322
51.2204 38.9967 14.9561 0.945947 0.317084 0.0681309
3.23381 8.72057 -21.2236 0.728504 -0.443739 -0.521898
14.1628 8.8625 -8.32825 0.778613 0.154548 -0.608175
15.8411 -0.985495 -10.8258 0.319408 0.663415 -0.676652
-27.107 64.7577 14.8544 -0.0326737 0.990651 0.13245
20.0935 -10.7259 26.8966 0.473267 0.775035 0.418734
45.2254 32.9615 2.79253 0.510229 -0.668289 -0.541347
-27.2053 63.0275 -39.9437 -0.528346 -0.072419 -0.845935
43.5856 49.352 -1.16852 0.462409 0.479577 -0.745777
9.00082 70.7659 -27.2638 0.0138228 0.934642 -0.355321
-40.504 1.81415 3.10182 -0.754213 -0.634863 0.167667
-3.26919 40.9531 37.059 0.243464 -0.747637 0.61787
-26.9465 44.8248 42.4199 0.123633 0.0666607 0.990087
14.9327 44.9984 -20.7906 0.559258 -0.23208 -0.795845
48.6048 63.6144 -1.09382 0.922588 -0.131366 -0.362733
25.1354 -40.0811 -0.671276 0.49486 0.201122 -0.845378
-12.8098 -26.76 3.32226 -0.967021 -0.210089 -0.143992
-8.81284 66.2921 8.13088 -0.0365703 0.990357 0.133621
15.0489 -19.5169 31.3329 0.15723 -0.620334 0.768417
8.6594 14.808 -14.849 0.901821 -0.0476888 -0.429471
26.0189 -13.41 -2.65746 0.603862 -0.698921 -0.383224
8.46038 9.02573 -14.6303 0.722969 -0.042264 -0.689587
9.01341 -20.2295 27.1098 -0.108698 -0.994028 -0.00967137
27.6929 -51.4606 15.5909 0.499912 -0.600773 0.623827
15.0445 -8.22986 27.516 0.477776 0.832952 0.279145
20.7933 69.6626 -9.01192 -0.036739 0.989857 0.137235
-40.0385 44.8289 27.0353 -0.91106 0.356965 0.206266
38.7753 44.9263 32.2533 -0.0404222 -0.275823 0.960358
26.1232 -55.1194 9.16322 0.399052 -0.906814 -0.135816
-31.0664 -6.68628 -8.7957 -0.552392 -0.81873 -0.156664
15.3434 -2.82232 21.4956 0.695547 0.239602 0.677352
-24.8561 -7.11498 13.3984 -0.659339 -0.576228 0.482942
-39.2236 2.50451 8.91033 -0.721381 -0.62805 0.291826
49.3467 44.9224 15.0023 0.990501 0.0119113 -0.136988
-48.9952 47.3131 -14.1871 -0.749443 -0.62438 -0.220194
15.1073 -57.0496 9.07513 0.112725 -0.976967 0.181187
8.84358 26.5886 20.3595 0.46997 0.450539 0.759041
-32.8503 14.9689 -25.9165 -0.559504 -0.119805 -0.820123
-12.3733 -24.4016 -0.1891 -0.801401 -0.419543 -0.426311
27.4956 -38.765 2.23468 0.6183 0.563577 -0.547801
-3.44853 -1.67111 28.835 -0.0619657 0.411885 0.909127
22.4283 66.0603 18.545 -0.034408 0.991658 0.124218
-43.6496 31.6598 -19.7366 -0.559138 0.693998 -0.453577
-34.1754 -4.38036 -9.27573 -0.602401 -0.782997 -0.155011
30.98 47.7606 -12.12 0.0771641 -0.38268 -0.920653
-43.6756 33.048 -2.84821 -0.949174 0.313346 -0.0297052
24.8394 -54.5265 5.35829 0.337776 -0.783995 -0.520826
-31.1017 56.7909 -37.0273 -0.652565 0.0572525 -0.755566
-33.1387 68.737 -32.6514 -0.575192 0.706174 -0.412884
-40.6701 50.6485 21.3888 -0.961276 0.0957428 0.258423
39.1104 34.0581 9.4729 -0.435121 -0.891487 0.126178
3.00521 64.2426 26.9316 -0.0366772 0.990862 0.129796
14.8744 26.6806 9.00135 0.936721 0.322712 0.135686
-8.38102 -20.3728 -7.5986 -0.49027 -0.47467 -0.730974
14.6672 3.01251 20.8966 0.719003 0.099409 0.687861
25.0759 -8.90674 -7.79568 0.795217 -0.0929844 -0.599152
-2.53905 56.4418 -34.8646 0.252124 -0.390471 -0.885418
-9.24289 -50.5669 -21.2619 0.732262 -0.00955906 -0.680956
-45.7917 15.0701 -3.07312 -0.993264 -0.11152 -0.0314605
-20.5429 -14.9651 8.86243 -0.771699 -0.625591 0.114523
2.89426 -55.8401 -8.58861 0.0128699 -0.807235 -0.59009
14.5197 -50.5751 -8.0834 0.592953 -0.353238 -0.723623
39.5922 32.2815 2.50475 -0.267311 -0.931775 -0.245643
-27.8823 1.04659 -23.0611 -0.30578 -0.581253 -0.754085
20.967 -45.0783 21.5262 -0.077716 -0.0165383 0.996838
-14.8951 -20.7595 14.9871 -0.702962 -0.682993 0.198405
-20.9973 27.4649 32.8504 0.0791485 -0.761638 0.643151
-3.15022 -58.3674 2.9321 -0.37065 -0.917686 -0.143075
-2.72869 -56.6444 14.6893 -0.342702 -0.728512 0.593149
-8.94645 -44.6771 -9.00707 -0.870955 0.373156 -0.319676
21.1292 -2.95323 -9.73564 0.510324 0.566315 -0.647191
21.2543 -33.2065 -3.12858 0.877248 0.4156 -0.240233
-43.9712 66.0662 0.510962 -0.0530038 0.988173 0.14389
34.9169 51.3756 -10.8952 0.607899 -0.207872 -0.766321
28.9852 -52.8752 7.95389 0.652981 -0.670505 -0.352192
33.0708 69.2473 -2.83251 -0.0341251 0.992011 0.121448
-16.4129 -16.8384 -3.49129 -0.573616 -0.721912 -0.387051
-12.2876 -44.3625 -0.940278 -0.931994 -0.110137 -0.345335
20.7233 68.57 -26.7419 0.259784 0.847682 -0.462544
8.9622 70.0153 -14.9769 -0.0411159 0.990233 0.133219
-1.764 21.1512 -28.9714 0.48527 0.100563 -0.868562
-43.9281 66.4564 -2.8848 -0.131283 0.987611 0.0859588
19.1431 -15.2193 30.6295 0.572529 0.0582599 0.817812
-11.3543 -60.3837 5.694 0.375726 -0.570276 -0.73049
2.78851 70.5771 -20.8699 -0.0299186 0.990233 0.136177
-26.5031 -8.36099 8.77445 -0.647044 -0.696618 0.309931
2.92392 69.0091 -9.19739 -0.0431771 0.989384 0.138761
-9.26243 66.9521 3.01105 -0.0379246 0.990735 0.130404
21.9048 -39.1054 -3.512 0.809385 -0.164427 -0.563791
-33.8799 -4.29128 3.15301 -0.620528 -0.759522 0.195118
-14.8217 57.1939 39.3259 0.0354122 0.426933 0.90359
13.2917 -55.309 -7.20871 0.483217 -0.555042 -0.677075
32.7609 -14.9307 15.0975 0.750945 0.648076 0.126808
2.1089 41.6758 36.4123 0.133198 -0.786236 0.6034
-14.7711 64.1845 21.0476 -0.038112 0.986416 0.159784
-15.4961 -20.8727 3.02544 -0.812634 -0.550283 -0.19187
49.7878 32.8052 9.27125 0.826168 -0.432932 -0.360579
38.8616 44.9205 -8.77238 0.534183 0.0487649 -0.843961
-2.97054 71.1783 -26.9934 -0.0215227 0.991937 0.124889
-43.2467 32.7622 2.78942 -0.921227 0.341661 0.186034
-15.1904 50.9065 41.0188 0.105867 0.120966 0.986995
-21.1476 68.1345 -9.08053 -0.0365143 0.990747 0.130719
39.0845 64.8303 26.8093 0.140603 0.911336 0.386908
-8.73753 -63.5987 -14.9204 0.299209 -0.811952 0.501207
26.6875 -50.6761 3.6921 0.43461 -0.536898 -0.723087
15.0277 67.0489 8.9561 -0.031906 0.991061 0.129534
-37.4838 15.0702 19.1475 -0.740216 -0.0196948 0.67208
1.89713 -31.8692 -11.2892 -0.286476 0.402354 -0.869507
-16.7818 -56.699 -14.6156 -0.86061 0.0249032 0.508655
21.017 -26.0795 27.0016 0.459381 -0.886955 -0.0477522
-46.8151 27.1913 -14.7711 -0.935783 0.258457 0.239811
-15.4518 -57.1787 -25.2367 -0.371533 0.22886 -0.89977
-37.2082 51.5982 -31.2495 -0.69507 -0.114618 -0.709747
-26.847 66.3837 2.60622 -0.0326922 0.990309 0.134977
26.9302 62.7169 32.6819 0.106028 0.853015 0.511003
37.7095 51.7318 -8.51496 0.78248 -0.376254 -0.496143
-20.6643 63.45 -42.3041 -0.0300184 -0.132584 -0.990717
27.1333 56.1675 -21.3947 0.37299 -0.782214 -0.499019
-38.9703 64.1563 14.9664 -0.0478571 0.984387 0.169386
44.6772 68.4461 -2.72804 0.317463 0.927592 -0.196954
9.53211 -45.1079 -11.1307 0.35472 -0.17496 -0.918457
-15.1478 68.3414 -9.00717 -0.0362664 0.991122 0.127916
-2.94933 64.8078 20.8818 -0.0427891 0.989662 0.136888
-45.3732 26.7841 -3.07461 -0.98577 0.164585 0.0341855
-38.8857 15.0288 -21.1846 -0.678858 -0.232132 -0.69661
8.83331 68.4013 -2.94586 -0.0400162 0.991997 0.119752
2.85289 67.3742 3.11416 -0.0250217 0.991312 0.129133
44.3428 45.2298 31.4313 0.614912 -0.128636 0.778033
-47.2522 57.4349 -16.6188 -0.873856 0.213164 -0.436962
49.2141 45.082 21.1546 0.980725 0.054551 0.187625
-3.11961 68.7659 -8.98933 -0.0300045 0.990644 0.133135
49.8955 45.0582 8.9211 0.951334 0.217606 0.218198
-8.6321 -19.3964 26.6584 -0.1744 -0.880102 0.441593
9.09507 39.061 -23.0333 0.230915 0.0442759 -0.971966
32.8935 44.834 -10.4881 0.0860958 -0.478678 -0.873759
22.3771 -1.7262 9.40307 0.82815 0.48564 0.27986
-39.287 33.0652 -21.5766 -0.379205 0.569151 -0.729569
8.876 3.05239 -14.1681 0.587255 0.0199343 -0.809156
48.4986 34.493 5.22784 0.840956 -0.248346 -0.480746
19.3086 -38.5402 -7.68933 0.752149 -0.287368 -0.593036
-43.0517 9.56357 8.51979 -0.919868 -0.24825 0.30367
-45.6486 63.154 -14.8884 -0.812276 0.560147 -0.162614
32.3461 51.9569 -13.037 0.271142 -0.597329 -0.754771
-20.4838 46.7969 42.0954 0.0589555 -0.0524003 0.996884
-2.17421 14.4776 -28.9702 0.445032 -0.203443 -0.872099
-21.0374 -14.853 3.10791 -0.687415 -0.725738 -0.0276419
-26.9076 62.0574 32.6314 -0.0796795 0.961569 0.262748
20.9433 56.41 37.4131 0.0411982 -0.205871 0.977712
-44.9524 15.1283 -8.90706 -0.964165 -0.146775 -0.221004
-26.5893 3.89742 -25.5206 -0.289835 -0.525366 -0.799992
21.0066 -55.2853 13.7253 -0.0228909 -0.836507 0.547477
20.7457 65.6078 21.492 -0.0313393 0.991463 0.126566
26.6253 65.7589 22.012 -0.032019 0.989754 0.139148
-39.8892 9.18105 15.0937 -0.836575 -0.185555 0.515472
-47.2014 65.0106 -3.4514 -0.65634 0.737849 -0.157471
-14.9573 3.01674 -26.6308 0.0424376 -0.545638 -0.836946
27.0035 62.6422 -26.6341 0.54403 -0.231429 -0.806519
-46.3446 63.555 -9.38218 -0.787101 0.578495 -0.214045
9.9687 -51.54 16.8669 0.383446 -0.402338 0.83132
32.0668 -45.0543 9.41334 0.931123 -0.0471752 0.361642
-31.5915 61.1116 31.6048 -0.477366 0.751243 0.455803
32.9603 37.5141 27.4935 -0.202333 -0.857866 0.472363
-9.13726 70.1619 -20.9946 -0.0310042 0.99152 0.1262
-50.2321 46.3851 -2.67568 -0.51178 -0.829236 -0.22461
-41.8329 47.9302 17.4885 -0.982113 0.125217 0.140624
-27.3534 26.8127 27.2699 -0.387345 -0.832852 0.395376
20.6394 -44.9234 -2.39579 0.491059 -0.361048 -0.792783
8.8848 -56.1373 -8.11217 0.128187 -0.729442 -0.671925
9.7675 -16.3924 35.4271 0.238139 -0.468662 0.850674
29.3083 -43.8957 16.0135 0.835012 0.440562 0.329637
30.8788 -24.9315 15.1974 0.799391 -0.590508 -0.110786
-31.1957 31.6387 -24.849 -0.514012 0.295542 -0.805262
-3.06563 -39.9385 23.2345 -0.322762 -0.273851 0.905997
13.3368 15.0148 -7.83327 0.819456 0.144256 -0.554691
-25.5049 -58.2223 5.26474 -0.550353 0.402948 -0.731262
-32.5553 3.69716 19.5515 -0.443239 -0.568933 0.692715
-15.2429 57.0106 -38.5456 0.430904 -0.368106 -0.823905
8.88866 38.5055 21.041 0.135443 -0.986024 0.097017
-33.1367 20.8016 -26.1726 -0.521563 0.00406583 -0.853203
32.5571 -15.0848 9.09646 0.75916 0.577466 -0.300348
-26.9968 70.3189 -26.9106 -0.0335975 0.990591 0.132669
-3.16735 62.6391 -37.4053 0.291695 -0.233634 -0.927539
-39.8629 50.7053 -28.0212 -0.690034 -0.280204 -0.667337
-34.0939 57.0761 -34.0722 -0.711749 0.0647598 -0.699442
-9.10688 3.23564 -25.8622 0.229541 -0.554045 -0.800216
-8.30236 -39.0288 -8.05071 -0.675552 0.149406 -0.722016
-9.01694 70.9674 -27.0021 -0.0358901 0.989997 0.13645
-21.3075 7.87487 -29.1043 -0.158997 -0.423944 -0.891623
30.5946 -17.514 24.6343 0.643704 0.549212 0.532928
-8.2519 -39.3627 20.1288 -0.685164 -0.154021 0.711918
-33.0594 66.9152 -3.01739 -0.0291662 0.990669 0.133131
37.9037 62.9601 -19.5615 0.613142 0.0313978 -0.789348
-48.7607 56.6417 -13.7209 -0.899331 0.245297 -0.361985
-32.826 69.9395 -26.8536 -0.156395 0.986148 0.0552556
9.40982 66.2408 13.4976 -0.0302537 0.991257 0.128429
33.3538 -21.402 15.4829 0.781857 -0.595026 0.186127
-44.0414 39.3091 15.0274 -0.916648 -0.38718 0.0992313
-27.1349 57.1136 38.7421 -0.107048 0.567731 0.816225
-20.9993 -8.50464 -15.1218 -0.244857 -0.836637 -0.489984
44.4895 57.0315 -3.09955 0.854401 -0.513837 -0.0772718
-33.8848 1.44205 15.8543 -0.447238 -0.756824 0.476651
-13.6351 -20.2155 -2.38148 -0.689243 -0.567878 -0.449953
-2.86307 67.1659 3.11513 -0.0336807 0.990975 0.129747
25.1492 -24.7433 25.9996 0.416619 -0.808243 0.416139
-2.43676 2.36421 -21.8266 0.503226 -0.542874 -0.672348
37.2122 58.8856 -18.6638 0.428496 -0.522497 -0.737149
-8.9053 63.5728 27.161 -0.0527485 0.987304 0.149829
-9.36046 57.6814 -37.1902 0.205624 -0.42888 -0.879648
13.6058 26.816 -2.87431 0.911166 0.242723 -0.332959
15.5464 -26.7172 26.9975 -0.709715 -0.678082 0.191075
14.2258 8.9813 20.5101 0.724226 0.0994494 0.682354
15.2286 56.5816 -28.3259 0.190903 -0.50012 -0.844651
-37.9093 56.7266 26.7577 -0.884774 0.413097 0.215697
-21.0901 71.1977 -38.9455 -0.119351 0.963879 -0.238102
-22.3959 47.384 -33.2972 0.333331 -0.942531 0.0229336
-8.71344 2.98439 27.5577 -0.151702 0.0782947 0.98532
-20.9201 71.3545 -33.1428 -0.0317954 0.995005 0.0946214
8.54327 65.8049 16.5651 -0.0275131 0.990968 0.131243
-8.99058 37.679 33.1234 0.179816 -0.908999 0.376015
-26.9415 67.1176 -2.96305 -0.0282276 0.991031 0.130615
2.21139 15.1986 -26.09 0.657935 -0.169459 -0.733761
-15.0241 -3.51375 -21.8555 0.0453001 -0.652265 -0.756636
2.90509 68.2025 -3.1057 -0.0372241 0.990848 0.129746
-21.1782 -56.608 4.03578 -0.267839 0.209468 -0.940417
25.418 -22.0508 30.8673 0.494849 0.226414 0.838964
39.0558 39.4127 -7.64635 0.138683 -0.503531 -0.852774
-33.08 35.1511 33.1337 -0.0725155 -0.994152 0.0800185
-3.07744 14.8722 26.6937 -0.00550539 0.137461 0.990492
-15.1353 45.2754 -28.2193 0.058611 -0.261715 -0.963364
-22.1942 -9.51618 15.3645 -0.826186 -0.413848 0.38229
-15.0677 67.5393 -2.98161 -0.0356084 0.991297 0.126737
3.20551 -38.879 -13.0353 -0.122433 -0.029096 -0.99205
49.9528 57.1276 15.0305 0.999295 0.0340705 0.0158004
-21.1263 65.64 9.7417 -0.0418444 0.990571 0.130453
1.4185 3.75315 -19.6738 0.583779 -0.437661 -0.683853
-39.6586 63.0919 -27.0727 -0.810094 0.138239 -0.56977
39.4015 37.9519 27.9263 0.204029 -0.728501 0.653956
-44.2605 32.9096 -14.8733 -0.8588 0.500267 -0.110432
14.4859 -45.0521 20.1516 -0.0599337 -0.431424 0.900156
25.0253 -4.12083 -6.88085 0.736714 0.368468 -0.566995
-39.0567 26.7807 -25.0249 0.122517 0.148339 -0.981318
-45.9024 44.3095 -3.67245 -0.815466 -0.535006 -0.22087
-10.4836 -32.8282 -3.42712 -0.824439 0.190686 -0.53286
32.9831 65.1699 26.9174 -0.000277168 0.958487 0.285137
21.2547 -15.6161 -3.34181 0.355787 -0.915735 -0.186671
-1.82983 -10.3388 36.679 -0.234408 0.148247 0.960768
49.7755 51.012 21.0391 0.963652 -0.207652 0.168094
-42.8474 51.1611 -25.0466 -0.742468 -0.0708093 -0.666129
3.26574 -38.7563 24.5197 0.0222396 -0.136888 0.990337
9.84563 21.2459 22.4676 0.564472 0.275318 0.778185
27.003 47.2997 -12.2131 0.0206111 -0.281525 -0.959333
27.372 66.1518 19.3055 -0.0303411 0.992021 0.122368
-21.0203 63.2017 26.7427 -0.0475481 0.990113 0.13197
-33.6091 50.3285 -33.7976 -0.573334 -0.492936 -0.654448
-12.8518 -26.2919 8.53912 -0.928573 -0.327067 0.175443
2.35308 56.8986 -32.8104 0.556521 -0.499213 -0.664131
-48.6002 53.6609 18.3375 -0.498356 -0.508758 0.702001
-14.9396 -15.0805 26.6502 -0.705371 -0.435158 0.559543
-6.87792 -54.698 -2.13675 -0.643622 -0.733635 -0.218015
-13.8085 -64.4383 13.5684 0.452111 -0.543431 0.707304
27.0097 67.4901 8.97391 -0.0366176 0.991394 0.125686
-33.4023 33.2919 27.2463 -0.578187 -0.559317 0.594023
-9.20154 71.6896 -32.754 -0.029329 0.992791 0.116212
-45.1352 21.1591 3.02976 -0.97481 0.0602706 0.21474
27.1888 -39.1123 15.0732 0.732241 0.409694 0.544036
-38.5247 62.8475 20.2091 -0.190175 0.874031 0.447106
-8.89166 67.762 -2.97961 -0.0359392 0.990903 0.129694
-38.7149 2.94135 -15.0285 -0.7771 -0.466983 -0.42195
20.928 68.8432 -2.91024 -0.0349329 0.989898 0.137407
45.2072 38.683 -3.06618 0.716607 -0.436504 -0.544003
31.2421 -40.9686 8.19365 0.639563 0.714078 0.284697
-21.1365 21.285 -31.5451 -0.270619 0.0544585 -0.961145
-21.0376 62.267 33.0054 -0.0409232 0.986844 0.156413
-3.19277 67.9654 -3.00423 -0.0332947 0.990433 0.133918
39.2758 36.6637 -5.19362 0.0809192 -0.754173 -0.651671
26.4034 51.1999 33.7205 0.226782 -0.563537 0.794352
8.84527 -58.6556 8.97386 0.306048 -0.947562 0.091982
45.8507 62.4396 -3.30178 0.78643 -0.231725 -0.572566
50.4409 50.9707 15.103 0.984233 -0.176029 0.0173036
3.07838 -14.4331 36.9221 -0.0747531 -0.340503 0.937267
8.70327 2.92695 25.6473 0.522596 0.0906353 0.847749
-9.63471 -26.8671 -3.40532 -0.766104 -0.0724915 -0.638616
26.9671 -10.2468 20.5948 0.519471 0.763396 0.383896
-27.0321 63.1071 26.9899 0.00109632 0.990045 0.140746
-45.2095 27.0479 -9.06853 -0.978989 0.168762 0.114452
29.1253 -23.0393 22.7459 0.723779 -0.476969 0.498643
16.0115 21.066 15.3781 0.881341 0.197389 0.429274
-44.644 26.7528 3.08565 -0.97708 0.113731 0.179945
26.821 68.2731 3.00526 -0.0429199 0.990667 0.129368
-43.0968 26.7757 8.58657 -0.960554 0.096652 0.260759
-4.93907 -47.0578 -18.8225 0.417407 0.606996 -0.67626
43.1621 62.1866 -14.162 0.804059 0.312182 -0.505995
-1.83554 -57.7646 -14.9427 0.837009 -0.545748 -0.039686
-9.19305 -46.0806 -14.8429 -0.437428 0.872709 -0.216878
27.5557 -26.3516 21.1925 0.487632 -0.721713 0.491269
-15.1137 -51.655 -21.006 -0.658019 0.639361 -0.397778
-2.83888 -14.34 -13.4377 -0.148168 -0.476774 -0.866449
-3.10409 51.2456 40.0047 0.169457 0.166684 0.97134
-16.8976 -16.3544 21.8252 -0.811844 -0.515046 0.27502
-36.9332 4.59932 -19.0075 -0.675925 -0.383116 -0.629561
-2.73456 44.687 39.4652 0.171992 -0.353458 0.919503
39.0521 34.0437 15.1567 -0.0641925 -0.987199 -0.146008
33.7771 57.5229 35.1704 0.30787 0.318381 0.896577
-15.8637 -67.0361 13.0321 0.458414 -0.842747 0.282194
14.9102 69.4273 -8.94665 -0.0296126 0.989988 0.13801
-14.8767 49.5057 -28.5603 0.442547 -0.181294 -0.878228
-19.6491 -14.4648 14.8134 -0.83175 -0.518315 0.198852
32.0262 -21.4772 5.04503 0.336771 -0.11635 -0.934371
-37.0259 56.5567 -31.0456 -0.732408 0.0885322 -0.675085
-14.5914 -3.25263 26.2811 -0.592502 0.234614 0.770648
2.80543 38.5066 27.0794 0.163454 -0.970201 0.178864
-8.84611 -9.27178 -16.2002 0.0362766 -0.591402 -0.80556
-50.1737 50.8971 -8.55528 -0.951194 -0.192428 -0.241251
25.4028 -44.075 -0.530357 0.338195 -0.202002 -0.919141
15.573 38.3691 -9.20808 0.886608 -0.418931 0.196021
3.18527 -26.8232 19.966 0.0534932 0.171032 0.983812
-21.1956 33.2866 -28.6503 -0.486741 0.113343 -0.866162
8.8438 -19.2743 32.7577 0.0499787 -0.89192 0.449423
-8.92424 -3.12938 -20.907 0.255352 -0.607025 -0.752539
19.2011 2.77619 14.356 0.893623 0.177783 0.412107
-10.4238 -67.5195 -20.0487 0.58922 -0.768976 0.247986
14.9025 -14.6012 -13.8009 0.320534 -0.533093 -0.782988
-8.91476 40.3576 38.2082 0.162765 -0.756472 0.633449
26.962 68.7037 -20.8848 0.219827 0.948793 -0.226866
40.3388 64.2242 -15.5136 0.651358 0.697384 -0.29898
-37.1247 9.50394 18.9111 -0.691623 -0.17581 0.700535
26.8542 -3.51652 -2.72631 0.774043 0.570004 -0.275596
-21.1153 25.5081 26.9957 0.0335955 -0.99097 0.129804
-8.89679 65.3976 14.8559 -0.0394069 0.990877 0.128883
50.3426 33.3999 14.8439 0.618854 -0.682449 0.38895
-14.756 66.179 7.1947 -0.0451696 0.990277 0.131571
-42.2174 20.5941 12.3876 -0.861206 0.0857634 0.500968
-44.9524 63.9261 15.0528 -0.0862651 0.970497 0.225153
-20.6444 -63.0328 4.19547 0.131364 -0.333476 -0.933562
-40.3635 21.102 15.6497 -0.861599 -0.134373 0.489481
8.84679 -33.2717 -13.0966 0.0138164 0.283266 -0.958942
8.84376 70.8105 -20.9091 -0.0294165 0.990877 0.131516
-32.4783 26.8074 -25.7513 -0.43522 0.212867 -0.874798
20.8268 -14.3581 -8.87695 0.558497 -0.752541 -0.348945
8.40411 21.1377 -15.1 0.972561 0.118166 -0.200404
26.9948 69.0891 -3.025 -0.0368512 0.991318 0.126214
45.3343 64.8424 21.409 0.220108 0.91657 0.333843
-2.87902 32.9374 -26.7221 0.595145 0.00714264 -0.803586
32.0853 -20.9233 20.7357 0.800868 -0.495852 0.33577
-10.1329 -61.9227 9.70477 0.716649 -0.674386 -0.177815
44.8909 68.108 2.97984 0.229976 0.962959 0.140789
-27.5608 24.6763 23.8087 -0.0189421 -0.245976 0.969091
-32.9525 69.3351 -21.1126 -0.0377144 0.991429 0.125082
-43.5965 20.974 8.9352 -0.942988 0.059126 0.327533
-33.0568 64.4849 15.0937 -0.0617657 0.989007 0.134352
-27.4967 32.843 -26.5047 -0.408604 0.332609 -0.849949
20.975 64.8962 26.9972 -0.0346734 0.988609 0.146456
-13.7919 -38.9503 9.08055 -0.989388 0.0754454 0.124175
-14.8527 62.4647 33.0978 -0.0222683 0.986843 0.160139
32.2285 37.821 -3.90924 -0.390733 -0.743743 -0.542378
14.501 -44.5985 -8.73755 0.578048 -0.194274 -0.792539
-45.0819 64.9022 8.918 -0.0562135 0.989789 0.130987
32.0288 53.2583 36.3372 0.194011 -0.224048 0.955072
49.3297 57.7294 9.16758 0.890578 -0.354218 -0.285307
20.5729 -3.02418 15.1389 0.754422 0.404183 0.517189
-9.02304 45.3188 -27.2879 0.222099 0.0375668 -0.9743
-14.9266 65.1651 14.9883 -0.0324031 0.990047 0.136955
8.91424 69.1953 -8.86384 -0.0342326 0.991098 0.128656
21.9725 -14.4687 28.7459 0.463374 0.363564 0.808149
15.495 62.8686 -29.5261 0.160911 -0.0164122 -0.986832
14.6296 56.9891 37.9382 0.205532 -0.0875737 0.974724
20.7148 37.9196 14.8638 -0.316288 -0.914385 0.252709
-2.85849 -4.63987 31.7394 -0.121064 0.746837 0.653894
24.9665 -5.41118 12.6299 0.418814 0.805541 0.419165
-43.6499 33.0324 -9.0416 -0.939745 0.290682 0.179951
-21.2211 66.541 2.8626 -0.034819 0.991722 0.123592
-14.6517 21.0238 24.9446 -0.264503 0.148472 0.952887
-2.59895 -50.9989 -15.9749 0.043258 0.00159922 -0.999063
9.17585 66.8325 8.95887 -0.0381123 0.991324 0.125794
-15.1219 -9.63855 -15.5329 -0.135381 -0.768912 -0.624857
-27.0495 68.7017 -14.8823 -0.0320342 0.991428 0.126665
32.7225 67.264 -20.3883 0.348939 0.882938 -0.314104
3.02062 -59.5175 3.16714 0.0260876 -0.996134 -0.0838781
-33.056 -3.03253 -15.1123 -0.534114 -0.725757 -0.433589
-21.0632 69.7213 -20.926 -0.0347888 0.991109 0.12842
-2.93065 69.5876 -15.0291 -0.025515 0.989956 0.139055
26.967 51.6634 -14.8035 0.29853 -0.668297 -0.681365
7.93141 15.1057 25.0863 0.502646 0.102462 0.858399
-37.6687 51.1614 32.7792 -0.920253 0.0354177 0.389718
33.5203 55.0663 -16.1264 0.228981 -0.850892 -0.472812
21.1834 66.4821 14.9681 -0.0353027 0.990319 0.134247
-15.8473 28.5421 31.7262 0.486582 -0.586158 0.647809
-10.1525 -56.8733 -19.8674 0.639432 0.0208289 -0.768566
-26.9784 -69.4887 8.8981 0.160043 -0.985755 0.0517039
50.6728 38.799 9.03839 0.961248 -0.0290543 -0.274148
-12.769 -33.4472 8.74967 -0.96707 0.213362 0.13875
14.2969 -10.1872 32.5441 0.542384 0.598775 0.589311
-27.0689 50.5919 -38.4912 -0.36227 -0.529535 -0.767042
14.8771 69.7643 -27.2191 0.226237 0.795433 -0.562231
-9.78775 60.7346 36.6703 0.155543 0.73169 0.663653
-21.1372 67.3344 -3.09897 -0.035895 0.99176 0.122978
-21.0644 39.0426 39.4268 0.478024 -0.272343 0.835058
47.4092 37.9072 1.08085 0.856623 -0.335351 -0.392093
-20.8334 70.5317 -26.8519 -0.0364663 0.9901 0.135544
-51.8998 57.0364 -3.17009 -0.890745 0.229502 -0.392304
-52.4976 50.9261 8.96999 -0.945537 -0.18364 0.268768
-9.20558 26.8636 -31.0438 0.258504 0.146112 -0.954896
25.6458 -35.0615 8.75513 0.5606 0.828075 -0.00439888
27.27 44.0873 -11.0637 0.0746601 -0.389281 -0.918088
6.95254 -43.4493 -12.174 0.203163 -0.214368 -0.955391
1.27536 26.4234 -25.4642 0.621575 0.336971 -0.707174
3.44057 14.9378 26.649 0.175792 0.2017 0.963543
-15.3228 39.7682 38.0752 0.0647993 -0.673884 0.73599
-53.0436 56.7575 3.00268 -0.97688 0.211791 -0.0291522
-2.83884 71.0692 -33.0577 0.244264 0.940695 -0.235433
15.0373 -14.8608 33.3372 0.562936 -0.121904 0.817461
-2.6991 32.8627 22.5377 0.281687 0.404337 0.870152
8.89882 -26.9932 -9.30777 0.12389 0.513953 -0.848825
-10.7617 -23.2464 16.7184 -0.384237 -0.816479 0.430957
-14.8098 21.3156 -32.3339 0.00851042 0.0247222 -0.999658
-44.1932 8.97322 2.95389 -0.948173 -0.282781 0.144927
9.00453 -2.61483 -14.7172 0.29741 0.217425 -0.929663
-8.54388 -56.3064 3.2369 -0.273806 -0.764237 -0.583928
9.05081 65.2336 21.0522 -0.0329512 0.990821 0.131099
26.8005 69.751 -14.946 0.184752 0.97348 -0.134921
9.05709 44.8711 37.426 0.247788 -0.255868 0.934416
-2.72357 -44.9173 -15.0613 0.165258 0.573446 -0.802403
-20.9626 -51.4319 14.5286 -0.503568 0.668856 0.546856
10.4997 21.2371 -10.1026 0.793604 0.170292 -0.584117
