ply
format ascii 1.0
comment Generated by the CGAL library
element vertex 1611
property double x
property double y
property double z
property double nx
property double ny
property double nz
end_header
-17.93 2.88477 -2.8725 -0.841997 0.375542 -0.38731
21.1172 8.88407 9.1905 0.530592 -0.695105 0.485079
23.9946 -11.5551 8.9495 0.952061 -0.233429 0.197713
7.21813 -5.97033 -24.0085 -0.277591 0.513862 -0.81172
-18.0184 -6.05993 9.0335 -0.933122 -0.032796 0.35806
-3.17915 11.6369 -2.9615 0.632921 -0.049061 0.77266
-6.15355 23.9843 -6.1025 -0.151216 -0.786111 -0.599303
-1.94125 8.78477 13.3725 0.367663 0.268686 -0.890299
-12.0379 23.9508 5.9245 -0.895028 -0.443391 -0.048269
-12.0121 23.9189 12.2605 -0.855763 -0.507427 0.100928
14.3918 24.4409 14.3875 -0.834137 0.005396 -0.551531
-15.047 12.0827 4.544 -0.434045 0.899379 -0.0521754
14.5844 18.7001 11.816 -0.802909 0.127143 -0.582385
-18.2306 9.13877 6.0345 -0.540555 0.359917 0.760434
-18.0501 -12.2367 -3.193 -0.958738 -0.161868 -0.233709
8.84139 -20.9576 -14.9002 0.221722 -0.435982 -0.872215
9.07017 -12.1016 -18.0975 0.325857 -0.651459 -0.685141
10.9609 29.8481 -2.401 -0.216877 -0.000599292 0.976199
-21.0142 -21.1889 -3.0455 -0.926734 0.029366 -0.374569
20.9906 -0.31973 14.879 0.739266 0.437235 0.512163
15.1323 6.06257 -9.0185 0.351373 0.820822 -0.450321
5.78017 15.1205 -5.9055 -0.043552 0.222155 0.974038
-2.91225 -26.9484 14.8662 -0.275946 -0.754405 0.59559
24.007 8.96687 4.5045 0.893792 -0.445803 -0.048943
20.9854 -11.8232 -8.9965 0.807042 -0.193019 -0.558057
-7.90832 16.5982 9.5355 0.976803 0.0462939 -0.209078
20.9665 17.6622 8.9135 0.792109 0.204827 0.574986
-0.628 29.5755 -2.5825 -0.220115 -0.0745688 0.97262
4.15974 15.6946 -6.2205 -0.0934453 0.10675 0.989885
2.03117 18.5047 18.6385 -0.0574051 -0.0311798 -0.997864
-15.1755 -6.15443 -12.1815 -0.761385 -0.223473 -0.608567
11.5375 24.4313 -2.59075 -0.0729468 0.485372 0.87126
17.8324 11.8783 -3.16225 -0.257167 -0.603921 -0.754416
15.0642 27.1733 21.1685 0.368945 0.57388 0.731124
18.0736 6.00797 -6.2385 0.456298 0.83168 -0.316386
18.1221 -15.4608 18.0605 0.630936 -0.250659 0.734227
-2.77435 26.9897 20.7945 -0.0723351 0.987285 0.141551
-8.27422 14.6889 7.0595 0.997124 -0.00820491 -0.075338
4.76397 22.0671 18.4695 -0.0285903 0.0757954 -0.996713
-18.0513 -24.1453 3.0855 -0.490757 -0.336477 0.803704
4.15152 26.5759 -2.7267 0.00752107 -0.117511 0.993043
-24.1641 6.16917 0.7825 -0.732874 0.653678 0.188679
3.73394 8.94037 -8.9605 0.154501 0.856973 -0.491656
-18.0322 -27.0281 -0.98025 -0.32366 -0.94612 -0.0100218
21.0297 24.2313 5.72025 0.979396 0.20171 -0.00988269
11.8594 16.8397 14.8305 -0.737047 0.0505816 -0.673946
-15.0379 -15.4025 12.035 -0.806179 -0.251169 0.535714
-24.2085 6.079 -0.411167 -0.618999 0.777138 -0.113564
13.1038 17.7303 13.5013 -0.774144 0.0490978 -0.631102
-3.7196 20.7853 21.105 -0.285723 -0.320052 0.903288
-7.93825 21.169 6.9595 0.993869 0.085687 0.06987
15.3129 24.7492 12.9955 -0.838538 -0.101586 -0.535289
-12.9924 9.02327 -0.2415 -0.108 0.864818 -0.490333
14.7718 21.4533 0.633833 -0.777649 -0.0536275 0.626408
4.81715 18.5625 18.305 -0.180681 -0.0187582 -0.983363
2.4016 -12.2264 24.04 -0.0944737 -0.0905636 0.991399
-12.717 3.4276 12.5623 -0.590271 0.582854 0.558445
-12.3245 27.0347 15.2885 -0.640143 0.718582 0.271766
-21.4391 -0.08598 3.09725 -0.228472 -0.582732 0.779887
21.0585 -21.0975 -0.1365 0.878859 -0.462748 -0.116066
-18.4785 5.92432 6.0175 -0.202909 -0.178364 0.962816
-7.36845 13.8435 10.2505 0.944232 0.149924 -0.293172
7.03857 27.2275 -3.6279 0.43631 0.0401637 0.8989
12.9358 12.68 12.9365 -0.690378 0.457296 -0.560587
-21.0305 -22.5924 0.139833 -0.936765 -0.0698653 0.342915
-8.14666 8.75598 -8.61035 -0.28978 0.88937 -0.353623
3.26053 27.3602 14.5622 0.127626 0.266755 -0.955277
-14.7918 -20.7327 8.69442 -0.832619 -0.400044 0.383028
-6.31324 0.498248 -18.0763 -0.242221 0.246555 -0.938371
10.6096 14.8332 -4.428 -0.606875 0.328625 0.723677
4.02579 9.1103 -9.3615 0.133266 0.890109 -0.435828
12.0093 -30.0266 4.9935 0.302159 -0.953213 -0.00916697
7.31832 19.3078 -5.162 -0.253254 -0.280698 0.925781
2.29804 25.9873 -2.81361 -0.144018 -0.10261 0.984241
23.9423 -11.8022 -2.7295 0.935986 -0.244188 -0.25358
-5.51918 12.4368 13.2032 0.714434 0.502652 -0.486749
14.9142 -23.9247 -8.92425 0.564072 -0.638711 -0.523327
15.378 22.0614 11.807 -0.671656 0.210734 -0.71026
20.9484 23.7489 8.48994 0.974343 0.200359 0.102532
-15.34 0.238595 12.2569 -0.729224 0.402784 0.553171
0.719393 15.6807 -6.2495 0.267266 0.149291 0.951988
16.2286 16.8536 -1.5731 -0.389203 0.420252 0.819701
-9.40488 6.26894 12.5508 -0.49686 0.661479 0.561761
-18.1108 -12.5436 6.41542 -0.9641 -0.150826 0.218546
23.9229 -0.136463 -5.8825 0.857573 0.331566 -0.393234
21.0385 24.1482 6.66387 0.983982 0.176179 0.027213
11.2414 22.353 -2.66417 -0.540617 -0.0140875 0.841151
-15.8076 8.85924 0.0766818 0.0386034 0.420244 -0.90659
17.8403 -26.8832 3.28117 0.623284 -0.653894 -0.428882
-17.9475 -13.7628 -2.93 -0.953058 -0.0109772 -0.302589
-13.3844 12.2162 6.27977 -0.327182 0.818003 0.4731
1.26794 27.474 14.8795 0.00860574 0.939802 -0.34161
15.4682 20.1689 11.156 -0.705126 0.22868 -0.671195
-0.18715 3.00357 -18.1935 -0.294982 0.828715 -0.475624
14.6937 -20.7909 -11.822 0.570358 -0.469686 -0.673859
4.6505 16.677 18.2357 -0.175916 0.0978559 -0.979529
21.0385 29.2698 -3.44855 0.995919 -0.063814 -0.0638213
-11.9319 -14.3973 -11.8015 -0.628977 -0.331964 -0.702985
0.92248 11.5626 -4.9315 0.168247 0.0997834 0.980682
8.16917 23.0168 -3.83893 -0.19709 -0.134664 0.971093
-12.0517 -6.2871 -15.1115 -0.609556 -0.226604 -0.759666
24.0777 11.7809 -0.2345 0.862636 -0.303453 -0.404692
8.55193 -0.03263 -20.9785 0.0484024 0.517237 -0.854473
-6.2955 -27.1396 12.3062 -0.439192 -0.757564 0.482916
-1.2919 9.26713 -9.7786 0.00389054 0.898017 -0.439943
14.5756 5.84155 14.5779 0.356282 0.831939 0.42537
14.9172 2.91902 17.9155 0.354176 0.590629 0.725064
6.12347 14.8184 21.0335 0.177665 -0.0679059 0.981745
11.6263 7.60219 14.7347 0.492325 0.0726173 0.867377
24.1275 -6.3092 -6.1595 0.877689 -0.182145 -0.443267
4.71331 8.68515 14.0787 -0.121273 0.316383 -0.940848
15.1054 -12.4667 21.064 0.515151 -0.118681 0.848843
11.6692 -0.07978 20.909 0.228991 0.390007 0.891884
5.63982 15.4561 17.8833 -0.237149 0.183576 -0.953971
-11.6425 8.92907 -2.3931 -0.38048 0.914841 -0.135283
8.55876 21.7914 17.7657 -0.158274 0.372153 -0.914577
15.1375 -9.54323 -15.1283 0.678334 -0.228574 -0.698296
5.84997 19.1955 -5.5215 -0.176111 -0.246751 0.952942
-0.326806 -30.0527 -3.26883 -0.168992 -0.958466 -0.229748
-15.2538 6.21684 -4.36623 -0.676331 0.709008 -0.199708
-15.1198 -12.4527 -9.26385 -0.782747 -0.281263 -0.555156
-0.25425 -21.1179 -15.0779 -0.204372 -0.450813 -0.868907
-2.46692 -0.347887 20.8395 -0.240725 0.380405 0.892941
11.5734 20.1352 -2.7735 -0.621025 -0.247361 0.743734
1.69907 16.5566 18.4635 0.00600054 0.123573 -0.992317
11.8265 -29.952 3.39725 0.286288 -0.9534 -0.095227
-0.0648 0.13552 -21.1335 -0.406842 0.422774 -0.809779
-7.80928 19.589 4.53531 0.991927 -0.0438617 0.118985
18.3193 -21.2076 15.0814 0.512415 -0.320515 0.796681
15.2916 -24.3469 15.2465 0.475801 -0.568833 0.670852
1.78563 8.55917 14.2487 0.0179958 0.28555 -0.958195
-12.4999 6.07817 9.2455 -0.542514 0.702444 0.460708
-3.22105 -24.1742 -12.08 -0.345877 -0.612322 -0.710937
13.7882 22.1409 13.7033 -0.673427 0.351236 -0.650484
-6.43005 -21.3444 18.3108 -0.469124 -0.475945 0.743908
15.1825 -27.1621 -3.50567 0.565644 -0.764765 -0.308514
17.4209 5.75988 11.3871 0.537853 0.749196 0.386548
16.2465 25.1737 -1.2345 -0.663787 0.541598 0.515808
-8.60838 27.3643 -8.72418 -0.458508 -0.522683 -0.71873
9.33594 6.04897 -12.1865 0.258891 0.771132 -0.581661
-18.0251 -5.00065 9.11425 -0.94299 0.0386132 0.330573
-17.9466 -8.92978 -5.782 -0.935625 -0.175454 -0.306302
-15.2495 3.34277 9.6009 -0.689338 0.562819 0.456122
-3.4352 -18.4086 21.2273 -0.322319 -0.358247 0.876224
11.8256 -23.9174 17.7695 0.328861 -0.604214 0.725794
-12.3716 -12.5479 -12.2647 -0.6337 -0.303479 -0.711565
-2.81015 27.8984 11.6015 0.227724 0.946447 -0.228868
-6.97851 19.3976 1.33785 0.898339 -0.0318297 0.438149
15.1503 -5.43229 21.1058 0.508097 0.122143 0.852595
-8.1428 16.9928 7.3073 0.99635 -0.0780705 -0.0345295
-2.88936 -29.9542 8.7944 -0.282099 -0.933642 0.220756
-11.4949 5.77209 -11.5661 -0.457534 0.74803 -0.480744
4.54943 9.67764 14.5619 -0.111902 0.486237 -0.866632
16.0562 12.381 -2.82103 -0.024877 -0.392833 -0.919273
7.8104 19.876 17.5506 -0.349865 0.106852 -0.930686
10.0476 10.9583 13.4909 -0.490291 0.489576 -0.721062
1.47303 9.25759 -9.55146 0.085923 0.868983 -0.487325
14.8282 8.22978 11.9155 0.724013 -0.0903042 0.68385
-7.29605 16.3303 1.63996 0.922501 -0.0262226 0.385102
17.6802 -17.4811 17.6287 0.637248 -0.32869 0.697049
10.5071 22.4196 17.0359 -0.51982 0.35126 -0.778719
1.81017 27.1414 21.4556 -0.0420203 0.988244 0.146999
9.96447 13.445 16.4308 -0.410089 0.341539 -0.845682
-11.8993 24.2119 14.0865 -0.820216 -0.549214 0.16003
-9.42454 30.0546 -2.70267 -0.131861 0.983184 0.126338
24.2495 -27.3452 9.4453 0.738337 -0.598121 0.311624
-6.28878 -5.51406 21.1236 -0.374909 0.182253 0.90897
16.2956 29.1745 1.35365 -0.782293 -0.103939 0.614178
4.57939 13.9131 -5.6651 -0.105173 0.336175 0.935909
-12.0611 23.8049 10.0714 -0.872325 -0.48859 0.0181556
15.162 0.199845 -15.3503 0.708699 0.564963 -0.422567
10.4372 19.437 -3.78917 -0.505312 -0.286742 0.813903
-11.9706 24.0497 4.13925 -0.869319 -0.494125 0.0111873
21.5665 15.8465 9.39032 0.581842 0.461455 0.669715
-18.0306 0.218345 -6.59575 -0.904706 0.265711 -0.333023
17.7257 -23.6173 -5.42584 0.730493 -0.556863 -0.395328
-2.52546 23.2746 -5.69627 -0.307116 -0.0274157 -0.951277
12.3614 -6.79317 -21.2887 0.599061 -0.216741 -0.770811
-5.39972 7.7502 14.6147 -0.549743 -0.0750225 0.831958
-6.03155 -15.158 21.0645 -0.457926 -0.209874 0.863862
1.65308 9.47511 14.5921 0.0299996 0.435306 -0.899783
7.42433 16.4684 -5.74521 -0.175261 0.0509068 0.983205
-9.1909 9.17562 -6.36 -0.353363 0.900598 -0.253098
-4.45758 29.7341 -0.526433 0.628776 0.529952 0.569027
24.1651 0.345946 6.50147 0.900879 0.343999 0.264731
-23.8509 5.37249 2.69763 -0.781389 0.311386 0.540805
23.755 -23.7293 6.0641 0.24882 -0.119931 -0.961096
-5.34992 10.2102 11.3125 0.732904 0.36278 -0.575537
-8.25884 5.21162 14.4377 -0.431753 0.630186 0.645333
14.8094 -14.35 20.8469 0.496467 -0.224103 0.838629
1.2924 28.2344 -7.4074 0.773768 -0.272683 -0.571775
18.2493 -18.7492 -9.394 0.742429 -0.35139 -0.570372
-7.87599 21.9864 4.16282 0.974921 0.176926 0.135002
-5.45596 21.3731 20.7374 -0.37895 -0.534144 0.755703
-14.6182 8.93167 0.0655 -0.0250518 0.600835 -0.79898
13.3214 27.339 21.5383 0.131052 0.866147 0.482302
7.24523 13.5392 -5.15867 -0.178729 0.432893 0.883549
-0.972707 -27.232 15.2629 -0.191726 -0.776555 0.60017
11.7625 -8.77441 -20.7151 0.605824 -0.559629 -0.565502
-11.2853 2.50094 14.6899 -0.534555 0.533402 0.65554
-3.18741 -30.0751 -0.288 -0.259377 -0.955454 -0.140825
6.77029 -12.2966 24.0627 0.100367 -0.104211 0.989478
11.7409 10.1184 11.562 -0.645839 0.387711 -0.657702
4.33421 28.4252 -2.52015 0.132509 -0.0680819 0.988841
12.1389 -18.0565 21.0885 0.378929 -0.346599 0.858069
23.8949 -0.500627 8.5124 0.898056 0.325074 0.296349
4.68357 11.8165 -5.00483 -0.165721 0.220928 0.961107
21.3685 3.27676 -6.50056 0.66846 0.627613 -0.399078
20.8501 5.94202 0.29975 0.867451 0.207844 -0.452028
18.4003 26.5871 -6.73279 0.583603 -0.615213 -0.530019
24.2212 -2.1366 -6.34292 0.889957 0.141917 -0.433401
11.6035 8.76223 -5.6863 0.578847 0.195018 -0.791773
-16.4836 11.1885 4.69226 -0.493629 0.854427 0.162128
-15.2585 0.448062 -12.1411 -0.802902 0.257267 -0.537739
0.218638 28.8802 -9.31262 0.701181 -0.231649 -0.674302
-1.1419 12.9263 16.6718 0.256623 0.580057 -0.773097
-14.7808 -8.4457 -11.6989 -0.730928 -0.286097 -0.619591
17.7826 15.6662 11.6715 0.72145 -0.174842 0.67003
-9.47274 23.7897 -3.5482 -0.433975 -0.799825 -0.414663
-18.3684 -22.5423 3.33513 -0.562206 -0.141022 0.814885
-3.93539 11.3191 18.536 -0.354565 -0.564002 0.745779
-11.7029 -10.5238 17.6489 -0.694703 -0.114295 0.710158
6.6721 0.22964 -21.1515 0.191687 0.517131 -0.834165
7.33552 30.7191 -2.74365 -0.0210091 0.801339 0.597842
4.74241 5.64229 17.6623 0.0156699 0.73788 0.67475
5.47385 28.5882 -6.56643 -0.760833 -0.179284 -0.623691
7.52543 14.0188 16.8385 -0.311041 0.373537 -0.873913
15.2107 26.1621 21.165 0.670444 -0.170657 0.722067
1.84355 -21.2794 21.1392 -0.110059 -0.497827 0.860265
12.8058 14.5998 -2.2975 -0.673242 0.287692 0.681159
-2.1606 26.7936 -9.18463 0.0857588 -0.589687 -0.803066
9.59435 0.32207 21.1196 0.156849 0.413921 0.896698
-6.70714 -10.3948 21.3008 -0.463354 -0.0166158 0.886018
18.3076 0.467149 -12.3202 0.564034 0.405862 -0.719126
-3.61413 25.5154 -3.43365 0.265258 0.421525 0.867153
11.3912 5.74545 -11.625 0.28881 0.73577 -0.612561
-5.70556 -3.41789 20.8528 -0.377893 0.266001 0.886815
1.5023 -1.57778 22.1982 -0.110077 0.380233 0.918317
10.8412 16.2248 -4.45023 -0.5751 -0.0214788 0.817801
-8.75363 21.3113 17.5036 -0.760663 -0.517635 0.391723
4.66914 -6.38027 23.9332 -0.0213993 0.186949 0.982137
-9.24572 3.58329 15.3232 -0.489559 0.580857 0.650336
11.5609 -26.8675 14.7668 0.279913 -0.761648 0.584415
-8.55865 -23.72 14.6398 -0.579861 -0.589265 0.562609
7.69824 27.2954 21.9645 -0.0310936 0.983383 0.178859
-14.7686 -14.4472 -8.65338 -0.772356 -0.322805 -0.547049
4.81633 12.7752 20.6228 0.105598 -0.465596 0.878675
-17.8192 -10.9096 8.34643 -0.944514 -0.128139 0.302446
-1.94173 2.76947 -17.8181 -0.179798 0.647433 -0.74061
-24.2619 -0.382691 -0.883823 -0.773083 -0.628254 -0.0874045
-14.8742 11.9462 4.9435 -0.338381 0.929894 0.144205
-11.5843 -23.5212 11.1831 -0.678124 -0.581714 0.449174
1.50438 10.0044 17.0427 0.0864574 -0.926499 0.36623
20.5907 -23.3672 3.92121 0.813406 -0.491863 -0.31055
4.47708 25.5033 22.7242 -0.200627 -0.0813824 0.976282
14.8835 -3.24403 20.8522 0.468655 0.222787 0.854826
-6.63301 14.0433 18.3476 -0.560199 -0.220412 0.798496
-2.56575 15.9072 20.8388 -0.285374 -0.163458 0.944374
13.231 16.7261 -2.12307 -0.664521 -0.0858027 0.742327
10.4674 8.35989 -7.64891 0.294995 0.809794 -0.507161
6.4133 19.2108 21.0958 0.242207 0.0358951 0.96956
23.7035 2.53769 -1.60784 0.827826 0.551604 -0.102165
14.4185 29.046 11.347 -0.315943 0.947081 -0.0567173
21.3872 0.408492 -9.43961 0.696634 0.393839 -0.599661
-1.64772 11.7184 -3.97317 0.463566 0.0586718 0.884118
13.3924 19.8296 -1.17396 -0.710913 -0.181617 0.679425
-12.4147 26.4195 -3.89613 -0.775685 -0.570119 -0.270697
-7.88258 26.1477 20.4281 -0.317493 0.799133 0.510476
-11.3134 8.61081 -4.91254 -0.385458 0.896166 -0.219794
20.6312 2.52764 -8.45667 0.627332 0.580738 -0.518843
-9.27717 -18.2718 -12.1697 -0.563313 -0.346185 -0.750223
18.1637 3.18618 15.2554 0.541669 0.645993 0.537855
1.47581 20.1565 -8.48582 -0.160298 0.374029 -0.913459
20.7856 6.99081 0.430111 0.843879 -0.0950036 -0.528056
1.44925 13.3343 -5.50578 0.130228 0.348852 0.928086
10.4461 23.0702 21.8071 0.251003 -0.632886 0.732429
-4.86226 16.2135 -2.0845 0.769217 0.0515191 0.636907
11.5678 -23.7111 -11.803 0.417036 -0.601693 -0.68121
-0.618604 18.3663 -9.27387 -0.319228 0.475016 -0.820033
15.3566 26.8909 -9.1 0.135408 -0.622151 -0.771098
-13.4712 8.18898 -1.70362 -0.438758 0.845133 -0.305355
14.8364 -11.5609 -14.9266 0.525473 -0.142198 -0.838843
-17.9332 -8.40729 8.8551 -0.929875 -0.0955202 0.355257
9.13677 27.099 -4.4675 0.30719 -0.111212 0.945128
-3.64315 3.40115 18.3664 -0.273105 0.558086 0.783552
-4.20417 9.16662 -9.5925 -0.098947 0.910824 -0.400762
13.0251 26.6886 -9.30736 0.185195 -0.683707 -0.705867
24.1637 -2.38036 9.42093 0.927935 0.220419 0.300585
-0.91292 27.0402 21.2195 -0.0520313 0.990213 0.129502
20.6203 5.732 -1.79693 0.609802 0.778295 -0.149662
9.43388 14.5843 -9.1165 0.179593 -0.222893 -0.958157
-4.62252 13.9392 -1.89737 0.741867 0.178543 0.64634
-4.3367 27.1795 19.0319 -0.039564 0.990301 0.133184
-18.0782 -16.1696 3.34908 -0.964688 -0.0512215 0.258369
7.66496 5.61312 17.515 0.0684601 0.761671 0.644338
16.8885 8.41123 -2.10035 0.295691 0.303927 -0.905646
-12.7211 12.2329 2.5768 -0.262563 0.683057 -0.681538
-18.3582 -19.8542 3.38208 -0.716878 0.0964396 0.690496
-9.47675 23.0479 18.6189 -0.723148 -0.55142 0.415924
12.7018 0.552483 -18.7198 0.525314 0.636646 -0.56456
-16.8818 -16.592 7.46576 -0.91651 -0.281823 0.283874
1.72946 14.1569 21.2188 -0.0495635 -0.191464 0.980247
-9.81992 9.43028 -4.21602 -0.364336 0.908625 -0.204107
-17.2621 -13.5518 -4.74122 -0.899393 -0.159871 -0.406858
-15.297 -18.8006 9.5235 -0.845782 -0.341237 0.410136
-1.49968 5.37153 17.3886 -0.201763 0.624085 0.754857
-8.77897 -23.6782 -8.68256 -0.563135 -0.610061 -0.557409
-17.6504 -16.6125 4.73654 -0.953545 -0.164449 0.252406
-18.3116 -4.44498 -6.79028 -0.943625 -0.0759242 -0.322191
-8.28351 11.0763 -1.85607 -0.846925 0.162538 -0.506261
10.7037 30.8699 -2.71247 -0.129618 0.929142 0.346256
-14.6816 -17.2384 11.6607 -0.801901 -0.28673 0.524157
-1.62787 13.3646 -4.37927 0.507381 0.272218 0.817595
11.3919 22.9306 -5.42889 0.332104 -0.200657 -0.921652
8.04561 21.6603 19.8075 0.128019 -0.748149 0.651064
21.2239 -10.1158 -9.29592 0.788446 -0.197845 -0.582418
4.29495 4.34045 18.9536 -0.00607003 0.660379 0.750908
7.60149 -7.11037 -23.8068 0.0690213 -0.1218 -0.990152
-1.44328 3.98 18.5993 -0.208581 0.625064 0.752189
12.7688 16.543 18.4807 0.590878 -0.0417289 0.805681
-17.6885 2.42252 -4.95111 -0.881399 0.39995 -0.251347
-11.455 5.39207 11.5758 -0.562912 0.661197 0.495933
-23.4953 3.69221 -3.24172 0.291597 0.211393 -0.93289
12.5774 6.12984 15.3383 0.285018 0.801583 0.525575
10.2821 19.5019 16.3191 -0.540422 0.0915484 -0.836399
19.0344 7.87334 9.73998 0.498006 -0.484693 0.719071
-12.649 27.679 10.4637 -0.551113 0.821162 0.148217
21.0329 22.1535 9.19168 0.984997 -0.0364424 0.168678
-2.696 24.1859 -2.915 0.221928 0.314638 0.922904
-11.5339 2.58837 -14.8137 -0.50814 0.486479 -0.710726
8.83527 -29.9598 -2.7697 0.189628 -0.961908 -0.196911
-12.2275 -21.5887 12.2973 -0.753794 -0.440268 0.487811
1.34462 0.451028 21.2649 -0.120489 0.437331 0.891193
21.4842 8.61752 -0.3319 0.53197 -0.636018 -0.559007
18.2108 -24.1785 -3.4866 0.76991 -0.564779 -0.297092
4.66852 -7.84758 24.15 -0.014297 0.106662 0.994192
10.7984 28.3759 14.375 -0.229788 0.959874 -0.160744
24.1568 -21.7246 5.91796 0.661935 -0.0440896 -0.748264
-8.05204 16.4869 4.69267 0.989378 -0.081421 0.120427
-5.10928 19.4154 -1.49969 0.738461 -0.128764 0.661888
-15.3422 -13.127 12.5026 -0.815479 -0.186998 0.547747
19.8574 18.264 -3.1793 0.108739 0.593523 -0.797437
17.8058 -20.6623 -8.62821 0.727256 -0.446754 -0.521065
-9.35038 13.7456 15.6101 -0.812042 -0.185344 0.553386
10.02 11.5103 18.4067 0.328654 -0.58589 0.740756
15.101 -6.37429 -18.3016 0.82572 -0.383116 -0.414015
13.1206 10.6143 -4.28341 0.691978 -0.226381 -0.685505
14.5573 8.7602 -2.8745 0.563429 -0.0127306 -0.826067
14.6533 24.4625 20.5743 0.531943 -0.564692 0.630999
1.50823 12.9054 17.1084 0.0459402 0.580998 -0.812608
4.57155 -22.8611 20.2277 0.0216151 -0.585235 0.810576
-2.46907 23.1517 -2.8781 0.2973 0.0559652 0.953143
22.2115 10.7792 9.71352 0.499427 -0.328821 0.801529
17.0898 5.51321 -8.09655 0.442293 0.759295 -0.477334
12.4178 10.8461 11.3895 -0.622458 0.385424 -0.681172
24.3993 0.89278 4.3467 0.906802 0.392488 0.153832
18.4306 27.5879 15.6806 0.892034 0.275951 0.357948
8.38878 -10.7086 23.9055 0.187452 -0.0436656 0.981303
12.5269 23.61 21.3462 0.40227 -0.61742 0.675996
-6.72015 -24.5655 -9.54068 -0.470623 -0.643112 -0.604087
19.4848 7.68471 -1.26897 0.566027 -0.0568354 -0.822425
4.50569 13.5574 17.3747 -0.138579 0.486321 -0.862721
-11.0345 19.4876 4.45375 -0.988045 0.0868513 -0.127374
-14.6633 -4.56401 14.6102 -0.770941 0.0189122 0.636626
24.2928 0.715231 -3.78447 0.877007 0.411124 -0.248668
-12.2611 28.4385 -6.3874 -0.834758 -0.124043 -0.536462
16.7975 -10.4682 20.097 0.596539 -0.0649812 0.799949
-8.43398 -20.2347 17.5325 -0.582038 -0.419357 0.696686
-14.172 5.42712 7.97571 -0.614635 0.546844 0.568494
9.45355 -30.0862 9.40642 0.185579 -0.954302 0.234238
-4.66107 26.7716 -9.18007 0.0259271 -0.568008 -0.822615
-7.84267 24.444 0.839125 0.923133 0.131209 0.361399
-0.835465 14.1741 -9.41893 -0.319335 -0.355406 -0.878471
-4.93915 8.84137 11.1845 0.716181 0.086904 -0.692483
-1.55593 -7.60652 23.1386 -0.28113 0.110682 0.953266
-23.0757 1.44246 -3.23434 0.0454013 -0.118873 -0.991871
-13.3574 12.6004 4.22087 -0.461889 0.882541 -0.0881995
-3.29134 -9.55956 -18.1117 -0.304491 -0.209486 -0.929194
1.45146 5.68006 17.5828 -0.0454678 0.687417 0.724838
14.0571 -16.7435 20.5504 0.470062 -0.288488 0.834156
-6.39816 -15.4805 -15.1915 -0.455166 -0.317607 -0.831835
-10.8833 -16.6506 16.8507 -0.704076 -0.245512 0.666333
-14.74 2.51062 -11.4641 -0.747067 0.458749 -0.481083
-12.4176 27.3598 13.4046 -0.472461 0.861151 0.187612
4.83407 -14.7689 -17.9391 0.048432 -0.254781 -0.965785
1.42814 2.06509 20.3968 -0.106741 0.518403 0.848449
-8.51752 -20.3484 -11.6574 -0.54566 -0.422625 -0.723632
18.0946 -12.7137 -12.0551 0.700207 -0.187065 -0.688997
4.70426 10.1823 16.7997 0.0261368 -0.985535 -0.167443
10.7152 30.987 -10.122 -0.184074 0.714785 -0.674685
24.1774 -20.6853 5.8731 0.768276 0.366578 -0.524759
13.7183 29.7468 -0.8345 -0.568294 -0.166771 0.805748
-11.3395 8.06397 8.62753 -0.495393 0.210452 0.84279
-15.6397 -1.68527 12.8712 -0.787414 0.216437 0.577178
15.5188 6.34359 12.6385 0.4517 0.794336 0.406198
-13.074 -10.5089 16.1762 -0.75119 -0.11673 0.649683
-10.4968 4.48154 13.4841 -0.499294 0.622007 0.603169
7.135 6.45547 -12.4946 0.213522 0.748487 -0.627834
-0.2258 27.1058 -8.75 0.547574 -0.520359 -0.655278
14.5039 -26.7329 -5.5068 0.527679 -0.754062 -0.391083
-5.59638 29.1036 4.56536 0.196113 0.970939 0.137172
-7.54552 -16.5874 19.7399 -0.5389 -0.248756 0.804803
4.67548 -12.7578 24.0868 -0.00234133 -0.119472 0.992835
19.4729 30.5828 1.43089 0.337326 0.929415 0.149662
21.2939 3.3254 9.7104 0.706693 0.62292 0.335493
20.8383 2.81521 11.5823 0.743939 0.562448 0.360843
9.79478 -24.2485 18.2601 0.243986 -0.637479 0.730816
-9.58463 -24.5459 -6.76367 -0.576739 -0.659529 -0.482071
18.9145 25.5009 13.5439 0.942001 -0.15812 0.296026
-5.37732 19.7277 -5.55027 -0.615656 0.254218 -0.745882
-17.4406 3.95665 5.78818 -0.387899 -0.10427 0.915785
7.52021 14.4521 -9.16847 -0.00569611 -0.250229 -0.96817
13.6587 24.511 -5.30512 0.12159 -0.824487 -0.552664
7.51158 -6.83661 -24.1056 -0.0238116 0.0644303 -0.997638
-11.7018 -8.33769 -14.6162 -0.581358 -0.314101 -0.750575
-10.8613 19.8021 10.624 -0.970382 0.145979 0.192481
-6.52416 -21.5144 -12.3391 -0.463204 -0.483328 -0.742857
14.3525 21.7709 17.1803 0.607789 -0.579239 0.543208
17.3827 22.5247 14.5547 0.750972 -0.29135 0.592585
-7.74769 9.97544 10.9306 -0.759168 -0.586241 0.282817
-7.28205 9.4312 -7.40454 -0.252392 0.915833 -0.312326
23.4662 9.70507 1.1309 0.767012 -0.519529 -0.37654
-20.0138 7.49221 5.18455 -0.550512 0.277818 0.787244
23.9333 -14.6769 4.72895 0.96638 -0.254648 0.0355628
23.7714 2.61919 1.56669 0.835553 0.548408 0.0331591
12.4603 -4.51588 -21.2772 0.51558 0.0917383 -0.851917
-4.59039 22.7753 -1.77588 0.52424 0.176997 0.832973
21.4347 0.830056 13.0131 0.79627 0.45063 0.403593
-13.208 -7.54916 16.3203 -0.742521 -0.0154579 0.669644
-14.2061 -13.7176 13.9215 -0.793043 -0.212297 0.570975
-9.61335 -2.05232 18.4531 -0.502661 0.290508 0.814209
-13.5431 4.23144 10.6615 -0.605717 0.625938 0.491232
-12.447 -4.27289 -15.4086 -0.605141 -0.173399 -0.777006
-12.2894 26.0421 15.6976 -0.948603 -0.0951424 0.301827
13.0459 -2.28981 21.3454 0.316225 0.300428 0.899858
-3.59376 -18.5797 -15.2807 -0.337884 -0.350176 -0.87362
-6.15156 -27.1443 -6.2243 -0.44843 -0.810641 -0.376526
-9.57662 -24.5389 12.576 -0.595963 -0.637799 0.487894
19.5338 -27.1933 12.1529 0.0022755 -0.62339 0.781908
-6.95628 0.89528 18.5053 -0.395024 0.443789 0.804368
23.2397 13.3295 -2.02052 0.759333 -0.220009 -0.61238
-5.02908 26.9531 20.4876 -0.050514 0.985769 0.160334
19.9341 20.8326 0.991447 0.414671 0.814683 -0.405389
-9.34326 19.5624 15.6589 -0.903832 0.0215703 0.427344
6.81505 -30.1302 -3.4605 0.116787 -0.973098 -0.198598
7.36588 10.3178 14.3581 -0.272559 0.489144 -0.828523
12.1373 -2.61973 -21.0966 0.436587 0.242027 -0.866496
7.77532 9.8307 17.2748 0.180858 -0.68635 0.704425
-1.46649 22.5073 22.2425 0.0258351 -0.447402 0.89396
-9.47233 6.30054 -12.3813 -0.326281 0.771677 -0.545944
-8.42955 7.95261 11.5027 -0.743421 0.281078 0.606894
20.8593 -17.8526 -5.7635 0.841142 -0.384947 -0.379863
-16.2604 -27.1955 0.71225 -0.154893 -0.954087 0.256371
7.42287 10.9293 18.8415 0.208298 -0.615 0.760518
24.442 11.1048 1.76119 0.903005 -0.354308 -0.242999
-15.356 -21.6413 6.56607 -0.799082 -0.413509 0.436439
-17.9306 -14.6207 5.28717 -0.966774 -0.206889 0.150147
-11.287 22.5002 10.6297 -0.895803 -0.438314 0.073604
23.5406 13.9038 8.29036 0.804353 0.27199 0.528241
1.58174 13.9579 -9.64681 0.045732 -0.456661 -0.888464
16.958 29.8527 8.01695 -0.102 0.988547 0.111223
16.5086 7.43412 -4.648 0.408582 0.864716 -0.292107
18.6205 3.4569 -9.48614 0.517131 0.648844 -0.55819
-19.4601 4.43363 5.42311 -0.222768 -0.231393 0.947012
-1.3794 16.7981 21.2455 -0.193294 -0.116973 0.974143
-7.91561 -13.4813 20.2552 -0.54233 -0.151611 0.826373
4.67648 27.251 21.6694 -0.00551901 0.997948 0.0637865
24.3266 -20.3565 9.71674 0.860215 0.392899 0.325055
23.7399 -13.9402 7.76567 0.964316 -0.201891 0.171273
-19.3056 -19.6015 -4.37789 -0.420194 0.0804502 -0.903861
12.6033 -27.3198 -6.62287 0.438059 -0.788443 -0.431812
-13.491 1.4953 13.3951 -0.636836 0.470753 0.610599
10.5631 31.1134 -4.50408 -0.0114339 0.99679 0.0792372
-18.4062 -1.74319 7.15169 -0.946859 0.17348 0.270856
-17.1604 1.61946 7.67665 -0.856696 0.417111 0.303465
23.5981 2.31166 4.80277 0.850779 0.499273 0.164015
-15.3077 3.53132 -9.40191 -0.753258 0.500101 -0.427202
15.9579 30.6159 -9.52094 0.30977 0.510749 -0.801984
21.7195 16.1265 -3.47162 0.50459 0.22441 -0.833684
16.8826 30.7148 1.0775 -0.167835 0.962273 0.214154
-4.59134 25.6823 22.5483 -0.258741 0.420316 0.869705
7.73983 -4.36155 23.2306 0.125493 0.284602 0.950396
24.8414 -10.5555 4.62528 0.980677 -0.182625 0.0701472
15.1571 -2.37427 -18.3775 0.794957 0.294643 -0.530311
12.6331 19.0405 -6.78264 0.548337 0.488185 -0.678971
-19.0888 -1.50009 4.38202 -0.94061 0.0319648 0.337981
-10.8716 -26.5358 -2.25746 -0.237737 -0.8242 -0.513979
9.48548 -30.1109 -0.918051 0.193378 -0.972195 -0.13207
1.36084 12.7054 20.5711 -0.0809998 -0.473007 0.877327
-12.7395 -24.7997 7.17561 -0.672785 -0.648661 0.355808
-17.274 4.89683 -2.15098 -0.630093 0.576512 -0.520208
7.40141 -9.92038 -21.8404 0.0266451 -0.814565 -0.57946
-4.77573 4.65192 16.8365 -0.317812 0.614746 0.721861
-18.4277 -7.50438 7.44739 -0.964459 -0.0739957 0.253661
2.27705 -8.44205 24.0765 -0.118116 0.077383 0.98998
20.793 -20.5912 -2.23982 0.863184 -0.445291 -0.237968
-11.6385 -20.5341 -8.60179 -0.672104 -0.464962 -0.57627
-1.17299 16.4574 -9.5776 -0.384097 0.0889123 -0.919002
15.3805 3.25565 -12.1922 0.434826 0.610607 -0.661881
10.5223 4.6298 -13.3499 0.30021 0.752063 -0.58675
10.0983 10.7159 -6.54203 0.395422 -0.309101 -0.864927
5.44238 30.7142 -6.6664 -0.716549 0.268433 -0.643817
17.2642 30.0732 6.72984 -0.0151182 0.992347 0.122553
1.59322 -24.6934 18.6109 -0.0885778 -0.672854 0.734453
15.4652 13.9453 15.5741 0.786697 -0.197859 0.584773
-7.80881 1.90226 17.4533 -0.414725 0.508181 0.754821
-14.5723 -10.7904 14.2583 -0.796456 -0.137244 0.588916
-17.1602 -22.1734 -3.3714 0.495179 -0.142921 -0.856955
16.4899 30.9993 -1.56927 -0.0393262 0.996068 0.0793849
-5.37577 28.7087 7.71947 0.157217 0.981106 0.112754
23.6523 -22.6708 11.6817 0.707239 0.0752736 0.702956
13.1422 6.45941 -9.69379 0.333262 0.79487 -0.507069
14.7304 -0.536533 -17.4219 0.751794 0.523456 -0.400998
-10.2878 16.5207 13.56 -0.936438 -0.0303521 0.349518
21.171 22.1173 5.15489 0.972851 0.200935 -0.114834
-1.82985 -20.5229 20.7719 -0.23945 -0.466747 0.851358
-5.3414 29.6461 0.902227 0.221455 0.925209 0.308132
4.14465 26.0338 -5.53593 -0.166052 0.33363 -0.927964
15.511 23.4256 18.5709 0.66204 -0.53779 0.522001
-11.52 -20.0326 14.4845 -0.713576 -0.393203 0.579828
-4.41824 -4.6641 21.6533 -0.342713 0.211827 0.915247
-7.4491 29.1577 4.45535 -0.0354729 0.987508 0.153522
16.6146 13.9972 -3.55912 -0.0478405 -0.193975 -0.979839
1.64744 4.17108 18.9736 -0.084075 0.628051 0.773617
13.9021 24.8085 -1.7764 -0.499726 0.593124 0.631251
23.7795 -4.22878 11.4953 0.927674 0.137366 0.347206
-11.1326 13.4304 10.591 -0.921402 -0.346807 0.175338
-9.66684 3.37584 -15.4056 -0.394898 0.549501 -0.736278
12.6158 -15.9967 -15.2676 0.462717 -0.25264 -0.849745
-12.604 25.5227 13.3373 -0.944584 -0.301153 0.130646
-1.46211 1.31265 -19.335 -0.4049 0.578732 -0.707902
16.7007 5.11807 13.813 0.470093 0.78826 0.397062
19.5244 -25.5789 13.0278 0.104486 -0.405059 0.9083
-15.8797 -19.5135 7.3859 -0.869282 -0.340829 0.358028
20.6111 22.8256 3.85596 0.86514 0.202914 -0.458648
8.27327 30.5727 -9.48807 -0.576848 0.187566 -0.795025
-19.4159 -4.42586 1.3274 -0.989581 -0.130306 0.0612381
-5.07073 11.2724 -5.36004 -0.601862 0.197876 -0.773697
-15.4435 -16.0005 -6.70713 -0.796872 -0.330968 -0.505426
7.53662 22.2482 -7.76024 0.267095 0.328288 -0.906028
-12.7402 25.3524 10.4902 -0.937561 -0.347093 0.0224847
-10.3233 27.2962 16.4153 -0.0933152 0.985625 0.140836
13.1556 22.4484 -1.21678 -0.687792 0.14804 0.710652
-5.64158 -17.5478 -14.8023 -0.424261 -0.331881 -0.84253
-16.241 4.41756 6.85159 -0.612609 0.246989 0.750804
24.1933 15.7346 -0.439789 0.89871 0.206312 -0.386983
2.45715 28.2515 -5.33029 0.494823 -0.23468 -0.836705
-12.746 -24.6581 -3.33812 -0.363255 -0.446634 -0.817658
-17.5259 -13.6955 7.76955 -0.937374 -0.185885 0.294579
24.3026 -27.3414 8.13242 0.765601 -0.608223 -0.209572
1.54496 10.6245 19.2608 -0.0494674 -0.645389 0.76225
13.4226 -27.8554 -4.45529 0.459131 -0.82406 -0.33185
-6.96071 13.7208 -4.21225 -0.716224 -0.287123 -0.636068
13.4692 25.4859 21.9879 0.486443 -0.266373 0.832117
-1.6052 1.44566 20.1709 -0.218521 0.468909 0.855788
7.66824 -13.6571 23.7452 0.161446 -0.144656 0.976222
-3.70041 -2.33422 21.2622 -0.323137 0.311013 0.893786
-4.75593 8.27232 -11.1622 -0.124957 0.870315 -0.47638
17.1105 29.582 3.596 -0.882574 0.456574 -0.112262
-14.4814 -20.0258 -5.25059 -0.738132 -0.436391 -0.514513
-11.7477 14.0952 4.75162 -0.981366 0.171036 -0.087563
1.59488 30.4397 -2.7731 -0.0802825 0.772716 0.629654
22.3506 7.85907 7.09285 0.564398 -0.654311 0.503321
-8.16283 29.9098 -0.518656 -0.0931492 0.984005 0.151843
15.7937 23.3188 -3.73088 0.474686 -0.713811 -0.514924
-18.2422 -10.2294 -3.91172 -0.94993 -0.192599 -0.246046
4.60533 -26.4172 -11.4491 0.0469652 -0.746449 -0.663783
-13.0184 28.4712 1.59153 -0.779401 0.619257 0.095159
-15.3425 -4.28332 -12.4524 -0.783649 -0.130358 -0.607372
-3.41361 -30.1151 7.06222 -0.263841 -0.957459 0.116882
4.54626 3.41566 -18.6905 0.00637855 0.88978 -0.456345
4.61282 -14.1583 23.8748 -0.00551512 -0.173707 0.984782
-9.37845 16.6334 15.7469 -0.868219 -0.0800435 0.489683
-6.56286 -24.4996 15.5441 -0.453743 -0.642377 0.617632
4.54165 -21.3468 21.2391 0.0282916 -0.527508 0.849079
21.8894 -25.3204 12.519 0.41257 -0.271091 0.869653
-6.5819 24.8291 -1.33912 0.699868 0.253082 0.667933
20.6926 -16.9648 14.4286 0.810846 -0.247463 0.530369
21.564 -4.54062 15.7894 0.790539 0.142952 0.595494
19.72 16.691 10.579 0.660208 -0.081685 0.746628
-8.06206 22.1758 -2.05524 -0.703526 -0.310266 -0.639364
-1.86309 30.3874 -2.68474 0.0450213 0.872311 0.486875
15.2836 -10.2904 21.177 0.540804 -0.0525104 0.839508
-6.8992 16.4844 18.5973 -0.631882 -0.131509 0.763826
13.2158 11.0054 15.9096 0.586673 -0.505607 0.632595
1.74797 3.24986 -18.5601 -0.159709 0.866448 -0.473034
24.4079 -19.9328 7.72987 0.924253 0.374388 -0.0747683
4.34891 7.58223 16.9288 0.0723684 -0.168454 0.983049
-7.05136 19.8168 18.8684 -0.674869 -0.224654 0.70291
21.2679 -13.0243 15.3371 0.808816 -0.199068 0.553343
1.44465 -28.8228 13.5482 -0.104797 -0.848028 0.519486
7.37705 16.7031 17.5039 -0.329928 0.0859453 -0.940086
1.44816 -26.1834 17.0794 -0.10001 -0.736704 0.668779
20.0538 5.25592 -4.79968 0.567642 0.762002 -0.311666
10.9197 -20.0842 -14.5473 0.372235 -0.422801 -0.826245
10.7597 5.27579 17.2365 0.203011 0.757396 0.620594
-8.14864 14.5275 4.18627 0.980739 -0.0686467 0.182862
14.1719 10.101 13.9727 0.664074 -0.539101 0.518051
-16.6437 -1.40576 -10.4883 -0.865046 0.117201 -0.487811
-6.37812 -13.2475 21.2281 -0.475133 -0.132839 0.869829
-9.18039 29.2551 -9.09741 -0.594991 0.0364237 -0.802907
13.5576 22.6113 -4.81271 0.537919 -0.234431 -0.809744
10.4598 -22.5173 -13.259 0.348951 -0.54037 -0.765659
24.2244 -4.36597 -6.50385 0.892388 -0.0619879 -0.446991
1.45362 -31.1451 4.55775 -0.061152 -0.998128 -0.000804064
15.7096 -27.5123 -1.24741 0.563782 -0.798539 -0.210915
21.3348 -27.626 5.73114 0.454448 -0.309771 -0.835176
2.11577 25.8208 -5.51715 0.249716 0.174031 -0.952552
18.8016 -7.44973 -12.6136 0.625713 -0.18513 -0.757767
7.882 8.75716 -8.19679 0.267182 0.759785 -0.592739
10.4585 28.243 16.5358 -0.0700599 0.99124 0.11196
4.27408 8.24982 -10.8583 0.138063 0.854607 -0.500585
-1.68205 10.2023 14.2397 0.36133 0.505447 -0.783559
1.35322 6.88993 -13.3794 0.086315 0.773811 -0.627508
18.7947 -7.48346 18.685 0.634939 -0.0110665 0.772483
22.2078 -1.49831 13.5005 0.842527 0.301922 0.446084
17.4295 -4.58501 -14.3392 0.729171 -0.0783016 -0.679838
4.5723 20.1255 -8.75576 0.0106334 0.198402 -0.980063
-5.27414 12.949 -5.25868 -0.634724 -0.359922 -0.6838
12.4653 -9.41044 -18.8115 0.612697 -0.69346 -0.379099
17.1068 -1.24512 -14.083 0.65341 0.306561 -0.692153
-11.7605 -7.28148 17.817 -0.669794 0.0240077 0.742159
4.75284 5.5309 -14.2891 0.162305 0.754942 -0.635389
-17.7965 -0.896044 8.4578 -0.904809 0.225992 0.360898
-20.0737 -2.05923 1.84416 -0.649312 -0.562125 0.512259
1.1492 -14.5303 -17.8741 -0.126508 -0.296561 -0.946598
-12.2943 0.615596 -15.2391 -0.571084 0.29495 -0.766072
-14.6269 2.18458 11.5859 -0.671575 0.489922 0.555845
-1.72038 -29.5793 10.8504 -0.216305 -0.907715 0.359536
-1.62486 13.3617 20.5066 -0.22902 -0.337704 0.912965
-13.6651 4.56214 -10.6085 -0.644866 0.613456 -0.455872
20.2698 -4.55587 17.2832 0.699943 0.0982928 0.707402
17.5488 -26.5398 1.30334 0.702877 -0.691286 -0.16759
-15.4212 -1.74319 -12.4817 -0.812062 0.0605523 -0.580421
22.9503 -25.5027 6.22961 0.230776 -0.105366 -0.967285
-11.5131 -4.23016 17.7222 -0.620423 0.150995 0.769594
16.0951 6.43586 -7.40572 0.399309 0.810868 -0.427838
-0.268225 0.185358 21.1384 -0.20388 0.43737 0.875866
24.1589 -12.6905 6.95775 0.966215 -0.200807 0.161568
-4.57894 -7.60876 22.1213 -0.364259 0.108722 0.92493
19.1435 28.3165 -7.21155 0.7175 -0.280643 -0.637521
7.42733 12.872 -8.41407 0.0476106 -0.529953 -0.846689
-8.48177 19.6215 17.0716 -0.834526 -0.0551057 0.548206
-24.1194 -0.419773 0.4065 -0.764142 -0.568439 0.304901
14.0219 2.25033 -14.0376 0.461756 0.680788 -0.568603
-1.48786 -13.4646 23.1224 -0.271537 -0.134927 0.952923
18.3354 17.5376 12.2699 0.418692 -0.492421 0.763032
-18.9445 9.57122 1.51301 -0.387247 0.855533 -0.343661
-1.60158 8.40441 -11.3636 -0.0031198 0.866572 -0.499042
-4.62794 30.6062 -4.55223 -0.0370633 0.996099 0.0800862
-20.3878 8.68546 1.17226 -0.437251 0.850965 -0.290982
-21.2216 -22.4351 -1.47989 -0.996976 -0.0601016 -0.0492668
13.4432 31.4048 -7.44442 -0.0317895 0.995848 0.0853019
-10.2038 -4.59508 18.7362 -0.556326 0.159114 0.815588
-1.62369 -30.6938 4.63411 -0.195051 -0.980513 0.0234178
4.39253 -29.9012 11.8264 0.0231164 -0.915345 0.402006
13.525 -29.4969 4.48545 0.330751 -0.941386 -0.0663009
-18.9818 -7.50634 4.59425 -0.987817 -0.085542 0.129997
1.56537 16.3168 21.4944 -0.0185237 -0.0921965 0.995569
-24.4172 3.66728 -3.24853 -0.316656 0.21029 -0.924936
10.5799 25.5256 23.0989 0.219463 -0.0852249 0.971891
9.39237 -27.1508 -9.21589 0.270723 -0.772414 -0.57453
-10.5119 -1.45107 -16.7684 -0.481269 0.08915 -0.872028
-15.7521 -16.11 10.4923 -0.846629 -0.265247 0.461372
1.30125 -13.6869 23.6904 -0.147828 -0.140879 0.978928
25.1298 -1.41767 4.49576 0.95933 0.229589 0.164239
19.3142 11.8601 -3.22681 0.0359042 -0.700661 -0.712591
21.6216 -16.4079 13.1484 0.871438 -0.210329 0.443122
-11.3953 22.5322 7.39975 -0.922155 -0.386701 -0.00956311
-4.86514 24.8369 -2.52857 0.411399 0.411562 0.813245
18.7128 -4.57649 18.6178 0.606408 0.0864594 0.790439
15.7792 -18.9224 18.4835 0.559504 -0.372244 0.740533
24.27 13.593 -0.562866 0.86887 -0.0962539 -0.485592
-9.48763 11.4938 12.9765 -0.798948 -0.497517 0.337873
21.2746 -15.781 -6.53652 0.85035 -0.303498 -0.429877
13.2192 -25.0053 15.9771 0.394091 -0.640846 0.658793
10.4176 25.117 -7.44986 -0.0567753 -0.720078 -0.691566
16.3187 1.29279 -13.2153 0.513545 0.52337 -0.679967
-18.9722 -4.5267 -4.44416 -0.966915 -0.091853 -0.237987
13.4287 30.9847 -10.0484 0.211823 0.684415 -0.697644
22.1668 1.34385 -7.54123 0.734623 0.476444 -0.483043
7.4998 3.90122 -16.5351 0.1887 0.927365 -0.323088
-11.1716 16.6552 10.4454 -0.97496 0.0890037 0.203795
13.4833 -4.52147 21.7618 0.397687 0.184495 0.898781
-4.00349 22.3354 -6.2492 -0.368358 -0.107863 -0.923406
-11.222 19.456 7.51729 -0.994323 0.106081 0.00833602
-13.5509 7.44709 7.71336 -0.36904 0.0326807 0.928839
-17.7013 -10.9187 -5.22953 -0.910314 -0.212009 -0.355502
16.9664 1.98623 17.324 0.487552 0.527334 0.695853
-17.1902 -19.5164 4.78762 -0.827295 -0.137853 0.544591
7.51166 -30.3368 -1.58567 0.138262 -0.981397 -0.133207
20.6402 28.3497 -4.60203 0.945008 -0.236952 -0.225418
-1.01128 -27.3328 -9.47945 -0.224291 -0.814758 -0.534662
-11.6151 29.9646 -3.76019 -0.183862 0.980573 0.0683542
-16.9857 -10.5391 10.4668 -0.88972 -0.125149 0.439018
-18.6761 -10.471 4.48373 -0.985955 -0.117083 0.119101
18.4853 -2.12021 18.3528 0.572103 0.219666 0.790218
-12.8663 -10.2392 -12.8254 -0.637563 -0.303605 -0.708052
13.7421 8.48121 -4.59535 0.524175 0.676274 -0.517585
21.4213 -25.6191 5.80325 0.442814 -0.0231402 -0.896315
11.3775 -26.7139 -8.62538 0.37376 -0.762335 -0.528345
14.8185 16.8663 -5.61882 0.84022 0.205089 -0.501966
15.3339 -7.84845 21.1862 0.536049 0.0193091 0.843966
-22.377 1.84209 3.72559 -0.442038 -0.349053 0.826296
-21.568 -0.467134 -3.07887 -0.169236 0.0323688 -0.985044
9.74554 16.5087 -9.20158 0.208111 0.0445761 -0.977089
-10.2157 25.5299 19.3105 -0.784617 -0.0439753 0.618419
4.68634 24.9219 -6.47039 -0.132778 0.567404 -0.812664
-7.21689 30.4374 -9.62483 -0.337976 0.487437 -0.805094
13.1221 -27.5845 12.8907 0.305772 -0.806018 0.506792
10.6264 13.3958 -8.24457 0.266458 -0.471589 -0.840597
-10.0159 26.2682 -6.83168 -0.423008 -0.661421 -0.619343
-4.35812 -22.3145 -12.9499 -0.366718 -0.536146 -0.760306
-18.9625 9.7386 4.18712 -0.601614 0.76555 0.228024
21.7297 13.7258 -3.50179 0.477186 -0.217951 -0.851346
-22.5737 7.36581 1.51604 -0.63882 0.76891 0.026198
12.7711 3.39299 18.4533 0.282745 0.61855 0.73311
-17.1735 1.53684 -7.57051 -0.874918 0.342274 -0.342588
-6.26562 -6.3483 -18.0822 -0.317213 -0.227104 -0.92076
10.3426 27.327 22.0148 0.0015712 0.966582 0.256354
15.5574 -7.26376 -16.0883 0.819001 -0.392985 -0.418092
-16.5086 -4.5233 -10.6574 -0.847418 -0.113525 -0.518648
-9.36636 19.5203 -0.784167 -0.869668 0.077864 -0.487457
-1.14774 -19.3826 21.509 -0.239151 -0.402097 0.883813
18.8525 28.0677 13.4405 0.846927 0.454796 0.275454
15.5805 19.5373 15.8077 0.788715 -0.0228543 0.614334
-3.60022 -30.1657 1.69026 -0.262253 -0.962526 -0.0690476
-19.1624 -7.57229 1.4916 -0.996416 -0.0845807 -0.000852403
1.99782 29.1716 -2.39871 -0.170903 0.0289268 0.984863
19.2987 13.3827 10.8628 0.324449 0.1854 0.927556
24.9435 -4.52476 7.4918 0.97346 0.0408687 0.225181
-6.893 23.2675 21.412 -0.449008 -0.504157 0.737711
23.3406 -4.59007 -7.99466 0.840164 -0.080171 -0.536374
23.5529 -10.6576 -4.78196 0.897421 -0.240212 -0.370046
-6.98137 14.0184 1.30814 0.836913 0.182952 0.515853
24.298 -7.46373 10.0983 0.969538 -0.062056 0.236948
-8.27389 -26.5252 11.1126 -0.534497 -0.739847 0.408582
0.907924 -10.6576 23.89 -0.178278 -0.033274 0.983417
8.41037 28.7587 -9.39261 -0.518856 -0.240467 -0.820344
20.2092 -16.6223 -7.82467 0.808167 -0.300976 -0.50624
-16.7247 -16.5835 -4.97615 -0.579192 -0.102237 -0.808755
18.4287 -10.282 -12.3304 0.69428 -0.14628 -0.704683
-4.80233 5.74029 -14.7306 -0.113927 0.762214 -0.637221
0.386938 30.6102 -9.34303 0.733588 0.208239 -0.646904
-1.59205 28.4291 -9.96878 0.19819 -0.365021 -0.90966
-4.43028 4.339 -16.1759 -0.0912078 0.662729 -0.743284
-2.53191 16.7398 -8.78903 -0.560434 0.164819 -0.811633
1.24218 -29.7492 -5.15864 -0.111253 -0.950356 -0.290598
-12.2507 0.488548 15.3321 -0.632158 0.372964 0.679172
7.50724 18.1346 -9.03237 0.0110292 0.317343 -0.948247
13.7838 5.09148 -11.1456 0.349691 0.723212 -0.595551
-0.49579 14.4465 21.0843 -0.153316 -0.176944 0.972206
-16.6541 7.37706 6.74351 -0.277694 -0.155918 0.947932
21.2615 -27.0211 12.071 0.291195 -0.547988 0.784165
-9.62856 -9.98644 -15.3592 -0.491366 -0.30596 -0.815443
10.4793 19.4807 19.7418 0.402244 -0.0689837 0.91293
13.3349 19.2173 13.4261 -0.755872 0.0943975 -0.647878
-4.06768 10.6641 13.5136 0.509388 0.52356 -0.682941
-2.681 -11.6296 -17.9054 -0.281776 -0.244069 -0.927918
1.28826 -7.32919 23.7851 -0.172087 0.130094 0.976454
9.6569 -27.1349 15.1792 0.196065 -0.784935 0.587737
-18.1267 -7.0215 -6.41076 -0.939309 -0.152086 -0.307521
4.65721 -29.793 -5.40564 0.0371492 -0.954871 -0.294688
24.2148 -9.82596 -3.65937 0.917073 -0.246621 -0.313297
-2.33511 -29.84 -2.36544 -0.234438 -0.943822 -0.232893
-12.8506 -16.2806 -9.94437 -0.691835 -0.349809 -0.631663
1.40316 2.0973 -20.0224 -0.223624 0.733876 -0.641418
13.5993 28.4249 16.4225 -0.0352419 0.989364 0.141126
4.41672 22.3854 -8.25215 0.026506 0.377161 -0.925768
-12.7653 -19.3427 13.2602 -0.760049 -0.357149 0.542927
-16.2189 9.98155 6.76903 -0.438038 0.395165 0.807445
10.5494 -13.4575 -16.9059 0.3951 -0.263041 -0.880173
1.48637 -16.5743 23.0988 -0.148094 -0.265288 0.952728
10.6081 31.338 -7.49778 -0.019322 0.997529 0.0675403
10.4905 16.7218 15.94 -0.576721 0.074624 -0.813526
-14.2216 -19.7139 10.754 -0.797763 -0.379137 0.468859
7.41226 -16.5815 -17.048 0.191316 -0.317403 -0.928791
1.71747 -21.4343 -15.2254 -0.104223 -0.471377 -0.875752
-1.02025 -24.3948 18.3509 -0.207328 -0.650764 0.730426
-16.6883 -10.5675 -7.67049 -0.860176 -0.255784 -0.441216
-1.36966 -19.3976 -15.6146 -0.232737 -0.391857 -0.890102
-24.3183 2.26757 -3.253 -0.357939 -0.181126 -0.916009
16.9587 9.98254 11.7075 0.236577 -0.352008 0.905606
23.8728 -7.64331 11.5803 0.948462 -0.0602714 0.311106
10.9824 21.797 20.4151 0.335759 -0.613499 0.714762
-6.99329 -1.59319 -18.2236 -0.235785 0.0878248 -0.967829
18.5033 -24.6949 -1.28991 0.782321 -0.584507 -0.215233
-20.809 -23.6778 -2.7229 -0.849491 -0.303745 -0.431398
-11.8942 24.2485 1.32911 -0.816636 -0.564613 -0.119654
-7.44495 22.6686 1.45104 0.881313 0.288234 0.374443
-1.56492 -30.627 1.46959 -0.201216 -0.976785 -0.0735085
1.63692 -30.3895 10.1699 -0.0926053 -0.950683 0.296017
-7.99839 10.298 14.0157 -0.658351 -0.622764 0.422774
7.59957 7.52061 16.49 0.20833 -0.0299427 0.9776
-8.15544 24.2727 -5.47323 -0.34695 -0.805358 -0.48065
7.78738 -29.7296 11.4411 0.14661 -0.911339 0.384665
7.49774 0.585528 21.2563 0.0882979 0.456736 0.885209
-25.2516 4.28928 -1.451 -0.86817 0.410555 -0.278793
15.3542 -4.57298 -18.4926 0.866866 -0.0443739 -0.496562
7.60728 -26.1343 16.9325 0.139617 -0.743537 0.653957
-15.5955 -10.3164 12.921 -0.821122 -0.1247 0.556964
1.49267 7.65122 17.0458 -0.000552543 -0.214105 0.97681
-4.52721 -28.8378 10.4795 -0.340998 -0.872571 0.349772
20.5187 25.551 4.51284 0.990889 0.0577389 -0.121679
10.577 16.4419 19.7411 0.419472 -0.012346 0.907685
-18.2276 -10.3736 7.17321 -0.963534 -0.117527 0.240394
7.52438 31.0455 -7.51694 -0.276272 0.936546 -0.215767
1.5017 -30.1821 -3.65656 -0.086392 -0.973015 -0.213957
20.0295 7.0661 8.11233 0.628349 -0.400297 0.667039
-17.3631 -4.53148 10.535 -0.900158 0.0183242 0.435177
-16.7592 -26.4361 1.95472 -0.298875 -0.77882 0.551465
-19.0689 -25.5449 1.12518 -0.609992 -0.611878 0.503503
-16.3576 -13.5482 10.6181 -0.869247 -0.189386 0.456664
-13.4989 -13.5142 -10.6673 -0.69534 -0.318433 -0.644285
19.6409 10.4445 10.9403 0.410289 -0.221477 0.884653
16.8975 24.5575 -4.87452 0.397898 -0.822265 -0.406888
24.5077 1.12375 -1.43282 0.898222 0.429423 -0.0937718
-18.3162 -13.2909 4.32252 -0.98012 -0.165854 0.108894
-7.44808 -25.5661 -7.55965 -0.490665 -0.724525 -0.484057
-1.7679 27.835 13.9714 0.162223 0.986649 -0.0143942
21.3123 -18.52 -3.87476 0.862884 -0.405783 -0.301281
22.7892 -10.4922 13.4557 0.896245 -0.151809 0.416773
10.9578 -20.184 20.5896 0.338754 -0.425826 0.838998
4.55985 -24.7346 18.7102 0.0249088 -0.671204 0.740854
11.2357 -0.637623 -20.6452 0.372659 0.433325 -0.820582
7.75875 -13.9921 -17.7056 0.240644 -0.264711 -0.933819
18.4497 -21.5775 -6.68698 0.760704 -0.49028 -0.425388
1.2073 -29.8456 11.5804 -0.118113 -0.916746 0.38161
17.1435 -26.1303 -1.69811 0.69164 -0.684417 -0.230667
-1.53497 7.04057 -13.3875 0.00737959 0.792886 -0.609326
-10.3283 -7.45411 18.9911 -0.595319 0.0324521 0.802834
-7.60682 -4.36872 20.2097 -0.443897 0.206297 0.872007
-12.6919 3.68808 -12.8716 -0.592411 0.562577 -0.576677
24.5778 -7.4208 -4.39568 0.914254 -0.230367 -0.333272
-14.27 -10.75 -11.1804 -0.719308 -0.298753 -0.62717
13.6356 4.73078 16.6871 0.302782 0.72798 0.615116
24.3835 13.2632 6.96568 0.922196 0.120759 0.367385
4.83759 -9.59024 -21.7417 -0.244736 -0.730914 -0.637079
16.459 16.5932 -3.81742 0.292146 0.157722 -0.943278
-12.9298 -22.5016 10.2341 -0.734424 -0.515896 0.440992
24.1584 -12.6212 -0.881161 0.957349 -0.242933 -0.156417
-17.718 2.05609 5.7074 -0.770739 0.209718 0.601648
22.1252 -13.5382 13.5713 0.881286 -0.204803 0.425899
12.7618 19.6732 18.5198 0.576391 -0.115679 0.808945
1.91691 5.72853 -14.6598 0.0990031 0.755241 -0.647928
15.4257 -18.7618 -12.359 0.610049 -0.340558 -0.715444
-12.582 6.2738 -9.53222 -0.513557 0.730583 -0.450009
20.5463 -4.44644 -11.5537 0.707196 -0.0416484 -0.705789
6.40423 16.5102 21.0813 0.210255 -0.0518338 0.976272
4.44991 -27.6366 -9.88798 0.0434079 -0.826032 -0.561949
17.6409 13.5174 11.6786 0.697787 0.0307641 0.715644
-13.5413 -26.0516 -2.44272 0.0614727 -0.551015 -0.832228
7.52165 19.622 -8.52903 0.18599 0.265576 -0.94598
4.73624 19.5257 21.3618 0.152217 0.0545112 0.986843
-24.7648 4.42257 1.46758 -0.861444 0.251013 0.441483
-4.66945 2.3713 -17.6192 -0.148325 0.504294 -0.850698
13.0155 13.9022 -7.14492 0.625945 -0.384007 -0.678771
2.31974 -10.3419 24.1073 -0.125724 -0.0238571 0.991778
-23.3712 0.699258 2.51963 -0.592402 -0.449055 0.668887
13.5058 -1.509 -19.5765 0.598274 0.400954 -0.693761
16.8737 22.7686 1.24303 -0.791438 0.19258 0.58012
7.5857 -22.7887 19.9499 0.147796 -0.58008 0.801039
19.3038 -13.4693 -10.485 0.741199 -0.218982 -0.634563
22.2937 13.5327 9.84008 0.587122 0.206396 0.782744
11.1701 2.59904 -16.8061 0.405522 0.857875 -0.315598
-4.50514 27.5574 16.2674 -0.0485992 0.988992 0.139757
-7.36609 16.5251 -4.32128 -0.762113 0.0439773 -0.645949
-7.99237 13.24 16.8634 -0.671105 -0.312581 0.672244
-9.8701 22.7393 -1.34871 -0.688645 -0.573876 -0.443208
22.2547 -22.4503 12.7093 0.519093 0.040258 0.853769
7.34996 -24.6121 18.5422 0.130351 -0.663244 0.736964
20.0186 25.5952 1.50357 0.916546 -0.374306 -0.140852
4.41106 6.74084 -12.9488 0.15675 0.764007 -0.625878
-11.2834 22.5895 4.47062 -0.932273 -0.355408 -0.0674639
17.4921 27.7945 -8.64275 0.566009 -0.416959 -0.711181
-5.34813 -8.38261 -17.7706 -0.314413 -0.301865 -0.900012
7.63003 25.626 -7.09677 -0.33461 -0.385667 -0.859824
-16.4331 -26.3308 -2.57759 -0.0115257 -0.65515 -0.755411
-11.1833 -16.8514 -11.289 -0.615731 -0.349618 -0.706146
13.5654 -28.6075 10.5717 0.265247 -0.895635 0.357046
-1.52237 -28.2892 13.4781 -0.223476 -0.828716 0.513116
19.8689 -10.5671 -10.7578 0.731237 -0.188392 -0.655592
-7.17938 10.7462 -4.16942 -0.626975 0.545993 -0.555692
1.47368 22.5202 -7.77416 -0.249615 0.401239 -0.881305
-1.53041 -28.2756 -7.51214 -0.235773 -0.872741 -0.427475
16.7511 19.6318 -2.2047 0.376207 0.45986 -0.804361
-18.2424 -1.58798 -6.91772 -0.943968 0.120223 -0.30736
-10.1792 -27.3417 -1.00599 -0.265745 -0.917106 -0.297146
-10.4339 -19.43 -10.5315 -0.620543 -0.404404 -0.671851
16.2362 -27.1273 12.127 0.103182 -0.755985 0.646406
4.49434 4.39014 -16.3352 0.0710962 0.913612 -0.400323
17.3043 2.43053 -11.6155 0.487574 0.584209 -0.648823
0.677466 -8.40023 -20.5286 -0.474768 -0.544381 -0.691552
-18.8376 -10.4584 1.52348 -0.991709 -0.12803 -0.0110672
4.65783 22.6491 21.6398 -0.0869409 -0.385259 0.918704
-8.28402 -14.0595 -14.6303 -0.510854 -0.323791 -0.796359
6.61214 -21.2546 21.1488 0.11059 -0.506651 0.855029
21.0434 29.1642 -1.94381 0.999452 -0.0173298 0.0282058
-3.99779 7.64888 15.591 -0.460634 -0.131762 0.877756
-10.5249 28.9592 4.49805 -0.0704039 0.988327 0.135103
23.1584 -19.3005 10.8217 0.781074 0.378507 0.496645
-1.70331 -13.7784 -17.5421 -0.23763 -0.288102 -0.927647
-18.5253 -4.43037 7.4687 -0.960964 0.00819157 0.276554
-0.710075 -4.35927 -21.6753 -0.633213 -0.177379 -0.753377
-5.26687 -23.551 -11.5073 -0.418071 -0.614667 -0.66888
-12.0803 23.8864 7.53327 -0.879287 -0.474802 -0.037651
-22.4273 4.57155 4.21352 -0.577833 0.0180098 0.815957
7.57731 31.0896 -4.57749 -0.022331 0.997281 0.070231
-4.60735 -10.364 22.2439 -0.37276 -0.0136201 0.927828
-1.48372 10.7645 -7.57577 -0.298471 0.270144 -0.915389
1.39336 -22.8018 20.0809 -0.117803 -0.566965 0.815275
-10.5611 -22.6458 13.491 -0.651082 -0.534142 0.539244
-7.03799 -27.4972 -4.27315 -0.421014 -0.845809 -0.327649
7.56107 7.54648 -10.8272 0.219387 0.812064 -0.54076
-14.4331 5.54493 -8.01962 -0.664118 0.652413 -0.36511
10.4853 -25.5364 -10.5629 0.344161 -0.695607 -0.630621
7.59726 28.0023 16.6771 -0.0642707 0.997932 0.00116585
1.2703 4.56316 -16.2426 -0.0162722 0.81143 -0.584224
22.2777 4.40208 4.56383 0.887693 0.438456 0.140559
16.1383 -27.7627 1.57922 0.567777 -0.809672 -0.148529
21.5074 19.3207 7.25275 0.900653 0.252096 0.353937
-12.6065 -1.61315 -15.4542 -0.609192 0.0784889 -0.789129
24.4855 16.1628 4.3624 0.919837 0.342254 0.191733
19.5886 13.4063 -4.03424 0.0647446 -0.23556 -0.969701
-1.39587 25.7534 22.9085 -0.0176635 0.429202 0.903036
-10.1657 19.4325 13.5709 -0.945313 0.112444 0.30617
20.3104 -7.56066 17.3227 0.705976 -0.0442854 0.70685
4.68436 2.18467 -20.3546 0.0794589 0.690883 -0.718586
7.41026 -30.3012 9.92286 0.139954 -0.9554 0.260044
22.2658 1.41056 10.3997 0.814122 0.471904 0.338395
20.2903 5.19156 7.9366 0.701371 0.573488 0.423308
-9.61803 16.3398 -1.01896 -0.889681 0.0594099 -0.4527
24.2884 10.8748 6.98921 0.948319 -0.194292 0.25088
-4.05642 13.6674 -6.97752 -0.591567 -0.374554 -0.713974
25.4591 -7.52344 1.37709 0.984777 -0.173809 -0.00214055
1.35888 -26.3923 -11.3199 -0.113858 -0.744021 -0.658383
-7.56394 -10.5085 -16.275 -0.41098 -0.264828 -0.872331
7.74391 19.5467 20.7037 0.268396 -0.042856 0.962355
-11.4956 25.1279 16.9713 -0.871513 -0.33719 0.356045
18.7236 -10.3317 18.5664 0.656443 -0.0792551 0.750201
11.2383 16.5022 -8.687 0.405631 0.0582546 -0.912179
-8.14025 -7.4734 20.4452 -0.499065 0.0731556 0.863471
7.46693 -16.6369 23.0731 0.158358 -0.301371 0.940265
-4.77557 -1.18001 20.4093 -0.335413 0.361326 0.870024
10.4649 -30.3571 4.6945 0.19841 -0.980023 -0.0137046
-18.3103 -13.3365 -1.45102 -0.988181 -0.0392524 -0.148181
-10.1877 30.2019 -4.54395 -0.103438 0.989441 0.101528
-13.1601 -19.4674 -7.51575 -0.716156 -0.426665 -0.552338
9.64261 -24.2914 -12.267 0.300267 -0.641331 -0.706069
-9.64851 -27.4088 7.01649 -0.519185 -0.81355 0.261885
-2.00507 16.4487 -4.8605 0.573679 -0.00258638 0.819076
13.6362 7.3806 -7.6529 0.326376 0.853618 -0.405975
25.5093 -4.50603 4.56391 0.989992 0.0127647 0.140545
-1.39136 -4.58304 22.6219 -0.25423 0.232424 0.938801
23.6957 -10.7284 10.8235 0.949667 -0.172675 0.261374
7.09359 3.27706 -18.4834 0.173795 0.880745 -0.44055
13.8619 -4.44305 -20.2158 0.661242 0.0409999 -0.749051
-18.1026 0.127937 6.5545 -0.929136 0.312818 0.197108
-7.43079 -22.7138 16.5296 -0.514339 -0.558164 0.651083
-12.7994 25.5888 4.52293 -0.907649 -0.419322 -0.0185081
9.9561 -19.0039 -15.4378 0.326567 -0.366116 -0.871386
-4.41532 22.6276 21.9794 -0.231613 -0.520858 0.821622
-4.6807 28.2155 10.5701 0.176496 0.982539 0.0588727
21.896 -16.4396 -4.57882 0.880389 -0.327403 -0.343107
20.7201 28.542 1.55325 0.996256 0.00701904 0.0861636
24.2808 -13.1377 1.54822 0.967283 -0.246318 -0.0607579
-4.22091 -22.2717 18.8193 -0.351393 -0.538027 0.766192
18.3932 -13.2728 18.3624 0.639591 -0.179644 0.74743
-7.46992 27.4255 16.3945 -0.0316562 0.990204 0.135993
7.55232 25.451 -3.74774 0.163134 0.0631137 0.984583
23.2615 -16.4914 1.5352 0.938491 -0.329225 -0.104142
14.3179 13.3541 -5.02458 0.744333 -0.48202 -0.462195
-5.13381 -23.4434 17.4597 -0.384729 -0.605993 0.696245
-19.5656 -25.7837 -1.6274 -0.641301 -0.737674 -0.211117
21.6638 -13.4217 -7.16256 0.84423 -0.247547 -0.475391
-10.5282 28.134 10.4898 -0.0622603 0.983649 0.168991
-0.206381 -6.41665 -21.2847 -0.584632 -0.431373 -0.687112
-12.1789 -24.2148 9.28979 -0.658079 -0.632671 0.40824
13.2835 3.8163 -12.8391 0.353715 0.667456 -0.655277
16.9512 19.2339 14.0873 0.654955 -0.220723 0.722714
20.238 -7.71762 -11.2045 0.710671 -0.202249 -0.673827
10.7676 -29.6642 -1.68815 0.263078 -0.952259 -0.154896
19.0648 30.2998 4.40764 0.232519 0.958451 0.165246
-12.8841 27.884 7.558 -0.733024 0.663834 0.148326
-11.1467 10.4675 8.50959 -0.583221 0.0671476 0.809533
20.9046 19.4393 8.66855 0.952266 -0.0115965 0.305049
10.3451 6.80394 -10.6954 0.263919 0.791599 -0.551106
-7.21176 11.1398 16.1097 -0.599178 -0.559832 0.572341
13.2868 16.5792 -7.36747 0.628341 0.121991 -0.768313
16.6194 29.4524 10.5583 -0.0252747 0.987111 0.15803
15.7818 10.9961 12.863 0.668348 -0.353523 0.654472
-17.2643 -7.46996 10.5236 -0.894321 -0.0601026 0.44337
-10.2301 1.21804 16.4102 -0.505905 0.471246 0.722487
7.50291 -28.6727 13.5338 0.142274 -0.846626 0.512819
-7.38561 28.5541 -9.72991 -0.30837 -0.211979 -0.927347
13.5554 -19.611 19.5904 0.458175 -0.396341 0.795607
25.6852 -4.54547 -1.53285 0.9918 -0.0372373 -0.122257
16.4 -16.4747 19.0757 0.575344 -0.282126 0.767713
-10.5333 27.6736 13.5347 -0.0719797 0.98809 0.136003
1.61819 -27.4926 15.5379 -0.0954834 -0.787045 0.609461
23.8773 17.7243 1.01547 0.860617 0.476267 -0.1803
22.211 -10.5854 -7.5566 0.841112 -0.233669 -0.48778
1.48096 30.8314 -4.51963 7.60535e-05 0.998903 0.0468335
10.5309 -25.6905 16.5498 0.249074 -0.71554 0.65266
10.3326 -30.2632 7.40461 0.203889 -0.97099 0.124928
24.8439 -7.51397 7.54393 0.97667 -0.0817429 0.19858
13.6282 7.4858 13.4892 0.632855 0.257098 0.730339
11.0268 12.5139 13.8557 -0.562386 0.489188 -0.666646
-1.62058 19.5431 21.3773 -0.182138 -0.0698328 0.98079
16.6034 -4.53318 20.0613 0.534053 0.113395 0.837812
-13.3193 -4.62807 16.103 -0.716407 0.0725355 0.693902
-10.8369 8.07948 -7.5472 -0.401524 0.865558 -0.299312
15.3925 19.2141 -3.57019 0.754585 0.214557 -0.620135
4.52643 -22.9973 -14.3874 0.0356328 -0.555447 -0.830788
-1.61982 -25.7941 16.7289 -0.223959 -0.721201 0.655524
14.2541 19.6075 17.2625 0.689012 -0.0671624 0.721631
4.69064 16.4709 21.3568 0.128947 -0.0548903 0.990131
-9.55757 27.1077 18.3032 -0.088379 0.981823 0.167968
-10.9169 -1.21023 17.2501 -0.542685 0.330823 0.772043
1.68408 -24.9268 -12.8227 -0.10025 -0.652715 -0.750942
7.60184 1.73245 -20.0729 0.161879 0.599477 -0.783851
-10.4105 6.89522 -10.6239 -0.397512 0.799225 -0.450804
-7.27823 27.138 18.6688 -0.0278054 0.989821 0.139576
4.46912 10.4658 -8.0536 0.134336 0.183749 -0.973751
13.0566 -13.4174 -15.6515 0.479007 -0.183725 -0.858369
-17.7087 -4.6095 -8.35631 -0.918188 -0.0909191 -0.385571
23.2752 -25.8767 11.4646 0.589044 -0.31431 0.74447
-4.48887 -13.4356 22.0697 -0.38398 -0.12428 0.914939
-1.67049 -10.5602 23.2626 -0.279693 -0.00270773 0.960086
1.42397 27.7232 16.5086 -0.0590754 0.997711 -0.0329134
16.6448 -13.5238 19.7484 0.60235 -0.17237 0.779399
-16.5413 -22.5927 4.59779 -0.601037 -0.318289 0.733108
16.6457 -19.663 -10.6607 0.669131 -0.393221 -0.630587
-10.3703 -25.4315 -4.39145 -0.512551 -0.724208 -0.461319
-19.2149 -16.5875 -1.48722 -0.85618 0.515284 -0.0379243
23.8294 -8.43815 -5.56834 0.883017 -0.260084 -0.390689
-20.6003 -19.1785 -1.47381 -0.921074 0.388325 0.028754
-10.6453 16.6661 1.6545 -0.948182 0.110565 -0.297869
-4.43897 -1.50335 -18.9257 -0.371424 0.101088 -0.922944
-4.99178 -26.5781 -8.28372 -0.385141 -0.776394 -0.498876
-4.47897 25.3186 -7.84452 -0.00418678 -0.722451 -0.691409
10.2227 -1.77512 -21.576 0.329842 0.393782 -0.857986
22.9079 -4.48057 13.5674 0.887887 0.131634 0.440827
19.015 -22.3492 -4.44499 0.799229 -0.503203 -0.328662
21.9074 3.86404 -4.29828 0.688514 0.667845 -0.282724
23.2122 1.65013 7.53626 0.843237 0.462979 0.273135
7.41473 -1.4302 22.196 0.0927367 0.391969 0.915292
21.6822 -7.58173 15.7921 0.786844 -0.0499346 0.615129
19.5848 30.806 -1.57063 0.349143 0.933385 0.0830181
24.3208 -4.67197 10.026 0.958598 0.0787742 0.27365
4.49807 -19.493 -16.3014 0.0441454 -0.401385 -0.914845
14.6101 10.4938 -2.62159 0.573016 -0.103902 -0.812931
-16.3452 10.2029 1.17666 -0.15442 0.723899 -0.672402
-1.33121 27.2465 19.4465 -0.0403366 0.989826 0.136448
10.503 -16.4763 22.2756 0.341632 -0.279219 0.897399
-12.7971 28.3264 -4.54709 -0.955408 -0.00156588 -0.295285
-8.36403 19.7007 -2.13598 -0.825469 0.138127 -0.547286
20.4164 28.4402 4.54237 0.980984 0.132305 0.142008
13.5687 28.3876 -10.1594 0.216016 -0.363662 -0.906138
-4.44293 -16.4423 -15.746 -0.361101 -0.316449 -0.877192
12.7963 -21.7724 -12.5342 0.471229 -0.50827 -0.720836
-7.43854 30.4452 -4.39867 -0.0728481 0.994024 0.0813033
-11.5653 16.4244 7.45223 -0.987017 0.159929 0.0148277
-1.54906 -22.5264 -13.8918 -0.238215 -0.527313 -0.815595
-13.39 1.50604 -13.7798 -0.663877 0.370123 -0.649828
-25.1833 1.4048 -1.5986 -0.861177 -0.385063 -0.331814
-7.22464 7.67018 13.201 -0.679521 0.140843 0.72001
7.45427 16.5499 -9.31713 -0.0102251 0.0727143 -0.9973
-8.32111 13.3266 -2.22055 -0.777738 -0.307476 -0.548253
7.61222 4.10113 19.0058 0.0654418 0.658679 0.749573
13.5806 -7.57882 22.1072 0.438063 0.0481892 0.897652
-5.52983 -17.2764 20.726 -0.443435 -0.289525 0.848257
-7.04245 19.3425 -4.14226 -0.729868 0.193058 -0.65576
13.9076 -1.19526 20.6147 0.35316 0.326678 0.876675
-4.71211 -19.7381 -14.264 -0.381776 -0.395746 -0.835244
-11.443 -13.5525 17.2543 -0.707829 -0.180914 0.682824
21.6013 -7.36225 -9.74163 0.774865 -0.190229 -0.602824
-10.2145 -27.6435 4.46705 -0.470341 -0.873082 0.128484
-18.4299 7.52942 6.1745 -0.405619 0.0175298 0.913874
-9.87826 -16.1395 -12.6532 -0.560735 -0.324542 -0.761741
-13.548 10.7626 1.3183 -0.0277204 0.64467 -0.763958
22.6145 19.4143 1.54457 0.6984 0.707749 -0.106437
-18.689 -16.4881 1.41505 -0.92856 0.255995 0.26878
20.4973 25.544 7.60046 0.953458 0.279961 0.111985
10.4128 -1.62362 21.7999 0.195642 0.36393 0.910648
23.6946 17.4908 4.90385 0.81488 0.508393 0.278402
-12.2929 -18.4206 -9.332 -0.687368 -0.385589 -0.615504
-1.63471 19.5751 -7.97867 -0.374246 0.437667 -0.81755
22.4235 4.35082 1.45121 0.802437 0.596268 -0.0236478
-1.55034 -29.3924 -4.65318 -0.224054 -0.932733 -0.282506
-1.6583 30.8233 -9.94059 0.132456 0.689215 -0.712347
-15.8971 1.34432 -10.4547 -0.818367 0.34609 -0.4588
19.3633 -16.4416 16.3741 0.713445 -0.296496 0.63489
-10.9502 -26.1388 7.77136 -0.594133 -0.734109 0.328771
1.46283 10.6992 -8.12191 -0.0512456 0.193516 -0.979758
16.441 -28.1158 10.5252 -0.00709279 -0.891074 0.453802
-12.9842 -1.6654 15.7916 -0.661148 0.248105 0.708045
10.2902 22.4285 -6.59194 0.412207 0.16376 -0.896252
23.956 9.1331 4.2369 0.878308 -0.473915 -0.0630922
-1.50049 -30.4955 7.42144 -0.196125 -0.970539 0.139964
-1.49541 -22.5191 19.6335 -0.234775 -0.547284 0.803344
4.46871 -30.422 10.3533 0.0213608 -0.954524 0.297368
-21.0524 -24.1305 -1.1953 -0.931517 -0.363533 -0.0109101
12.9277 -16.1117 21.3728 0.440714 -0.255335 0.860567
22.3864 19.422 4.55485 0.801696 0.566385 0.191027
13.483 -7.65392 -19.5363 0.707783 -0.487254 -0.511495
-13.3099 6.75428 -7.3994 -0.553966 0.770926 -0.314316
4.44975 27.8654 16.6728 -0.0377143 0.999198 0.0134298
13.4954 -10.4276 22.1361 0.440618 -0.0620954 0.895545
-8.29498 -26.5123 -4.97441 -0.469817 -0.796069 -0.381504
-8.15818 -10.5313 20.4745 -0.538575 -0.045949 0.841324
-10.4732 29.3489 1.54188 -0.0781187 0.987443 0.13731
-16.5654 7.51184 -0.780145 -0.145675 0.529045 -0.835997
-10.4281 1.34282 -16.1034 -0.465808 0.349764 -0.812827
16.5365 -28.9502 7.48108 0.0268136 -0.998112 0.0552619
4.48435 2.2455 20.4744 -0.00454028 0.531054 0.847326
-18.5412 0.90536 -4.05039 -0.868272 0.307154 -0.389565
17.479 30.2557 4.70478 -0.239817 0.966982 0.086221
-7.28931 -19.3019 18.8668 -0.53486 -0.370457 0.759398
-12.7099 -13.265 15.9357 -0.740508 -0.197992 0.642221
10.6104 25.6081 -3.83556 -0.123064 0.461012 0.878819
7.89308 16.5069 20.7071 0.265768 -0.0059155 0.964019
15.7921 -22.0313 -9.8513 0.62048 -0.513202 -0.592982
1.29706 22.6657 21.9399 0.191258 -0.360298 0.91302
7.32757 -27.3607 15.5182 0.135649 -0.786067 0.603073
4.25114 14.1981 21.1885 0.0749389 -0.164089 0.983595
-16.6356 4.41989 -4.64933 -0.797211 0.553285 -0.241517
13.5097 31.176 -4.55056 -0.0302304 0.995287 0.0921439
-15.8599 4.1578 -7.3862 -0.771312 0.535816 -0.343482
23.463 10.0119 8.11879 0.773685 -0.383236 0.504521
8.53179 11.9277 -4.036 -0.304986 0.374247 0.875741
24.1402 -9.89137 9.63996 0.964041 -0.157033 0.214397
16.6441 28.2916 16.6209 0.232389 0.937038 0.260681
23.0715 -7.5516 13.5365 0.89825 -0.036512 0.437965
4.41902 10.7357 19.2911 0.0986689 -0.630166 0.770166
21.1539 22.3568 7.49842 0.996439 0.0605484 0.0586856
-7.43705 27.8395 13.3877 -0.0391817 0.988756 0.144312
-10.0116 30.3386 -7.12133 -0.296417 0.942863 -0.152137
10.5147 -10.53 23.3502 0.309943 -0.0464256 0.949621
-9.8893 -13.559 18.7414 -0.65034 -0.157009 0.743241
19.8626 -1.28646 16.7468 0.70655 0.285361 0.647577
-7.22329 -13.2645 -15.5628 -0.46086 -0.302903 -0.834181
-4.36992 13.5643 19.5185 -0.43949 -0.303346 0.845476
-4.26229 -27.6802 13.0032 -0.337337 -0.800538 0.49532
-1.56387 -16.5059 -16.6763 -0.243789 -0.318098 -0.916177
18.7046 -19.0402 15.7616 0.669538 -0.354134 0.652923
22.2504 -22.3484 4.96608 0.552031 -0.420302 -0.720145
22.8815 -13.5448 -4.49415 0.900804 -0.261502 -0.346652
1.53613 27.3829 19.4467 -0.0277882 0.992811 0.116421
-12.4055 -15.9898 15.3955 -0.755479 -0.225533 0.615131
23.3175 1.9114 -4.64264 0.804092 0.511648 -0.302742
-9.41901 13.9491 -0.964161 -0.819014 -0.309035 -0.48344
10.4391 28.5302 -10.2924 -0.319638 -0.316615 -0.893077
-21.8483 6.97817 3.97304 -0.667435 0.454302 0.590034
-10.897 22.5028 13.5287 -0.853613 -0.493126 0.167843
18.9409 19.6086 12.7477 0.679402 -0.265012 0.684238
7.41822 -1.4267 -22.2282 0.176537 0.519102 -0.836282
10.5782 1.56693 20.286 0.180256 0.481862 0.857506
7.77438 25.5493 23.3145 -0.076577 -0.056827 0.995443
18.2566 23.6885 -0.502562 0.677349 -0.660704 -0.323523
-4.49239 1.49958 19.2096 -0.316678 0.464473 0.827031
-10.5286 25.146 -4.75541 -0.524307 -0.73929 -0.422556
4.39019 -10.9867 -19.9352 -0.150517 -0.696745 -0.70135
10.5142 -7.50837 23.2903 0.279501 0.0948941 0.955445
-10.1211 7.56199 10.1231 -0.624032 0.490548 0.608232
-4.55225 -10.651 -17.4628 -0.327521 -0.20127 -0.923158
16.168 27.7206 19.0857 0.408224 0.816504 0.408258
13.847 -16.715 -14.3003 0.523745 -0.263483 -0.810104
-4.56761 -19.7636 20.1375 -0.372144 -0.412136 0.831657
21.2492 -2.01529 15.3815 0.80278 0.242832 0.544589
-19.8348 1.69046 -2.49057 -0.1611 0.299692 -0.940336
4.39137 -4.54046 23.4722 -0.0186619 0.276538 0.960822
25.2686 -7.58498 -1.55957 0.966467 -0.204747 -0.154985
-10.2981 -25.2874 10.3917 -0.600496 -0.696106 0.393499
-22.4606 -1.08022 1.40911 -0.452274 -0.727317 0.516196
-7.59589 -22.626 -10.6698 -0.511114 -0.559644 -0.652351
4.49526 -24.9724 -12.8818 0.0442336 -0.661883 -0.748301
-2.15281 -4.68393 -20.2153 -0.646917 -0.210932 -0.732807
-6.62136 -7.71834 21.2735 -0.434011 0.0748995 0.897789
1.18278 25.2439 -6.5457 0.275888 -0.00433004 -0.96118
7.53077 13.5691 20.4457 0.214105 -0.320507 0.922732
7.46472 -4.3403 -23.3372 0.141872 0.238868 -0.960632
10.4631 3.78428 18.8307 0.181131 0.629586 0.755522
-10.1058 -19.5225 16.3466 -0.665704 -0.366952 0.649758
11.1755 -11.3447 -17.4806 0.486041 -0.599754 -0.635656
20.2359 19.4996 10.5454 0.910753 -0.165614 0.378286
-0.913614 -30.1819 9.63662 -0.177485 -0.950884 0.25361
19.0746 22.6175 13.0643 0.729828 0.0575349 0.681206
12.9766 -24.7149 -9.81699 0.479136 -0.645611 -0.594655
16.318 24.9394 1.13177 -0.791094 0.469619 0.391955
10.4792 -4.47614 22.7494 0.232679 0.246183 0.94088
-15.7904 -4.53784 13.1387 -0.808594 0.00671026 0.588329
-12.7931 25.4523 7.53407 -0.930857 -0.365177 -0.0122717
1.70587 12.6237 -8.50246 0.0203134 -0.65406 -0.75617
-7.17689 -27.654 10.2539 -0.476777 -0.802386 0.358971
13.839 -26.299 14.2155 0.356484 -0.72079 0.594459
-7.22223 4.09773 16.0972 -0.382685 0.604335 0.698807
4.56603 -31.1916 4.62085 0.0408347 -0.999129 -0.00854806
1.53614 25.581 22.782 0.175361 0.0777648 0.981428
-10.4731 29.7849 -1.42563 -0.091107 0.985631 0.142238
4.40835 30.8482 -4.54401 -0.140916 0.969956 -0.198314
-20.2728 -1.93884 -2.23699 -0.511808 -0.509509 -0.691703
24.8911 -25.4419 7.73718 0.910619 -0.240719 -0.335898
-18.6339 -10.5 -1.60115 -0.980136 -0.151287 -0.128239
-4.3478 -25.1746 16.1986 -0.349645 -0.682289 0.642051
1.50132 -28.8386 -7.55584 -0.103795 -0.902161 -0.418727
-4.1982 10.444 -7.02876 -0.37088 0.628649 -0.683556
24.6835 -22.4561 10.1848 0.88916 0.138102 0.43626
-7.32006 25.2282 21.8075 -0.482688 0.0319852 0.875208
19.9186 25.4873 10.449 0.937737 0.208092 0.278114
1.40715 -22.9242 -14.2856 -0.116975 -0.542047 -0.832167
-10.372 -7.37082 -15.8723 -0.498876 -0.296419 -0.814407
23.2566 -13.4104 10.5082 0.945955 -0.198473 0.256472
-7.66045 1.51483 -17.2696 -0.293093 0.373676 -0.880036
-7.37515 -19.362 -12.9522 -0.504106 -0.379729 -0.775682
-10.3473 19.5186 1.44573 -0.941465 0.0316486 -0.335622
19.9739 -13.6272 16.7364 0.735211 -0.1909 0.650402
17.8371 -14.1944 -11.8544 0.685098 -0.203961 -0.699314
-22.5853 -1.22273 -1.89176 -0.491181 -0.712135 -0.501603
-18.5614 -7.47599 -4.54359 -0.959269 -0.155097 -0.236112
-13.8895 -26.753 2.50889 -0.132701 -0.879331 0.457349
7.55803 -26.2559 -11.0398 0.20211 -0.739502 -0.642096
4.52817 -31.038 1.55863 0.0697738 -0.992594 -0.0994423
-15.9982 -24.9691 3.6478 -0.350538 -0.525652 0.775121
-1.64072 -25.9998 -10.8905 -0.249723 -0.720592 -0.646827
-11.6893 13.8167 7.55312 -0.982654 -0.148817 0.110654
16.4673 28.9621 13.4514 0.0218691 0.982769 0.183538
-10.562 -4.54626 -16.5904 -0.497492 -0.165812 -0.851474
4.74897 30.6286 -2.65121 -0.0718868 0.869774 0.488187
16.4027 -25.5999 13.5341 0.285284 -0.623289 0.728096
24.5546 1.16383 1.62853 0.904009 0.424701 0.0489529
7.30013 -24.7594 -12.6297 0.192927 -0.652975 -0.732395
-13.4731 -25.6656 4.48271 -0.478652 -0.742859 0.468031
13.4858 -10.3669 -16.4016 0.618624 -0.434851 -0.654377
16.6071 31.2368 -7.58212 0.196932 0.967089 -0.161108
10.5163 19.5225 -7.70791 0.349082 0.46852 -0.811561
-4.58931 6.93025 -13.266 -0.10506 0.801189 -0.589117
7.47073 -30.7415 7.55307 0.145937 -0.982655 0.11442
21.2429 -21.4219 1.85013 0.871464 -0.462766 -0.162474
-17.7024 -1.32631 -8.28839 -0.918158 0.139569 -0.370819
13.5372 22.4896 19.5505 0.496233 -0.596052 0.631249
-19.0268 -24.8711 -3.45473 -0.285471 -0.442084 -0.850334
-11.6026 -26.6951 5.02764 -0.543502 -0.801481 0.249467
-8.5338 16.7222 -2.36869 -0.833659 0.0887614 -0.5451
21.8028 -19.6809 12.6672 0.681455 0.127407 0.720684
24.8605 -10.4919 1.51767 0.977636 -0.204983 -0.0470002
-7.46827 -28.4799 7.43039 -0.435953 -0.871706 0.223773
-15.519 -10.3029 -9.80555 -0.783868 -0.288574 -0.549797
13.4719 1.48087 19.4885 0.308416 0.48987 0.815418
16.316 22.5726 16.3996 0.739877 -0.502357 0.447459
8.73738 -20.8955 20.9925 0.175366 -0.488256 0.854899
-14.7262 -7.4347 14.4993 -0.794221 -0.0235323 0.607174
15.4938 16.4908 15.6782 0.813573 -0.0566043 0.578701
-10.9538 -10.7242 -14.1714 -0.562589 -0.314692 -0.764501
-7.45454 29.5929 1.49785 -0.0273374 0.984575 0.172812
-7.34677 30.1776 -1.8965 -0.086574 0.986745 0.137258
13.8312 -23.0261 17.2912 0.464742 -0.541035 0.700925
-19.9652 -22.6185 1.74846 -0.776506 -0.0936047 0.623119
23.4167 -1.39589 10.6868 0.893966 0.291749 0.340158
10.9747 26.5974 -9.36503 -0.136665 -0.648177 -0.749126
-1.59979 30.7096 -4.52664 -0.0472059 0.99369 0.101739
7.12458 28.2985 -8.21489 -0.635558 -0.258512 -0.727487
-14.0603 -1.51903 -14.0998 -0.720791 0.0780819 -0.688741
-4.47067 -28.539 -4.48119 -0.340596 -0.890723 -0.301009
21.7365 4.01315 7.15056 0.746099 0.593421 0.301972
24.2947 -13.2289 4.44993 0.973221 -0.22627 0.0405203
23.1945 -1.26781 -7.76915 0.825475 0.228815 -0.51598
-7.53935 28.2811 10.4413 -0.0501448 0.986191 0.15784
17.2845 -23.3646 14.6469 0.466223 -0.436371 0.769556
-14.0917 -22.7839 7.7002 -0.76751 -0.514637 0.3822
7.43683 -28.646 -7.47847 0.16628 -0.888871 -0.426919
22.3536 10.8189 -1.30831 0.551913 -0.507699 -0.661539
-15.7715 -7.45545 13.07 -0.819271 -0.035459 0.57231
-14.3607 -1.21904 14.2055 -0.69616 0.317475 0.643871
-3.79833 -30.1897 4.54301 -0.268666 -0.963084 0.0169696
4.44578 -28.9587 -7.54437 0.0353707 -0.905544 -0.422776
-9.50514 -16.1286 18.4014 -0.64934 -0.23258 0.724061
-7.50353 25.5306 -7.52444 -0.314446 -0.718877 -0.619951
13.4464 1.31883 -16.3327 0.591722 0.730926 -0.340019
15.7706 -24.7893 -6.86669 0.620119 -0.625232 -0.473854
4.58019 12.8311 -8.52914 0.106286 -0.472775 -0.87475
18.731 -16.3004 -10.0598 0.740253 -0.280998 -0.610792
-19.2482 1.25758 4.63437 -0.507127 -0.207016 0.83664
-16.0557 -22.6019 -2.70285 0.0653434 -0.0717571 -0.995279
-9.64233 -21.7999 -9.65182 -0.593491 -0.517498 -0.616413
1.52186 -31.0511 1.54302 -0.060321 -0.994508 -0.085533
13.9346 13.2822 16.8582 0.664391 -0.349862 0.66044
-8.3104 16.3439 17.1974 -0.761875 -0.0803457 0.642721
-19.1468 -4.50762 4.52094 -0.991818 0.00536422 0.127547
-1.69922 9.8477 17.2225 -0.185914 -0.712521 0.676572
-13.6541 -16.4681 13.5225 -0.783293 -0.253871 0.567452
10.3911 -16.5183 -16.1504 0.364194 -0.270092 -0.891299
-10.7408 11.0726 0.953883 -0.426339 0.386566 -0.817803
1.07656 30.9933 -7.24062 0.400779 0.892439 -0.207191
-10.4917 28.3875 -7.88867 -0.575855 -0.213891 -0.789077
-12.7848 25.7631 1.54843 -0.892403 -0.448355 -0.0509419
-21.9769 1.37266 -2.73263 0.249755 0.116066 -0.961328
1.42709 -4.56602 -22.8134 -0.357502 -0.0888508 -0.929676
4.73549 0.658181 21.3624 0.0172205 0.461069 0.887197
-10.4796 -27.6777 1.46725 -0.31036 -0.949921 -0.036436
25.4173 -1.50182 -1.44183 0.968674 0.22537 -0.104302
19.5447 16.562 -3.97893 0.0218211 0.23722 -0.971211
-11.3521 16.5031 4.5871 -0.978841 0.145199 -0.144179
-6.83416 -4.31511 -18.2434 -0.276217 -0.107977 -0.95501
24.5489 10.5999 4.50178 0.956128 -0.292096 0.0223607
-16.9461 -1.49195 10.5921 -0.872982 0.20734 0.441488
1.40427 18.6709 -9.4933 -0.0675067 0.560169 -0.825623
-7.42514 7.91531 -10.7951 -0.240021 0.855078 -0.4596
1.30897 -4.69791 23.2406 -0.159301 0.252752 0.954327
13.4588 -28.697 -1.52321 0.413181 -0.890677 -0.189672
4.54677 -30.6211 -1.58254 0.0450168 -0.987019 -0.154166
-1.40537 -16.5308 22.4812 -0.247048 -0.272655 0.929853
23.6489 -13.8777 -1.59526 0.937784 -0.28147 -0.203313
17.5023 25.0943 16.9172 0.84351 -0.350741 0.406781
-7.5503 -28.8733 4.4905 -0.376335 -0.925307 0.0466843
-19.6301 -19.5286 1.71493 -0.807891 0.249907 0.533721
24.8481 13.5659 1.4673 0.984329 -0.0418255 -0.171311
11.4851 -29.84 1.27081 0.248346 -0.96328 -0.10206
16.0495 -16.2906 -12.8045 0.626207 -0.254705 -0.736878
-8.00135 19.3547 7.47475 0.997369 -0.00214389 0.0724621
13.5577 -29.1399 1.55494 0.384797 -0.915121 -0.120354
16.565 -10.61 -13.7949 0.619998 -0.125925 -0.774432
3.99348 28.4147 -5.4346 -0.247887 -0.122608 -0.960999
1.50031 -1.48669 -22.3723 -0.236347 0.320904 -0.917148
1.56402 -30.9487 7.55231 -0.0918553 -0.985517 0.142542
-1.32732 25.4032 -7.505 0.238439 -0.685772 -0.68765
-22.2332 4.60487 -2.30095 0.281491 0.306184 -0.909403
-7.52646 28.7273 7.4589 -0.0572986 0.988465 0.14019
22.7738 -16.5174 -1.52053 0.921084 -0.336514 -0.195866
20.6631 -13.8987 -8.57826 0.804276 -0.241528 -0.542959
-1.49375 4.39043 -16.3277 -0.0340839 0.709422 -0.703959
18.6776 30.7061 -7.18267 0.541818 0.700548 -0.464399
10.0337 -30.2416 1.53308 0.18931 -0.977563 -0.0923753
-4.41005 27.9712 13.3904 -0.0193953 0.993848 0.109042
22.4699 -28.3156 7.51646 0.432215 -0.840056 -0.327866
16.8023 22.5521 -1.65202 0.737754 -0.389014 -0.551713
-19.4384 -4.562 -1.46644 -0.971168 -0.233356 -0.0487616
16.2132 25.5064 19.4736 0.770367 -0.352715 0.531156
24.945 -22.5546 7.6005 0.953247 0.0886456 -0.288897
1.5968 -7.32899 -21.9259 -0.465147 -0.481303 -0.742958
14.5663 -13.9078 -14.6219 0.544541 -0.195275 -0.815685
7.48801 27.6388 19.4959 -0.041924 0.988039 0.148396
-12.6943 26.0052 -1.34896 -0.845681 -0.521119 -0.115143
-1.32105 10.81 19.0033 -0.175565 -0.639215 0.74872
10.5954 -10.3961 -19.3946 0.449971 -0.770442 -0.451603
10.1333 -18.9845 21.4782 0.310151 -0.385218 0.869145
10.492 -22.5008 19.3588 0.297154 -0.550043 0.780482
-7.17815 22.8159 -4.15058 -0.48673 -0.554293 -0.675169
22.762 7.42595 4.65064 0.813726 -0.579577 -0.0440545
23.86 -14.5793 1.18342 0.954317 -0.284887 -0.0901062
4.50358 -4.48099 -23.4522 -0.0822972 0.0972266 -0.991854
13.6751 28.7998 13.7426 -0.0728832 0.990582 0.115909
18.9644 -4.51683 -12.959 0.647022 -0.039327 -0.761456
25.3259 -7.4791 4.45322 0.987839 -0.12356 0.0943732
-24.7785 1.62881 1.28793 -0.813508 -0.300121 0.498129
7.61549 5.24846 -13.8108 0.218434 0.771064 -0.598119
7.53607 -22.7685 -14.106 0.194612 -0.552647 -0.810375
-13.6267 -27.27 -0.927 0.0841204 -0.964866 -0.248912
7.61896 2.02015 20.4795 0.0761431 0.498884 0.863317
-10.8857 22.5729 1.45092 -0.885044 -0.420156 -0.200412
1.56324 16.5753 -10.1364 -0.0185766 0.0703034 -0.997353
4.34 18.5931 -9.25131 0.162005 0.339194 -0.926662
-11.5641 -23.6785 -5.42611 -0.63597 -0.609655 -0.473142
4.48606 -21.5366 -15.2963 0.0293524 -0.491172 -0.870568
4.20528 14.2601 -9.38506 0.192673 -0.375093 -0.906743
16.3889 25.878 -7.42878 0.331743 -0.746616 -0.576638
-19.58 -22.4989 -3.9723 -0.257898 -0.226183 -0.939324
-4.32551 16.5328 -7.35898 -0.657141 0.0913319 -0.748214
19.4432 -28.3836 10.5624 -0.0486968 -0.883415 0.466054
-4.56698 19.4208 20.4094 -0.43224 -0.152044 0.888848
19.534 -22.4695 13.9606 0.401696 -0.177232 0.898459
-10.2583 13.4346 13.4509 -0.896364 -0.249065 0.366739
16.211 28.5121 -9.5749 0.320074 -0.24644 -0.914779
-10.5334 4.57915 -13.711 -0.43293 0.651799 -0.622679
-4.82456 -26.4854 14.3834 -0.363552 -0.741759 0.563581
-1.35807 5.8706 -14.8172 0.00419877 0.734118 -0.679009
19.5099 30.9047 -4.48502 0.412333 0.909719 -0.0489202
-13.1394 28.5542 -1.44499 -0.910589 0.413225 0.00854027
22.0053 18.8349 -1.38915 0.599287 0.621738 -0.504279
10.4719 -28.0441 13.4931 0.225267 -0.82791 0.513634
-10.7455 13.2683 1.45336 -0.78627 -0.0247926 -0.617385
-14.2031 -16.6316 -8.09374 -0.754099 -0.350033 -0.555708
22.6973 -16.4152 10.558 0.943814 -0.0629738 0.324423
13.7628 30.8718 -1.85953 -0.100924 0.974803 0.198931
16.4503 10.4584 -2.1866 -0.0105617 -0.24781 -0.968751
-9.98544 10.0305 -1.12812 -0.573266 0.743703 -0.343907
19.5626 -29.0145 7.48085 0.0157127 -0.996107 -0.0867449
21.6151 -19.3006 -1.44972 0.885009 -0.413916 -0.213147
4.68895 -1.37321 22.3138 -0.00360057 0.392678 0.919669
-10.5379 -13.4631 -13.3172 -0.563158 -0.332123 -0.756668
7.57192 -30.8531 4.61152 0.143486 -0.989441 -0.0204342
25.4799 -1.5192 1.55212 0.972696 0.223854 0.0612602
-7.52076 -28.194 -1.57599 -0.388637 -0.882506 -0.26485
-0.711459 -1.71461 -21.5356 -0.536596 0.252568 -0.805154
7.41501 -19.544 21.9178 0.148254 -0.428202 0.891439
-1.40326 -10.3672 -18.5717 -0.292821 -0.254958 -0.921549
-1.50157 27.6511 16.5167 -0.00409798 0.994854 0.10124
10.5688 -4.49141 -22.3045 0.436699 0.162276 -0.88485
14.281 16.4203 17.1251 0.71969 -0.0527904 0.692286
1.78731 0.64488 -21.4394 -0.204958 0.540557 -0.81596
19.3047 28.4601 10.4557 0.843384 0.490925 0.218396
10.59 27.7811 19.514 -0.0486999 0.984943 0.165876
22.1077 7.73296 1.60231 0.742957 -0.542562 -0.391971
24.5321 -1.56177 7.35577 0.937684 0.244338 0.247077
10.6114 -29.4514 10.5922 0.229028 -0.919286 0.320093
11.4311 -29.8824 8.28108 0.239227 -0.953579 0.182917
16.548 7.41431 11.0418 0.56753 0.0882083 0.818614
10.2886 -27.9336 -7.35847 0.310749 -0.837137 -0.450152
16.4026 -13.5784 -13.3095 0.620973 -0.199229 -0.75809
-4.28874 -16.3576 21.5609 -0.374103 -0.255129 0.891603
4.42449 -27.519 15.6904 0.0165362 -0.787981 0.615478
-9.98182 10.681 10.3004 -0.840346 -0.393725 0.372558
19.8193 -22.6288 -1.49567 0.83325 -0.508973 -0.215964
-1.60626 31.0214 -7.51191 -0.0369091 0.992737 0.114504
-1.43585 -7.53401 -19.6525 -0.489645 -0.37084 -0.789129
18.6852 6.41411 -4.1937 0.477719 0.839742 -0.258106
4.52295 -16.4955 -17.443 0.0297213 -0.311774 -0.949691
-7.46559 6.61336 -12.919 -0.232764 0.799759 -0.553359
19.1874 25.9537 -4.55996 0.64896 -0.691291 -0.317753
10.5371 -29.0142 -4.6388 0.288207 -0.910077 -0.297821
-16.8414 -25.2894 -3.30777 0.14648 -0.209978 -0.966671
19.6812 19.4572 -1.98812 0.113672 0.750225 -0.651338
16.243 -4.54383 -16.3747 0.916856 -0.075685 -0.391977
24.6847 -25.3781 10.0494 0.858608 -0.213206 0.466193
-16.4235 -27.2592 -1.07726 -0.105758 -0.981598 -0.158996
-1.57465 7.5695 16.5961 -0.318094 -0.110134 0.94164
-19.7197 4.52597 -1.73165 0.0791444 0.193221 -0.977958
7.56523 10.4689 -7.33486 0.294149 0.0231904 -0.955478
13.982 19.6433 -5.08186 0.691852 0.325049 -0.644735
-7.472 30.7434 -7.41306 -0.0745256 0.994146 0.0782243
-4.28604 -7.36604 -18.4255 -0.292744 -0.256257 -0.921213
9.8628 3.37024 -16.1611 0.338108 0.896328 -0.286844
20.3298 -22.8243 1.30837 0.842446 -0.513187 -0.164082
22.0854 -19.5155 1.50467 0.901404 -0.401007 -0.163293
-1.26763 -24.535 -12.493 -0.241917 -0.634498 -0.734091
13.564 27.8752 19.6063 -0.00896697 0.981396 0.191784
-13.4726 -7.40946 -13.4552 -0.65906 -0.285512 -0.695789
13.4905 -29.4311 7.52868 0.250418 -0.958146 0.138735
12.9825 -21.8441 18.6542 0.427028 -0.497157 0.755303
4.45586 -7.57763 -23.0711 -0.31599 -0.370813 -0.873297
7.47464 -30.6788 1.54555 0.143602 -0.986352 -0.0805442
24.224 15.3337 6.31209 0.870404 0.289181 0.39846
19.6447 25.6142 -1.50941 0.791106 -0.602058 -0.108061
19.0177 3.75563 13.2232 0.615216 0.681955 0.395534
24.4913 -10.4772 7.41689 0.969067 -0.165784 0.182824
-4.68181 30.905 -7.51612 -0.0374836 0.989879 0.136876
-2.24801 -20.6058 -14.8183 -0.265959 -0.436467 -0.859513
-15.9206 -7.52797 -10.5292 -0.803517 -0.233433 -0.547604
-4.31369 0.793136 -18.4434 -0.262311 0.335206 -0.904892
-4.62476 22.5903 -5.32642 -0.418991 -0.128679 -0.898826
-7.4716 -25.5247 13.5107 -0.498859 -0.689974 0.524476
16.9133 -7.68971 -14.0786 0.656473 -0.216718 -0.722548
24.5118 16.364 1.59792 0.945175 0.303106 -0.121538
16.5142 -1.58695 19.4518 0.48665 0.275877 0.828893
24.9547 13.4796 4.52882 0.993445 0.0202639 0.112499
4.41886 -10.4127 24.2402 -0.0299369 -0.018975 0.999372
19.5627 4.55308 10.5401 0.623251 0.710087 0.32762
-1.2431 -30.3118 -1.25825 -0.18458 -0.963277 -0.195009
19.4735 1.54001 -10.5116 0.587408 0.50658 -0.631133
7.41783 22.6464 21.9008 -0.0235662 -0.554993 0.831521
-10.1432 22.6233 16.4906 -0.788149 -0.53349 0.306936
-4.84695 16.6813 -4.88646 -0.594803 0.405023 -0.694382
13.4357 -13.4586 21.7599 0.432209 -0.180106 0.883605
-7.34933 3.94808 -15.9044 -0.24084 0.623289 -0.743981
4.58895 -1.53135 -22.6474 0.0279269 0.411307 -0.911069
7.01545 -12.6963 -18.3949 0.19573 -0.527942 -0.826419
-21.1263 -20.4728 -1.77728 -0.975483 0.206774 -0.0753461
-7.74587 5.39165 -14.3545 -0.253618 0.725905 -0.639327
-12.4435 -21.6374 -6.58008 -0.699848 -0.509686 -0.500433
-19.0437 -7.50979 -1.55123 -0.990499 -0.110384 -0.0820195
-12.949 28.2095 4.35526 -0.7498 0.649396 0.126823
20.2212 1.88453 13.9644 0.725337 0.523527 0.446996
1.55622 8.4111 -11.0903 0.0713764 0.863694 -0.498937
1.47676 -27.56 -9.83688 -0.108799 -0.824395 -0.55546
23.1427 16.7631 -1.70762 0.78573 0.328623 -0.524057
-1.43018 -1.72992 21.6938 -0.232475 0.357739 0.904422
20.6257 22.5827 10.5278 0.94857 0.0830108 0.30549
24.784 -1.47093 -4.45881 0.933984 0.211193 -0.288221
4.44834 27.527 19.4154 -0.0453325 0.98822 0.146171
4.42095 -30.216 -3.87273 0.0239971 -0.975683 -0.217868
-22.109 6.72983 -1.11545 -0.223294 0.737041 -0.637895
19.6754 -25.4557 4.30082 0.7338 -0.350629 -0.581891
-1.42287 25.2158 -3.44612 -0.0416886 0.330125 0.943016
-7.81455 22.1854 19.6898 -0.582789 -0.563982 0.585048
-8.21451 -4.79122 -17.6885 -0.374701 -0.178481 -0.909804
20.0619 -19.5112 14.1892 0.681596 -0.202095 0.703267
9.84737 -9.50065 -21.614 0.39793 -0.713629 -0.576529
16.4333 31.2394 -4.57501 -0.0144719 0.996999 0.0760528
-13.7976 7.27792 -4.54151 -0.566455 0.802271 -0.188388
-4.22913 -27.5859 -7.08979 -0.345685 -0.841249 -0.415694
4.49745 -28.9744 13.5466 0.0247504 -0.857464 0.513948
10.5091 13.4458 19.3877 0.397645 -0.354327 0.846363
19.7318 28.6988 7.52102 0.879878 0.43213 0.19768
-10.2664 -10.5667 18.9289 -0.642444 -0.0858642 0.761507
1.37899 -19.847 21.8253 -0.138302 -0.442926 0.885827
8.11443 -7.3179 23.8222 0.156762 0.122223 0.980044
-4.47806 28.4855 -9.9433 -0.050402 -0.294665 -0.954271
16.7793 16.4732 13.5714 0.849768 -0.0933145 0.518832
23.4328 -16.5079 7.51545 0.993609 0.00460767 0.112782
2.70826 -9.19746 -21.1434 -0.380637 -0.655657 -0.652096
-19.0903 -1.57399 -4.3252 -0.896832 0.102516 -0.430328
4.57933 16.5197 -9.62157 0.231546 0.0440587 -0.971826
16.8731 -7.52706 20.1279 0.576358 0.0192373 0.816971
-4.43497 16.4988 20.1676 -0.43941 -0.142059 0.886983
23.777 -18.5857 7.3983 0.927663 0.367686 -0.0651823
-16.3259 -19.4882 -4.33468 -0.131482 -0.47682 -0.869112
-7.58496 -16.6305 -14.0189 -0.507753 -0.31986 -0.799923
-4.45394 30.6937 -9.86589 -0.106287 0.567397 -0.816556
-13.4219 -22.5463 -4.31961 -0.646798 -0.506595 -0.5701
-5.24108 -29.7419 4.45375 -0.322218 -0.946439 0.0206914
16.9419 -19.7367 17.0476 0.613265 -0.402117 0.679859
16.4683 13.5295 13.4744 0.845778 -0.242582 0.475199
16.5507 -25.4723 -4.50227 0.658686 -0.66327 -0.355255
16.8598 -22.8757 -7.69722 0.680155 -0.548436 -0.486423
16.2675 -22.2478 16.0633 0.554012 -0.46232 0.692337
7.07997 -10.4899 24.123 0.123195 -0.030472 0.991915
15.7001 -1.59165 -16.4453 0.845207 0.375875 -0.379925
10.2985 7.21114 15.7352 0.373275 0.30477 0.876231
11.1871 10.2727 -5.57164 0.550729 -0.120661 -0.825917
-7.54657 -7.55833 -17.2135 -0.364861 -0.28683 -0.885779
7.52264 -19.568 -15.8645 0.181839 -0.389577 -0.902865
6.77621 -21.3314 -15.1834 0.139493 -0.484594 -0.863545
-13.3886 -27.2337 1.14328 -0.0391264 -0.982823 0.180355
22.2896 -28.0269 10.3766 0.364177 -0.787008 0.49799
-4.4919 -13.516 -16.7299 -0.345475 -0.284023 -0.894415
16.3803 3.84717 16.0254 0.460675 0.672251 0.579533
-2.07354 -1.27176 -20.3463 -0.627158 0.210065 -0.75003
21.4922 -10.3553 15.6874 0.78809 -0.098187 0.607679
22.8993 -19.5088 4.40444 0.899274 -0.189457 -0.394223
17.357 -16.9203 -11.3402 0.688701 -0.288989 -0.664963
1.58311 -16.5535 -17.2722 -0.120927 -0.314244 -0.941609
-10.4261 28.5571 7.43059 -0.0537608 0.992368 0.110979
10.6934 10.2463 17.0156 0.370658 -0.612631 0.698066
-13.406 10.4247 7.59225 -0.314247 0.305009 0.89901
15.9503 1.00675 18.624 0.433629 0.453743 0.778514
10.378 1.27125 -19.5419 0.34656 0.66868 -0.657847
18.5508 30.0733 6.53708 0.0990396 0.979857 0.173412
-1.7742 13.0499 -8.19491 -0.408675 -0.556788 -0.723168
-11.4007 24.4763 -1.71757 -0.70351 -0.668878 -0.240158
-4.17945 19.1438 -6.76254 -0.544654 0.276628 -0.791725
1.62389 -13.1068 -18.3707 -0.107766 -0.300399 -0.947706
16.3769 4.22676 -10.4134 0.437456 0.68515 -0.582411
-4.78394 -29.5811 7.61971 -0.321536 -0.930634 0.174744
6.76051 -8.06965 24.0926 0.0900678 0.0873507 0.992098
25.7873 -4.45016 1.5867 0.998558 -0.0157742 0.0513045
-17.4158 -7.60599 -7.85995 -0.891752 -0.208641 -0.401555
4.54794 -16.4953 23.3274 0.012725 -0.267581 0.963451
-4.60659 -29.3421 -1.56068 -0.311112 -0.924013 -0.222281
18.8582 -25.0589 1.5463 0.787276 -0.595333 -0.160546
14.5031 -8.20005 -17.0945 0.749922 -0.543924 -0.376516
-18.6814 -17.0422 -3.94617 -0.618361 0.460575 -0.63679
4.48253 -13.2842 -18.4553 0.0168423 -0.390035 -0.920646
-1.37653 22.312 -6.84139 -0.361658 0.303614 -0.881488
4.44005 -19.5857 22.1754 0.00592467 -0.432181 0.901767
-10.6188 -22.6972 -7.71683 -0.625265 -0.56993 -0.533126
1.65045 -30.6052 -1.54089 -0.0531042 -0.982184 -0.180263
19.3819 4.34436 -7.455 0.542701 0.707151 -0.453226
13.4618 25.3047 -7.48215 0.103216 -0.78496 -0.610887
20.8253 28.2258 -1.34754 0.987274 -0.157338 0.0231331
-4.35219 -25.2489 -10.3614 -0.374514 -0.681601 -0.628617
20.2579 -1.20724 -11.3709 0.67481 0.249794 -0.694431
-4.75552 9.9811 16.8565 -0.384141 -0.679813 0.624731
-14.645 -23.2338 -2.81876 -0.371145 -0.115181 -0.921403
7.34354 -27.4691 -9.5716 0.178646 -0.80726 -0.56251
20.3677 -19.7401 -4.75314 0.83949 -0.430475 -0.331583
20.2252 -10.6538 17.0949 0.717727 -0.0929127 0.690098
10.4552 -13.5293 23.0169 0.336554 -0.169356 0.92631
4.52253 -31.0315 7.55087 0.0337143 -0.991297 0.127252
-18.4445 -13.5145 1.45815 -0.994769 -0.100311 0.0192932
13.431 -19.5138 -13.4359 0.501712 -0.386802 -0.773737
19.2086 -19.4221 -7.43726 0.78867 -0.397359 -0.469154
-15.8799 -13.3767 -7.53054 -0.825699 -0.284682 -0.487008
12.6414 14.0076 18.4107 0.59631 -0.185432 0.781044
1.45268 -19.6193 -16.0697 -0.12758 -0.404585 -0.905557
1.51987 19.4228 21.6096 0.00995732 0.0515316 0.998622
24.594 -10.4119 -1.44347 0.955889 -0.243419 -0.164389
4.40638 0.725569 -21.4849 0.156162 0.489553 -0.857876
-6.65847 26.7837 -9.16413 -0.17432 -0.556118 -0.812616
-5.00563 -29.7263 1.43417 -0.303851 -0.949333 -0.0802644
21.7256 -1.4397 -9.8704 0.749309 0.210723 -0.627799
16.528 -28.3155 4.39786 0.339742 -0.875776 -0.342916
22.6815 16.5227 7.62466 0.714882 0.439163 0.544132
-0.679291 -12.5481 -18.1662 -0.200241 -0.262319 -0.943977
18.2968 25.9095 15.7464 0.912012 -0.221371 0.345297
-7.47846 -1.4492 19.3515 -0.410321 0.339547 0.846371
13.6852 -25.9439 -7.65103 0.509405 -0.702713 -0.49669
7.48225 -11.1734 -19.8721 0.115768 -0.821674 -0.558076
19.6208 10.2831 -2.27595 0.1496 -0.450211 -0.880301
13.8709 -22.8077 -10.9127 0.524805 -0.55673 -0.643919
18.863 -1.60768 -12.7495 0.623657 0.2153 -0.751464
25.0095 -4.47269 -4.50589 0.948523 -0.0598715 -0.310997
-13.959 -4.53081 -13.9636 -0.699243 -0.167065 -0.695089
19.1475 1.1651 16.0458 0.653696 0.474084 0.589852
-8.31723 -1.2374 -17.7963 -0.343819 0.11238 -0.932287
19.3571 -28.062 5.1771 0.241992 -0.664868 -0.706675
21.836 -4.52677 -10.0725 0.773333 -0.0738983 -0.629678
-4.51836 -4.55938 -18.8657 -0.331589 -0.100051 -0.938104
4.40861 -26.3242 17.1132 0.0143252 -0.743034 0.6691
22.418 4.15581 -1.4197 0.720844 0.684863 -0.106525
19.297 22.4084 1.55998 0.776293 0.178252 -0.604644
-19.4251 7.25375 -0.920681 0.0657974 0.456669 -0.8872
23.0085 -7.52723 -7.5935 0.837195 -0.212227 -0.504048
-14.6892 -23.6554 5.62094 -0.656203 -0.545718 0.521142
7.67552 -29.6496 -4.81574 0.155248 -0.948439 -0.276335
1.60167 -10.4047 -19.5851 -0.287339 -0.51835 -0.80545
-4.80437 30.2905 -1.90617 0.0177144 0.983436 0.18039
-7.56748 -28.8048 1.50669 -0.369998 -0.925075 -0.0856579
-16.0732 1.40625 10.2 -0.775261 0.413615 0.477381
23.4907 -16.506 4.42674 0.972221 -0.228522 -0.0506373
10.9166 -7.67185 -22.029 0.562992 -0.301799 -0.769388
-9.62906 -21.7161 15.4057 -0.627402 -0.483861 0.610119
