ply
format ascii 1.0
comment Generated by the CGAL library
element vertex 1500
property double x
property double y
property double z
property double nx
property double ny
property double nz
end_header
22.9296 13.1448 19.6925 0.787865 -0.081627 0.610415
-6.49165 -16.3429 -19.5765 -0.420594 -0.472484 -0.774506
-9.81835 13.2016 26.1785 -0.489036 0.170401 0.855457
-22.9133 13.25 19.6305 -0.545914 0.36628 0.753536
13.101 -13.1413 -16.3775 0.77192 -0.138846 -0.620372
-13.4326 22.9177 16.3685 -0.197513 0.916654 0.347469
-9.80435 13.0226 26.1475 -0.52562 0.087775 0.846179
9.659 -0.1492 -16.3495 0.734107 0.406459 -0.543946
3.77006 19.698 26.1945 0.033399 0.615816 0.787181
6.99347 26.2002 13.0905 0.212124 0.908227 0.360731
16.3442 -3.3109 -3.4425 0.936372 0.349543 0.032058
-19.6677 -9.8236 -10.6855 -0.550558 -0.834796 0.000955
2.02596 -19.6694 -19.6635 -0.063524 -0.403597 -0.912729
9.65075 2.9991 3.1505 0.813505 0.270651 0.51474
-0.96956 22.8718 18.9435 0.004257 0.993427 0.114391
-9.83385 -11.5844 -29.5165 -0.336272 0.046676 -0.940608
-19.7206 22.9499 9.9205 -0.507365 0.781089 0.363979
-9.85695 -16.7147 6.6735 -0.578348 -0.438385 0.687991
22.9646 6.4796 -3.3935 0.344608 -0.733424 -0.585948
-12.8932 13.4827 -22.8222 -0.521976 -0.27959 -0.805835
6.4379 -3.8527 9.7395 0.474139 0.345331 0.8099
-17.3537 13.2336 22.96 -0.115023 0.687887 0.716645
10.0904 9.79532 -19.851 0.288549 -0.768269 -0.571404
-13.0872 -13.1789 -19.1485 -0.402756 -0.899428 0.169754
-3.63673 16.1617 -26.21 -0.168384 -0.129625 -0.977161
-2.89891 -22.8277 -16.2968 -0.210275 -0.771532 -0.600436
-12.9616 19.3746 -22.8765 -0.484215 0.364868 -0.79524
0.0235 19.5108 26.1275 0.193326 0.6402 0.743485
26.0374 19.4551 -2.9393 0.918861 0.281374 -0.27663
9.89989 13.0195 -22.9305 0.473181 -0.016812 -0.880805
19.8084 12.9235 -19.7973 0.51257 -0.668241 -0.53919
22.9219 12.9932 -16.5845 0.694206 -0.51646 -0.501345
-26.1185 9.85593 -6.45383 -0.854559 -0.496857 -0.151204
-0.17447 6.3569 29.4845 -0.13168 -0.119497 0.984063
2.87689 6.5971 -16.2033 0.196021 -0.972434 -0.126287
-13.1937 -16.5113 -13.2432 -0.813308 -0.384976 -0.436261
-26.2196 6.3676 13.2675 -0.729701 -0.528715 0.433586
-6.50435 -10.0929 -29.4675 0.3826 -0.409168 -0.828371
2.06763 19.7226 26.2101 -0.0543713 0.605962 0.793633
23.0081 -0.05874 9.5775 0.413091 -0.784656 -0.462246
-1.26219 26.1974 -22.9825 0.060901 0.653044 -0.754867
19.8383 26.1772 6.6825 0.219078 0.96926 0.111982
9.92188 3.4254 -10.2165 0.414135 0.889652 -0.192385
-9.57278 -6.88183 -20.0975 -0.51806 0.773647 -0.364807
-7.05128 16.6802 26.2871 -0.34271 0.510389 0.788703
3.86982 0.107971 -19.8159 0.281352 0.597573 -0.750831
6.67315 -22.9698 -13.3222 0.374818 -0.831152 -0.410728
6.72756 3.62093 -13.7692 0.361861 0.854253 -0.373242
6.21859 6.62504 -12.8845 0.257033 -0.921803 -0.290194
-0.56392 -0.057325 16.055 -0.0683002 -0.921011 -0.383501
-12.9815 -13.0034 -15.8812 -0.726606 -0.639172 -0.251998
-15.9261 3.3824 -6.16677 -0.297333 -0.931571 -0.209208
22.9677 22.9979 -6.598 0.806788 0.509419 -0.299308
-23.0211 22.9288 3.41783 -0.698868 0.697289 0.159283
-19.7316 26.1771 -4.975 -0.432656 0.901546 -0.00491
19.4476 19.5438 19.4378 0.638261 0.562661 0.52539
5.40683 3.07965 -15.926 0.31689 0.795305 -0.516789
0.28593 26.2474 -22.9225 0.037411 0.804997 -0.592099
18.8063 3.21294 3.11632 -0.0739021 -0.939139 -0.335494
-13.438 -19.8026 -9.8705 -0.831707 -0.422432 -0.360298
26.2184 16.8294 -13.093 0.84658 0.0383205 -0.53088
13.3167 0.1799 0.5325 0.836522 0.524656 0.158009
16.4115 -16.3827 -2.7155 0.921307 -0.37064 0.117558
13.3498 23.1107 -19.7583 0.546441 0.541061 -0.639261
-3.8221 22.9356 19.69 -0.0690729 0.963249 0.259577
8.4433 1.85009 5.49732 0.684351 0.20284 0.700371
19.6876 10.6533 22.9432 0.576783 0.0523506 0.815218
11.02 3.39858 6.8161 -0.157213 -0.910748 -0.381866
-2.27379 -0.830022 9.37733 -0.184226 0.468548 0.864016
26.0728 3.5256 12.0938 0.925133 -0.356857 0.129543
-19.701 -6.42385 -9.5415 -0.78014 0.545343 0.306565
-26.0968 15.2885 -9.69062 -0.935825 0.053001 -0.348458
13.6546 26.2132 -16.421 0.461512 0.746468 -0.479367
-16.2062 -3.63728 -7.62729 -0.902127 0.427092 -0.0613116
26.2396 15.6629 -13.1813 0.826194 -0.0509066 -0.561081
9.44014 -0.409325 6.133 0.508314 0.547061 0.665088
-13.1337 -1.80342 -26.2379 -0.48264 -0.104192 -0.869599
-23.0498 19.7096 10.1099 -0.748294 0.490065 0.447093
-3.06452 0.0742 -23.4425 0.175998 0.974112 -0.141884
-6.36081 3.55388 26.0765 -0.462456 -0.37903 0.801543
-9.82555 19.6976 22.9515 -0.395648 0.500495 0.770044
13.165 -6.17586 -16.5291 0.741699 0.193513 -0.642212
9.35656 2.9932 -12.1719 0.52505 0.777445 -0.346269
16.4193 -3.19054 -5.54875 0.898983 0.437935 -0.00657221
12.5682 -3.42491 16.0954 -0.310178 -0.709429 -0.632851
9.23459 3.71781 5.109 0.473668 -0.879166 0.0520128
22.8633 6.5423 -3.2595 0.356651 -0.892797 -0.275162
9.80655 -22.8537 -9.3425 0.538527 -0.770539 -0.340966
-10.1263 26.3694 -19.6863 -0.315131 0.7595 -0.56908
19.128 6.69972 -6.29962 0.168289 -0.910884 -0.376787
5.93616 -3.28825 19.434 -0.315649 -0.814464 -0.48684
4.16148 6.10093 29.5073 0.125511 -0.106307 0.98638
-9.60098 -6.6255 -19.4592 -0.493312 0.537855 -0.683634
-19.3824 6.68322 -12.9399 -0.42105 -0.793031 -0.44025
12.6964 -0.513033 2.81217 0.779938 0.413408 0.469883
13.3676 13.5265 26.244 0.428027 0.167579 0.888094
9.67772 3.3445 3.1835 0.955085 -0.096418 0.280206
-22.759 6.85146 19.4531 -0.748242 -0.317135 0.582717
26.4411 19.7734 -10.4783 0.827418 0.539359 -0.156435
-12.1729 -0.460462 -14.7659 -0.576247 0.781261 -0.239937
26.4543 19.9048 -8.59297 0.679424 0.73099 0.0635399
23.1222 20.0093 -16.7731 0.741305 0.259436 -0.618999
-19.1554 3.42404 -2.82173 -0.269979 -0.947911 -0.169045
-15.9524 -7.17327 -16.0468 -0.618773 -0.130477 -0.774658
-10.1809 -19.9205 3.563 -0.625966 -0.578408 0.523078
13.655 23.0583 19.7878 0.298896 0.78705 0.539643
-19.9179 16.8217 16.8765 -0.691782 0.421488 0.586332
-14.742 -7.37368 -17.5903 -0.457582 0.391596 -0.798293
-12.3765 -0.196261 -21.5539 -0.202188 0.976392 0.076024
20.0405 22.9354 -16.5198 0.266057 0.957837 -0.108451
0.243562 -6.58342 -23.0027 0.312056 -0.745142 -0.589393
-0.971153 -0.0991313 -22.4666 0.0821055 0.966083 -0.244833
-13.4355 6.46594 -16.6084 -0.204499 -0.883447 -0.421546
16.3857 0.0814 9.9655 -0.230624 -0.842067 -0.487582
-9.64587 26.1031 9.40775 -0.272786 0.921222 0.277378
23.0966 23.087 10.4591 0.675945 0.649736 0.347766
-16.8134 16.9632 19.9575 -0.592333 0.402493 0.697955
22.8761 3.2702 19.5015 0.737829 -0.299901 0.604704
-6.14318 -3.84818 9.57007 -0.347769 0.334476 0.87589
-2.74294 26.061 -22.8043 -0.117257 0.701631 -0.702827
-6.19687 0.1858 22.2317 -0.412145 -0.880183 0.235404
0.526981 19.7989 -26.1963 0.0673975 0.228504 -0.971207
5.04579 -0.401085 15.3553 -0.176315 -0.818483 -0.546808
19.2928 22.6712 15.9668 0.507931 0.719746 0.473256
1.22153 -0.203053 16.011 -0.0805773 -0.87227 -0.48234
13.6486 9.53624 -16.8558 0.408078 -0.787735 -0.461461
-26.4103 9.37935 -4.2515 -0.883499 -0.421784 -0.203783
19.8616 -3.54451 19.9222 0.690776 -0.422235 0.586981
8.24924 2.68226 8.71244 -0.00788708 -0.950878 -0.309464
21.2231 3.16544 3.00573 0.0426301 -0.897754 -0.43843
-13.1799 26.2224 1.01173 -0.441144 0.896592 0.038909
25.9873 3.47475 7.52082 0.837476 -0.510662 -0.194571
-18.965 26.1142 -4.65143 -0.243411 0.969885 0.00864016
-4.53909 6.64494 -19.4418 0.0178239 -0.894153 -0.447406
25.9091 19.0121 -12.7334 0.850569 0.307358 -0.426688
-26.4223 6.154 5.86685 -0.709264 -0.49205 -0.504808
-6.6776 -19.6478 6.7755 -0.45383 -0.585924 0.671365
-13.1989 26.217 -0.759433 -0.446625 0.894714 0.0036005
-23.1569 23.2171 1.37395 -0.692187 0.715158 0.097091
-9.59616 -6.19933 -19.3669 -0.483576 -0.181293 -0.856322
-12.9605 2.28025 -9.5665 -0.906056 -0.130386 -0.402568
-22.7522 22.8465 -9.7455 -0.776768 0.59146 -0.21635
10.0959 -23.2585 0.689804 0.629978 -0.656521 0.414859
9.75496 6.57255 -9.5005 0.213695 -0.948621 -0.23335
11.1775 1.06935 4.55617 0.67018 0.465201 0.578314
1.52194 0.571402 14.5595 -0.0672616 -0.881333 -0.467685
16.9438 17.2479 -23.0758 0.245757 0.0952958 -0.964636
16.8635 6.45275 -6.75835 0.134239 -0.952059 -0.274888
2.17807 -19.518 -19.5369 0.11977 -0.511218 -0.851065
-12.9513 -0.210817 -12.5797 -0.717792 0.645122 -0.261902
4.98562 1.94514 11.5312 -0.0519855 -0.910031 -0.411268
16.4148 -16.4891 -4.24706 0.908318 -0.418126 -0.0113432
-13.2796 3.285 22.8445 0.403641 -0.528407 0.7469
-15.9872 22.596 -19.3926 -0.545124 0.496844 -0.675268
-3.56601 26.2057 13.2048 -0.197298 0.927136 0.318577
-12.1297 21.8412 -22.3493 -0.441338 0.395269 -0.805595
-1.72747 0.635136 -20.741 0.0566394 0.876427 -0.478191
-10.0556 3.11398 23.107 -0.520511 -0.534271 0.666051
20.1763 20.1091 -20.0912 0.652908 0.379707 -0.655388
15.3801 22.623 -18.8166 0.25873 0.810318 -0.525778
1.56277 -0.958756 9.55839 0.110758 0.463053 0.879383
8.38693 -1.1097 15.1532 -0.227284 -0.782025 -0.580326
-4.70411 1.59963 11.5968 -0.000221793 -0.980128 -0.198364
-12.4257 -0.717067 2.10387 -0.770357 0.428612 0.472062
13.2291 -9.07675 6.6733 0.751126 -0.00709171 0.660121
16.8716 15.5576 -23.0618 0.21444 -0.161519 -0.96329
6.93406 -16.6002 -19.7836 0.412514 -0.380856 -0.827515
-8.77953 6.85864 -19.2318 -0.17212 -0.849228 -0.499185
-10.7385 0.122605 -24.0584 -0.126673 0.99079 -0.0478391
-9.93122 -23.0104 -2.66407 -0.572294 -0.798899 0.185041
9.35981 22.5364 -22.6201 0.466141 0.44188 -0.766456
26.4079 9.50546 -7.34156 0.58723 -0.783795 -0.202054
12.8847 0.215175 26.0182 0.422601 -0.260803 0.86798
13.3397 19.8948 23.0391 0.520742 0.603958 0.603377
1.10088 -22.9543 -16.3752 0.0807244 -0.824687 -0.559799
10.4108 -17.2161 -17.0054 0.600526 -0.447476 -0.662671
-18.9633 3.58967 11.8084 -0.401979 -0.892722 0.203617
-6.81941 -13.8138 9.8956 -0.431759 -0.229241 0.872372
16.4683 -6.57423 20.2542 0.328709 -0.92333 0.198523
-1.57626 1.81658 11.1716 0.040666 -0.990763 -0.129363
-17.9582 26.205 -3.07309 0.0173882 0.973753 0.226942
13.2058 -11.1117 6.67276 0.719338 -0.0585855 0.692186
-1.32556 19.8902 -26.2178 -0.0545445 0.199939 -0.978289
-23.0716 23.159 -7.48417 -0.745233 0.649021 -0.152971
-9.27851 -13.2813 -23.4507 0.254847 -0.883161 -0.393801
1.67571 1.08716 8.96622 0.173495 -0.230873 0.957391
9.6666 -12.6942 -19.5231 0.56645 -0.163585 -0.807697
-19.8753 3.22433 -0.288357 -0.328195 -0.935408 -0.131526
-8.13262 1.67061 7.8624 -0.182956 -0.950747 0.250216
13.4969 2.61329 26.4049 0.425337 -0.191622 0.884517
16.5585 -5.80743 -10.4471 0.914903 0.241488 -0.323475
5.17296 -25.9322 -6.18228 0.135591 -0.898479 -0.417552
-10.0606 -22.9803 -9.89917 -0.672412 -0.735666 -0.0815946
-16.0739 -3.47999 -11.3051 -0.68807 0.721946 0.0731636
-14.8334 -1.96785 -14.8538 -0.460328 0.871006 0.171599
-22.489 6.82287 -9.24647 -0.564385 -0.746373 -0.352701
-26.1043 19.5074 -1.49562 -0.872127 0.488152 -0.0331897
-1.02121 -26.2218 -7.27058 -0.0480541 -0.994631 -0.0916497
26.0512 13.6352 -12.8267 0.821934 -0.214123 -0.527802
10.1886 20.4354 -23.0589 0.442916 0.235356 -0.86512
13.2777 -10.8133 -16.5972 0.7479 -0.113258 -0.654078
16.9533 3.36992 3.51483 -0.185292 -0.919595 -0.346427
16.5317 -13.7849 0.404437 0.925641 -0.227799 0.302153
-7.05566 -12.7779 -22.5467 0.441166 -0.760138 -0.477036
-16.6585 26.3521 -13.3848 -0.472098 0.851506 -0.228169
-19.9085 3.25506 18.0692 -0.215022 -0.976425 0.0189954
4.67796 1.59706 8.72439 0.425632 -0.625158 0.654228
-16.7641 -3.47647 -23.1719 -0.456746 -0.61326 -0.644434
8.20662 -1.93811 7.86471 0.446039 0.456992 0.76955
-10.0896 -3.0497 6.6717 -0.538607 0.452454 0.710766
27.6163 18.0998 -8.02843 0.882811 0.469475 -0.0154269
-1.43387 -23.6275 4.27939 -0.117345 -0.833597 0.539765
16.5159 -6.5754 19.205 0.17023 -0.975787 -0.137335
19.5433 3.5995 22.8145 0.676709 -0.102279 0.729111
-14.4669 3.13161 23.0554 0.0398926 -0.594706 0.802953
13.3604 0.3084 -10.4163 0.740589 0.619845 -0.259462
10.3065 26.3509 10.3078 0.318486 0.89146 0.322283
-25.7477 7.3153 4.09764 -0.870544 -0.423956 -0.24983
-4.69353 -0.498116 21.3777 -0.357031 -0.932952 0.0461448
-19.8208 3.20267 7.26974 -0.278788 -0.954299 0.107661
-1.81955 1.1649 9.08744 -0.138223 -0.471629 0.870896
15.8562 10.0979 -15.7952 0.446329 -0.792306 -0.415982
1.84465 12.4711 29.3412 0.014263 0.180662 0.983442
26.6494 12.01 -10.8229 0.776778 -0.395805 -0.489852
9.32093 -8.11495 9.57232 0.479808 0.109756 0.870482
-16.5691 23.061 13.3959 -0.337412 0.889569 0.307929
-2.48622 0.377982 25.8281 -0.335705 -0.68304 0.648659
14.4567 3.62305 4.30346 -0.223678 -0.914112 -0.338183
4.02868 10.5308 29.5244 0.103066 0.115993 0.987888
18.8862 -0.22285 9.47267 -0.168776 -0.819634 -0.547462
4.55923 0.54532 14.0627 -0.127303 -0.84218 -0.523953
-9.19246 -0.853843 5.85764 -0.580022 0.453914 0.676414
13.2601 -19.7324 -10.1609 0.757748 -0.606468 -0.240861
0.876191 5.46414 -16.9118 0.308085 -0.689601 -0.655389
13.4579 -16.9423 -13.6097 0.73961 -0.453521 -0.497289
10.2723 -2.64118 6.95838 0.536198 0.425002 0.729291
-4.96187 1.23865 8.38156 -0.2887 -0.620663 0.728993
14.9508 -0.870751 11.8954 -0.268944 -0.756474 -0.596168
26.4804 9.08294 -0.812178 0.871905 -0.364016 -0.327526
-16.8946 -2.6284 -23.4566 -0.74894 0.0614771 -0.659779
-18.194 -8.9832 -17.9704 -0.572011 0.752742 -0.325856
17.1464 23.3738 17.0511 0.380684 0.771156 0.510292
-16.4661 -13.4787 -7.19654 -0.96582 -0.227506 -0.124226
-19.4169 6.87717 22.7902 -0.58496 -0.189189 0.788689
26.5253 20.2688 5.02705 0.874585 0.480735 0.0632068
-23.0588 20.0408 -13.3671 -0.776881 0.372355 -0.507748
-9.4508 -19.1177 -15.9942 -0.594492 -0.466207 -0.655157
-17.1717 6.22096 -13.8286 -0.315148 -0.849792 -0.422533
18.0182 -4.21115 15.0515 -0.0578478 -0.810961 -0.582234
19.5555 12.1027 22.8205 0.575102 0.116734 0.80971
2.70291 -26.1405 -6.32517 0.0837562 -0.99577 -0.0377701
15.9706 -7.8676 2.47896 0.887216 0.121608 0.445039
-10.1816 0.156755 -18.0973 -0.286553 0.952427 -0.103774
-11.5553 -6.9255 -18.4939 -0.392217 0.401645 -0.827555
-13.541 -14.2301 3.89082 -0.791988 -0.276932 0.544118
-13.1487 16.5968 22.9312 -0.454101 0.366678 0.811997
8.12848 -2.86739 25.8703 -0.0208545 -0.609226 0.792723
4.97717 -1.75125 -20.8237 0.586512 0.524206 -0.617423
19.1302 25.8954 -8.87222 0.596599 0.746023 -0.295836
8.4287 1.50871 11.3812 -0.187174 -0.834502 -0.51824
-1.7284 -2.34851 10.218 -0.117208 0.370586 0.921373
22.7079 19.5165 16.1305 0.671481 0.533042 0.514762
12.8677 -6.57126 21.1625 -0.189411 -0.981537 -0.0266236
-1.29748 6.70039 -19.1214 0.0743728 -0.938383 -0.337499
-5.16529 -1.62377 8.90373 -0.351836 0.431112 0.830875
2.70741 -22.7963 -16.1774 0.188831 -0.831119 -0.523053
-17.0054 -13.4773 -23.9632 -0.703018 -0.603939 -0.37553
7.22471 -20.0008 6.90081 0.346615 -0.645842 0.680255
23.5112 -0.861634 14.6302 0.847819 -0.524632 0.0772314
-13.5373 -5.44616 4.14715 -0.800429 0.233123 0.552239
1.67471 1.83438 11.6499 0.0512187 -0.966616 -0.251057
-5.12687 0.220123 -24.0687 0.0923783 0.983965 -0.152576
-26.088 16.1932 6.205 -0.918881 0.299817 0.256452
19.0914 10.0032 -12.6406 0.408565 -0.801214 -0.437185
-12.0305 -7.97465 -21.9014 -0.340535 0.92322 -0.178048
-23.2479 23.4276 -4.6446 -0.720579 0.690799 -0.0596894
-16.1985 -12.3785 -9.27766 -0.932192 -0.196495 -0.303988
13.5465 -2.78804 3.68011 0.753412 0.402931 0.519632
-9.36422 -22.5507 -12.1839 -0.561635 -0.739015 -0.372052
25.8247 9.98169 -9.47872 0.423992 -0.806942 -0.411187
3.93504 -2.45809 -23.8938 0.696121 0.400103 -0.596098
22.5601 1.13226 19.1053 0.794857 -0.273323 0.541753
-1.57346 15.7123 -26.2711 -0.0381476 -0.149953 -0.987957
10.4176 16.9523 26.4024 0.325257 0.382862 0.864653
-10.6806 0.129658 -21.5648 -0.130452 0.990482 0.0438964
16.1465 -3.90507 -0.92391 0.885387 0.3782 0.270286
-6.78014 -5.92572 9.90625 -0.411595 0.208031 0.887307
-26.5425 13.6814 13.9602 -0.798213 0.514009 0.314088
8.42175 19.0501 25.7121 0.23562 0.619443 0.748848
-5.97455 -8.87434 -29.5306 0.254963 0.0192743 -0.966759
21.8088 -1.68845 18.4533 0.793293 -0.399684 0.459281
26.3175 20.1007 -0.67125 0.905105 0.370929 -0.207836
13.9123 0.709335 -5.07741 0.781877 0.623425 -0.00296678
-15.1933 3.71169 -8.49132 -0.327586 -0.907872 -0.26164
-13.3952 15.7552 -23.0253 -0.505976 -0.0939472 -0.857416
15.5381 4.72649 25.6585 0.48672 -0.117977 0.865555
-25.7203 18.4922 -8.68914 -0.893646 0.367313 -0.257833
8.29244 -4.18177 24.5848 -0.151408 -0.766444 0.624211
7.07112 -2.72253 -19.9969 0.446202 0.358176 -0.820131
-19.8725 10.5574 23.0643 -0.557192 0.127101 0.820599
25.8883 19.0549 -4.84087 0.782096 0.61359 0.108783
-14.2322 -13.5559 -26.907 -0.492422 -0.473594 -0.730225
-8.31262 -5.10314 8.80632 -0.509075 0.22893 0.829719
13.8871 5.20568 26.5997 0.434765 -0.078338 0.89713
-12.3098 3.87488 -11.9152 -0.52319 -0.685936 -0.50573
10.4026 14.9577 -23.1497 0.407862 -0.167531 -0.897542
-12.371 -18.7558 -12.7056 -0.764016 -0.434537 -0.476924
-10.2043 -16.9269 -16.7629 -0.639597 -0.410313 -0.650046
2.07446 -0.591096 26.7315 -0.216223 -0.630585 0.745392
-5.88036 0.148286 17.3303 -0.182575 -0.967227 -0.17646
5.32756 25.5709 -22.4471 0.260188 0.636264 -0.726271
14.4099 0.373492 10.4647 -0.267276 -0.806213 -0.52781
1.48708 -1.35244 18.1806 -0.173207 -0.88463 -0.43293
26.3946 20.0422 7.42567 0.846381 0.513411 0.141595
4.01946 -3.00821 20.3739 -0.271133 -0.885647 -0.376984
23.4254 17.7838 -17.0962 0.787199 0.0992065 -0.608668
-19.4148 3.33102 9.27375 -0.35521 -0.928744 0.106112
-1.71287 0.494411 14.9255 -0.0234914 -0.907262 -0.419909
-19.3041 19.15 15.9429 -0.678512 0.480128 0.555966
-15.9776 19.1352 19.2628 -0.558842 0.504083 0.658481
-3.8621 -2.80316 9.99913 -0.276081 0.331754 0.902064
-1.43044 22.9953 19.9429 -0.101493 0.961504 0.255361
-22.4834 22.6036 5.80588 -0.638341 0.720522 0.270869
-11.5877 -5.94831 -18.8806 -0.182852 -0.719757 -0.669712
18.025 23.0433 -16.9797 0.105837 0.969541 -0.220884
2.7439 26.0135 -22.7645 0.159379 0.651472 -0.741743
-7.13824 5.522 26.511 -0.496442 -0.321852 0.806199
11.4876 1.59044 1.69492 0.707402 0.622221 0.335296
10.4645 -3.04778 16.7126 -0.298462 -0.773102 -0.559673
-13.3382 17.358 -23.0469 -0.436974 0.0651386 -0.897113
19.7362 8.12528 23.0273 0.604812 -0.00803631 0.796328
7.01795 -23.1278 3.57764 0.348834 -0.730179 0.587497
23.06 5.46064 19.8158 0.760544 -0.100713 0.641428
-2.30763 8.06461 29.21 -0.228874 -0.0914222 0.969154
-1.73329 5.46695 -17.3573 0.128739 -0.745668 -0.653762
8.00936 26.6578 11.051 0.19542 0.922257 0.333546
16.8739 16.8185 23.2138 0.478897 0.430463 0.765088
11.9693 2.14059 -1.40617 0.701777 0.694721 0.157706
-0.07226 -19.7167 -19.6635 0.224075 -0.523972 -0.821732
20.167 26.4052 4.50372 0.364668 0.923286 0.120666
1.27048 9.52602 -23.1103 0.121407 -0.701386 -0.702366
7.61903 0.82477 -17.1202 0.472122 0.601322 -0.644603
12.3332 10.2222 -18.9779 0.354824 -0.780451 -0.514778
-11.4158 5.009 -14.6377 -0.284309 -0.817091 -0.501529
-1.07824 -8.82764 -22.5108 0.18617 -0.282574 -0.941006
-12.2933 1.0666 1.93137 -0.773964 -0.436667 0.458586
-14.7243 -4.73421 -21.4697 -0.0133764 -0.931737 -0.362888
-3.72019 17.5994 -26.216 -0.149451 0.0271684 -0.988396
-11.8988 3.72897 22.5698 0.00797829 -0.477034 0.878849
11.6027 -18.1555 5.06043 0.627674 -0.523581 0.576098
5.8428 5.76632 -12.4349 0.597991 -0.331153 -0.729893
20.7981 12.276 -17.7912 0.432346 -0.765785 -0.476078
22.5056 22.4535 -8.78579 0.677138 0.692361 -0.249239
16.5001 -6.06353 0.5385 0.914955 0.224242 0.335519
22.4335 22.5411 12.42 0.618663 0.703406 0.349965
0.74366 -26.0371 -0.56002 -0.166505 -0.964994 0.202639
16.0716 -8.19598 -12.523 0.898055 0.0626955 -0.435393
8.38434 -4.64222 9.08309 0.450172 0.329574 0.829895
-24.3474 8.25238 17.9302 -0.802088 -0.282369 0.526234
-17.258 -9.4822 -20.3565 -0.466538 0.789776 -0.398241
-17.8312 8.30151 24.0831 -0.408131 -0.190988 0.892722
-11.0518 23.0453 16.7521 -0.127413 0.956618 0.262008
-23.1843 6.35298 -7.06112 -0.661943 -0.680234 -0.314822
12.5636 25.9069 9.02785 0.39814 0.871513 0.286268
-7.71438 20.235 23.5142 -0.328641 0.61458 0.717137
-14.9923 -8.97146 -21.5048 -0.345661 0.869765 -0.352175
-14.0017 14.3072 23.3005 -0.495737 0.300996 0.814645
24.4298 9.09848 -8.02289 0.181156 -0.919835 -0.347974
7.749 26.6609 -20.2955 0.333611 0.710703 -0.619358
16.7561 -8.31854 0.801589 0.93006 0.111519 0.350074
-17.2977 5.24586 23.384 -0.417519 -0.316183 0.851884
-0.276922 -0.211183 26.2665 -0.278399 -0.693294 0.664709
-13.9329 -2.25067 1.18271 -0.795719 0.472911 0.3784
7.20185 23.353 -23.2667 0.372952 0.490372 -0.787682
-16.218 -7.94385 -0.553629 -0.963844 0.0861034 0.252171
17.058 9.49341 -13.6704 0.443136 -0.774295 -0.451772
1.76163 23.0214 20.196 -0.0416024 0.97051 0.237442
-18.062 2.70398 1.70088 -0.185606 -0.981258 -0.0517994
12.4335 -4.3641 5.99662 0.664591 0.344123 0.663248
14.4078 26.2509 6.9385 0.11278 0.956782 0.268047
-4.80426 -5.16087 10.4215 -0.294761 0.242515 0.924285
5.15993 -3.68385 23.9752 -0.31894 -0.889599 0.326941
-8.25083 0.233709 -24.5972 -0.0139624 0.990642 -0.135768
0.780739 15.8085 -26.2349 0.0606308 -0.15815 -0.985552
10.4831 17.956 -23.2697 0.446771 0.0519951 -0.893136
12.6624 -19.2161 2.71241 0.689525 -0.560231 0.459016
8.55598 -3.7158 18.6733 -0.319677 -0.788696 -0.525133
17.6235 -2.96368 13.4761 -0.165109 -0.771359 -0.614609
-24.2479 21.3734 -8.15491 -0.806805 0.553114 -0.20768
-7.8567 -4.11648 -24.2097 -0.156744 -0.831148 -0.533501
9.5064 -19.3282 -15.9798 0.537393 -0.596 -0.596651
-18.8169 25.6218 -11.6414 -0.512809 0.813564 -0.274117
-6.08636 -4.87172 -22.5544 -0.650353 0.00269905 -0.759628
-13.7543 1.97353 -7.93358 -0.91898 -0.260549 -0.295955
-10.8239 1.32399 -14.2883 -0.675262 0.543516 -0.49861
2.00629 -0.344591 -21.8314 0.288084 0.94763 -0.137857
6.92614 -26.4497 0.222 0.365108 -0.587191 0.722428
2.61804 18.1005 -26.0611 0.173761 0.0337827 -0.984208
-6.69348 -6.41093 -26.3962 -0.472374 0.850173 -0.232526
-10.591 -9.31507 -27.0897 -0.516818 0.737571 -0.434612
-4.15895 -23.2679 3.87898 -0.250009 -0.82307 0.509952
9.1746 -22.4891 2.72995 0.499422 -0.679173 0.537868
6.04155 8.29627 29.3226 0.172991 -0.00230414 0.984921
0.988998 -15.0597 -21.5193 -0.00269517 -0.29493 -0.955515
-19.7969 -6.23284 -11.2528 -0.8298 0.545812 -0.116279
-4.31637 -17.1749 -19.9886 -0.263185 -0.395828 -0.879803
-26.5992 8.93623 1.52084 -0.924962 -0.377748 0.041856
23.7373 9.77315 -9.99587 0.0180943 -0.92523 -0.378976
-17.5081 -5.15008 -8.0406 -0.731585 0.622104 0.278872
-17.4493 -2.21512 -21.533 -0.715937 0.679372 -0.160898
23.8852 20.961 -14.5408 0.726556 0.559863 -0.398334
-17.4402 2.89452 11.3901 -0.328057 -0.936199 0.126133
-14.5535 2.58726 17.8242 -0.286019 -0.957806 -0.0283193
22.4757 15.5641 19.221 0.709519 0.28281 0.645447
1.723 28.2952 -11.5363 -0.0634787 0.979253 0.192442
-12.1062 -4.72124 5.56117 -0.702904 0.268869 0.65851
16.1096 -15.7685 -8.92815 0.897478 -0.372014 -0.236938
-20.3857 23.3364 7.76235 -0.441337 0.844969 0.302075
18.0161 22.59 -18.4227 0.102608 0.933972 -0.342298
-12.611 -11.5282 5.94521 -0.737858 -0.114024 0.665255
-18.0772 2.97879 18.3507 -0.14048 -0.979252 -0.14605
-26.321 17.0661 4.1423 -0.92192 0.327763 0.206481
25.8326 11.6786 15.7809 0.886045 0.0570828 0.460072
15.7429 -6.63234 19.4494 0.00204467 -0.959412 -0.282001
-21.0966 3.93227 11.3019 -0.0544075 -0.998382 0.0165175
18.0592 11.5211 -18.0171 0.214011 -0.93103 -0.295605
11.2058 26.9951 -17.3885 0.416128 0.770542 -0.482807
-2.52105 19.3463 25.9572 -0.179412 0.527042 0.830685
10.6699 -20.2028 4.06491 0.584616 -0.611313 0.533405
20.5239 17.8614 -20.492 0.712604 0.111678 -0.69262
25.7002 18.7154 12.0355 0.815999 0.451493 0.36097
-26.747 14.7677 4.87871 -0.962459 0.187912 0.19586
-14.602 -1.26288 -18.0009 -0.34592 0.929066 0.13106
7.90585 0.185778 13.5809 -0.176525 -0.786921 -0.591265
26.3037 6.25726 2.65017 0.810707 -0.513039 -0.282036
-26.666 8.5532 14.09 -0.853473 -0.254334 0.454861
-0.752476 -26.2433 -2.80511 -0.103261 -0.990185 0.0941859
-13.6524 26.4861 -16.7493 -0.376414 0.81762 -0.435672
-6.14112 -10.1773 -27.654 0.5991 -0.783721 -0.163894
10.7587 5.73936 -7.63762 0.489332 -0.815494 -0.309069
-12.1683 1.89219 -11.4107 -0.86259 0.177519 -0.473736
-11.2796 2.00183 8.3894 -0.0417537 -0.99899 -0.0166248
26.4614 9.49395 -6.17627 0.737343 -0.667615 0.103034
-14.6007 -18.1223 -7.5049 -0.867414 -0.489023 -0.0919243
-5.04834 -11.4432 10.932 -0.323397 -0.0785134 0.943001
20.7628 9.44397 -10.3802 0.330972 -0.823447 -0.460861
-16.5019 -13.5275 -5.18263 -0.965972 -0.257956 0.0188988
-15.9318 -4.89154 -1.35983 -0.942173 0.238836 0.23509
-14.7582 25.8333 -1.57945 -0.155879 0.982404 0.102882
8.20619 28.1617 -8.18874 -0.0171392 0.993095 0.116056
5.11258 -3.79246 21.6109 -0.33641 -0.919669 -0.202577
-7.3305 -23.3752 1.01038 -0.442138 -0.823729 0.354944
15.3537 11.5308 25.6041 0.48753 0.154003 0.859417
4.96165 -27.9951 -1.29939 -0.297176 -0.804032 0.514994
23.7175 23.8114 5.08292 0.697055 0.708844 0.107956
25.939 10.4853 -3.88257 0.943009 -0.330621 0.0377436
-4.85831 11.4629 -24.5044 -0.120025 -0.480505 -0.86874
-13.8681 -9.45558 -23.6512 -0.390456 0.824776 -0.40901
-23.9895 5.58252 -1.52459 -0.64393 -0.753707 -0.131455
-16.8347 20.3856 -19.9959 -0.592468 0.318604 -0.739914
8.08785 -2.64135 17.3808 -0.289553 -0.773851 -0.563305
18.3622 -1.81775 22.1042 0.570867 -0.304034 0.762676
8.24675 28.2244 4.83459 0.167595 0.973306 0.156804
-11.5669 1.51096 14.7395 -0.213668 -0.976097 -0.0397525
-26.5062 11.9425 -7.57422 -0.92653 -0.243087 -0.287143
8.22201 1.59146 27.9672 0.201001 -0.267348 0.942403
-13.201 -19.8229 -2.45071 -0.77184 -0.607554 0.187462
-14.1451 -18.1181 -1.72662 -0.834704 -0.505845 0.217692
7.70219 5.44489 -10.8983 0.732446 -0.154638 -0.663031
-9.90278 11.3654 26.2056 -0.526756 -0.0362243 0.849244
15.9764 -11.5212 -12.3575 0.89342 -0.149468 -0.423628
1.72206 -22.4524 6.0178 0.0709188 -0.745589 0.662621
17.9422 27.4269 -4.77227 0.349486 0.933565 -0.079475
-7.97751 1.0285 -17.8345 -0.355986 0.8401 -0.409275
-25.5991 7.34047 -1.64193 -0.805469 -0.582792 -0.10758
10.6755 -2.43539 -17.218 0.615207 0.434172 -0.658039
8.19337 -8.12404 -20.6926 0.447377 0.0579093 -0.892468
-9.04833 -18.8005 5.80902 -0.533823 -0.552048 0.640527
-1.61503 -4.98393 11.0754 -0.124457 0.234051 0.964225
28.217 14.8293 -8.11778 0.984516 -0.0906726 -0.150023
11.5424 7.04916 -11.4592 0.103427 -0.975763 -0.192844
-14.8248 -0.83662 -21.507 -0.310717 0.947734 0.0724879
11.5027 0.955816 10.9915 -0.242164 -0.811149 -0.532348
-2.32323 -19.3096 -19.4663 -0.171242 -0.485272 -0.85743
-5.22465 18.1651 -25.8819 -0.215375 0.0759651 -0.973572
-18.1445 24.6917 -14.8006 -0.551674 0.72284 -0.416124
-1.51303 -20.8139 7.5831 -0.119021 -0.666523 0.735922
-17.1292 -8.31588 -4.94851 -0.973511 0.00945268 0.228445
-18.1043 25.2647 1.67366 -0.0163388 0.981046 0.193084
-12.3601 -15.0924 -15.3248 -0.764453 -0.339187 -0.548237
-1.33992 4.95928 -16.0348 0.183072 -0.157165 -0.970455
26.6211 11.5362 14.1221 0.925959 0.0390766 0.375597
4.61924 22.7283 21.9471 -0.0251333 0.974998 0.220789
19.729 5.96155 22.962 0.583971 -0.0641405 0.809236
18.2234 14.5964 -22.0014 0.476238 -0.369822 -0.797765
-4.00354 -0.29578 23.752 -0.383872 -0.852362 0.355136
-17.1242 -13.2876 -21.8585 -0.105027 -0.946517 0.305081
-4.83393 27.2336 -20.8879 -0.191455 0.823254 -0.534413
12.0754 2.18999 -8.43539 0.628468 0.757165 -0.178125
24.5035 21.1907 -8.17547 0.548404 0.827166 0.122678
-5.07493 -21.8312 5.34793 -0.314333 -0.727375 0.610017
1.63101 -8.42146 11.8016 0.0449099 0.0814075 0.995669
14.6196 20.9422 -21.1159 0.00373851 0.644097 -0.764935
-1.86704 14.1023 -25.8934 -0.0365123 -0.277116 -0.960142
23.618 1.81567 17.6774 0.844483 -0.27197 0.46139
13.4893 -17.0069 3.8506 0.74263 -0.437277 0.507237
-8.07002 -23.8451 -1.75182 -0.45951 -0.860209 0.221113
8.72867 -14.9905 9.20743 0.470072 -0.303941 0.828645
7.60311 12.2048 -23.3614 0.317823 -0.482182 -0.816388
11.507 1.67882 26.9988 0.355747 -0.235355 0.904462
27.3554 8.16257 11.4722 0.963545 -0.145459 0.22455
21.2969 2.22896 4.92792 0.0467399 -0.890632 -0.452317
12.8471 -0.46315 -12.8058 0.724477 0.545696 -0.421127
-9.19572 15.4583 25.78 -0.424127 0.372204 0.825579
15.6682 8.33537 25.7545 0.495533 0.0369555 0.867802
-14.7826 2.19806 8.42097 -0.114148 -0.993462 0.00159151
23.8481 24.0064 1.68322 0.727457 0.68611 0.00773663
-22.3354 18.6871 12.2011 -0.762933 0.419272 0.492081
-5.00427 27.5479 8.08099 -0.145669 0.963071 0.226438
-11.2694 8.09146 24.8758 -0.45055 -0.232106 0.86205
11.2547 23.2239 20.3869 0.11893 0.894323 0.431326
-23.7313 8.96457 -10.7628 -0.720994 -0.53834 -0.436299
-7.95653 -2.02683 7.60541 -0.507056 0.430163 0.746897
27.1729 14.7588 11.5066 0.939739 0.181269 0.289882
-5.19571 -18.5608 -18.9729 -0.329469 -0.459139 -0.82501
-14.6367 -5.89457 -18.4497 -0.0678294 -0.888232 -0.454361
12.0677 25.3568 -18.7604 0.47095 0.629033 -0.618485
-17.9557 4.38848 -8.08911 -0.268646 -0.930153 -0.250289
-11.8049 -13.5063 -27.2402 0.236619 -0.947483 -0.215144
-17.1919 -2.97883 -15.5718 -0.494656 0.827341 0.266123
13.3537 -19.8909 0.543611 0.732865 -0.602134 0.31677
-1.65212 25.5269 15.0248 -0.082075 0.885019 0.458263
23.1527 8.10359 19.9105 0.75146 -0.00286132 0.659773
13.7874 -20.5021 -4.80588 0.756291 -0.653632 -0.0280923
27.6249 14.6041 -4.78656 0.908767 -0.16639 0.382698
15.1673 -3.96328 15.5353 -0.244134 -0.744958 -0.620835
-10.964 20.7181 -23.4363 -0.405507 0.32841 -0.85306
21.1441 24.3738 -8.00678 0.682169 0.659752 -0.315235
-26.7716 17.8408 -4.83466 -0.924752 0.363793 -0.111751
-0.77995 10.6273 29.5157 -0.0920359 0.0894638 0.991729
16.179 -3.60642 -9.13334 0.877145 0.417603 -0.237115
-7.96938 0.38292 -21.2596 -0.0721419 0.996716 -0.0367848
-12.9139 -19.4107 -0.5373 -0.763977 -0.585551 0.271053
8.14715 17.9146 -24.3732 0.399572 0.0259353 -0.916335
-8.50296 1.64213 11.2572 -0.0277209 -0.986701 -0.160167
-1.43677 2.27749 -18.5228 -0.0291431 0.758625 -0.650875
-12.6122 25.948 5.40109 -0.404484 0.898527 0.170417
13.3256 -8.25069 -16.662 0.746669 0.0468192 -0.663546
-8.0973 26.6573 -20.3564 -0.287328 0.783714 -0.550668
11.6733 3.94813 4.86452 -0.103151 -0.950589 -0.292814
-24.8973 15.5105 11.4221 -0.61078 0.777921 0.147604
-11.7367 7.17113 -18.6214 -0.233262 -0.815014 -0.530415
-7.42365 26.3665 10.6162 -0.22892 0.926243 0.299448
24.0257 12.0531 -14.241 0.579516 -0.616117 -0.533442
8.54342 6.782 -11.7503 0.164419 -0.963676 -0.210464
-13.6761 -17.2323 1.11958 -0.799145 -0.475102 0.368301
1.14941 18.0062 -26.2976 0.111007 0.0233022 -0.993546
14.7033 -5.49978 17.7658 -0.222092 -0.808025 -0.545684
26.0202 10.1667 -2.95375 0.838352 -0.473842 -0.269518
11.285 14.5668 26.8643 0.348333 0.252884 0.902615
14.2422 -17.9519 1.43272 0.783108 -0.498011 0.372462
-22.3436 22.2342 -11.9037 -0.752259 0.56488 -0.339142
-16.5083 -6.12784 -2.74535 -0.969649 0.167766 0.177865
4.67431 -17.4933 -20.1078 0.253077 -0.424272 -0.869451
1.91067 -25.9411 -8.48815 0.0981617 -0.974586 -0.201362
-14.5365 2.06674 -4.93949 -0.791576 -0.58899 -0.162782
-13.4276 -20.0368 -5.14632 -0.787209 -0.613107 0.0663424
-11.2743 8.68723 -20.6807 -0.273979 -0.677973 -0.682121
14.7022 27.4469 -1.64732 -0.139655 0.969389 0.201945
14.8723 4.40407 1.58454 -0.158129 -0.950537 -0.267347
9.24749 -19.3218 6.22254 0.483721 -0.569499 0.664594
-15.2908 14.9846 22.1507 -0.495748 0.391632 0.77515
-13.8839 23.6451 -20.1597 -0.484707 0.564869 -0.667819
-20.0926 23.4238 -14.1763 -0.646244 0.629353 -0.431605
11.8375 14.4425 -22.4796 0.151851 -0.213917 -0.964977
-13.3594 -20.1028 -7.54014 -0.790909 -0.609184 -0.0579419
8.7851 25.8907 12.4536 0.234181 0.880254 0.412688
-14.1143 26.0567 -3.80683 0.120386 0.974753 0.188053
27.4688 17.8204 4.8429 0.963756 0.266733 0.00526421
-20.641 17.7807 -17.4882 -0.710232 0.184922 -0.679245
-26.6952 14.711 -8.08003 -0.954207 0.00814631 -0.299038
-5.03622 8.24363 28.3275 -0.388474 -0.154489 0.908417
4.95933 -14.7363 -21.3648 0.259916 -0.32939 -0.907715
-27.0106 11.4051 -4.90838 -0.945776 -0.267652 -0.184039
4.93254 29.0062 1.682 0.0602137 0.993881 0.0925977
11.4082 4.49061 1.45437 0.379829 -0.916274 -0.12717
-22.2343 18.1575 -15.5425 -0.766512 0.234171 -0.598016
20.3949 14.9335 -20.4044 0.690732 -0.246094 -0.679946
15.4976 25.3723 -15.5655 0.558658 0.661096 -0.500852
11.5336 -4.59411 24.2734 0.11675 -0.618955 0.776701
-16.6179 -8.44571 -2.09596 -0.978385 0.032844 0.204165
-5.28319 1.35194 24.968 -0.444669 -0.647553 0.618825
5.06343 1.54565 28.3084 0.0212707 -0.356549 0.934034
8.3183 27.8795 -18.0179 0.295946 0.857169 -0.421518
-11.5307 1.75753 11.4338 -0.0879099 -0.992152 -0.0889194
26.6565 4.98088 11.4264 0.945555 -0.289337 0.149027
-8.27157 17.9883 24.871 -0.368869 0.499911 0.783597
12.0963 -0.363925 12.6104 -0.257558 -0.765647 -0.589448
4.88476 28.9665 -4.98335 0.100395 0.988902 -0.109514
8.30802 22.5112 22.3776 0.12448 0.84143 0.525833
3.89748 -2.86623 10.1296 0.198609 0.335256 0.920955
14.927 6.42489 -7.30488 0.0823749 -0.96907 -0.232631
25.3125 4.03125 4.5228 0.672688 -0.658904 -0.336655
8.42705 1.84715 -15.2246 0.484935 0.695007 -0.530851
1.64026 14.8943 28.7566 -0.000884037 0.307459 0.951561
-6.96199 9.67972 -22.9879 -0.187469 -0.598193 -0.779116
-15.7677 25.8777 -15.6568 -0.450355 0.793265 -0.409769
-17.9053 -10.4937 -14.8087 -0.360858 -0.895254 0.261345
-23.4805 20.5254 7.87512 -0.761164 0.563096 0.321795
-14.838 2.41341 14.7668 -0.334657 -0.935191 0.115857
11.5959 -4.4462 17.9289 -0.307928 -0.76808 -0.561457
-8.22263 -2.37458 -25.7251 0.0335923 -0.749524 -0.661124
-10.5096 -5.18986 7.26701 -0.621676 0.244041 0.744287
-21.7708 22.0726 8.42609 -0.626175 0.704528 0.333985
4.71279 -2.65553 25.4498 -0.203416 -0.751887 0.627126
-18.8875 22.3662 12.2321 -0.492274 0.774082 0.398075
-24.7035 18.0352 8.25504 -0.862827 0.377739 0.33592
-1.19016 -22.9686 -16.4898 -0.064759 -0.772392 -0.631837
1.72777 2.11081 -18.4787 0.139034 0.742199 -0.655599
5.33568 -1.69698 9.0359 0.308807 0.433138 0.846776
-14.4775 23.2435 14.2571 -0.139133 0.964533 0.224319
-23.6094 20.8113 -11.2419 -0.796099 0.502906 -0.336618
-13.2742 0.305 -10.4594 -0.769615 0.594894 -0.231935
15.8697 22.5354 19.1285 0.395053 0.704703 0.589345
1.57415 29.1069 1.66405 -0.00730265 0.994859 0.101009
8.8458 -22.394 -11.9225 0.472424 -0.797567 -0.375102
26.6892 5.63123 5.09015 0.855355 -0.46885 -0.220334
14.4854 -11.4051 4.99852 0.807028 -0.0729691 0.585988
-25.7112 10.7869 -8.74151 -0.875648 -0.338213 -0.344748
-7.20993 -20.2788 -16.8451 -0.443985 -0.54962 -0.707669
-23.3649 23.3652 -1.8432 -0.72082 0.692871 0.0186674
-11.698 -1.70527 -25.3479 -0.337766 -0.0617197 -0.939204
-21.4182 11.6937 21.5204 -0.615186 0.254512 0.74617
-11.3886 17.9529 -23.8992 -0.401601 0.115459 -0.908508
-16.3762 -13.3763 -2.98993 -0.947593 -0.266068 0.176847
-17.2546 -11.041 -8.18529 -0.813283 -0.581776 0.0103673
-20.0562 -8.27235 -11.092 -0.961541 -0.135987 -0.238636
18.1466 26.2639 6.99784 -0.00892831 0.979991 0.198843
17.0214 26.6558 -10.9549 0.539308 0.791608 -0.287235
20.4693 -1.36666 20.46 0.693555 -0.30507 0.652621
-2.81764 -7.25041 -27.0432 0.744165 -0.569684 -0.348823
15.9566 -11.6088 2.62527 0.886977 -0.10417 0.449913
-5.43818 25.7547 -22.5109 -0.22792 0.682157 -0.694776
-26.8558 5.64557 8.1419 -0.766014 -0.629512 -0.130142
14.8734 -1.59546 24.442 0.459527 -0.292024 0.838783
-8.25728 0.974102 21.4568 -0.398605 -0.87731 0.267287
8.13841 28.8864 -14.6818 0.148622 0.982769 -0.109893
-1.24574 26.3217 13.4528 -0.0582261 0.920988 0.385215
-27.646 8.14053 11.5034 -0.908834 -0.285954 0.30373
-4.02106 -9.16796 -24.9538 0.618138 -0.716322 -0.323711
-16.539 -11.288 -2.18149 -0.979098 -0.10398 0.174798
-16.974 12.1938 -19.9659 -0.532416 -0.328538 -0.780126
-5.02559 2.0086 -18.0775 -0.251379 0.742844 -0.620477
1.63551 -17.9015 -20.4164 0.0651518 -0.400708 -0.913886
-14.5414 26.966 -14.4373 -0.370118 0.88269 -0.289605
-26.8562 11.401 14.5472 -0.900299 0.0341677 0.433928
11.4367 28.0643 -14.7572 0.304475 0.911523 -0.276442
25.5458 14.8821 15.2882 0.849491 0.210221 0.483913
17.3657 20.3803 20.3268 0.459574 0.611275 0.64431
10.462 -16.9547 7.12484 0.568538 -0.45714 0.68395
-2.17104 -5.53609 -26.7617 0.517298 0.30765 -0.798595
12.6551 15.7817 25.9427 0.409305 0.301096 0.861284
21.4444 8.20487 21.5881 0.672801 -0.00278155 0.739818
-4.72245 -23.6328 -14.4412 -0.248551 -0.830292 -0.498836
16.7101 -11.3209 -10.761 0.926549 -0.126918 -0.354116
-11.1613 2.25289 21.3024 -0.272737 -0.842084 0.465305
12.6344 -15.2329 6.05776 0.697291 -0.303148 0.649528
2.79912 -26.2808 0.258591 -0.271553 -0.893718 0.357108
-20.4021 6.14889 -10.6602 -0.451204 -0.808025 -0.378829
-12.1077 -15.0617 5.27676 -0.707447 -0.338749 0.620297
-21.4336 3.72694 14.7931 -0.0735864 -0.996326 -0.0438096
14.7361 21.1363 21.2122 0.375723 0.63037 0.679313
1.68507 28.0343 8.16912 -0.00750274 0.972866 0.231247
13.6484 -20.3695 -1.67322 0.759929 -0.627257 0.170459
-1.69422 -11.5239 11.7222 -0.133288 -0.0657728 0.988892
12.6706 -15.4041 -15.7513 0.72167 -0.322742 -0.612396
-1.53874 -8.24074 11.6824 -0.122899 0.0933038 0.988023
8.24175 23.7111 18.0284 -0.0437968 0.979736 0.195446
-5.60437 -1.56489 -26.555 0.290899 -0.0899109 -0.95252
26.8052 11.6498 -4.90113 0.883718 -0.256722 0.391328
-4.79182 17.3129 26.7575 -0.271749 0.522599 0.808111
-11.413 27.9431 -14.5608 -0.227581 0.960597 -0.159561
-23.4854 5.63645 17.3266 -0.71506 -0.517729 0.469729
5.20896 -18.399 8.98989 0.247086 -0.552281 0.7962
-15.431 -8.09542 1.69841 -0.91316 0.0884548 0.397888
1.64685 8.14476 29.6952 -0.0164827 -0.0370814 0.999176
-13.8995 -11.3844 4.36275 -0.811122 -0.11737 0.572979
13.6113 0.614926 -1.76607 0.768458 0.616169 0.172651
18.4223 25.1101 -11.7512 0.636417 0.678245 -0.367363
4.91665 14.8518 28.5156 0.140249 0.286037 0.947899
23.402 23.3927 -4.53938 0.765207 0.584974 -0.268818
-18.1735 3.67714 14.6088 -0.263487 -0.964551 0.0146771
-20.1194 20.5574 -16.9079 -0.684867 0.380982 -0.621135
-18.9303 -8.04153 -12.4177 -0.589339 -0.150405 -0.793761
-23.2429 11.1489 20.0144 -0.729167 0.0898092 0.678417
21.3377 0.653578 7.7998 0.0423832 -0.85534 -0.51633
4.94478 28.5972 4.88177 0.0552108 0.98483 0.164504
-24.6416 21.3319 1.66989 -0.801064 0.583433 0.133801
10.861 -0.874651 26.4839 0.281913 -0.325771 0.90244
-4.69816 -5.87892 -27.2936 -0.268871 0.804728 -0.529264
1.80224 -26.4785 -1.90632 -0.280587 -0.955021 0.0959447
-1.57482 -17.2451 10.2397 -0.14873 -0.483793 0.862452
-11.0205 -17.8739 4.56091 -0.668616 -0.494699 0.55518
-2.07921 -7.76806 -24.298 0.635395 -0.662425 -0.396821
14.5867 24.6303 14.715 -0.0458067 0.977814 0.204407
-8.18995 0.609535 18.0416 -0.258954 -0.965461 -0.028788
4.99116 -8.18759 11.2792 0.245181 0.123768 0.961544
-5.73204 25.9777 12.6976 -0.205153 0.899633 0.385451
-9.27879 7.51577 25.8938 -0.505635 -0.238692 0.829072
4.94454 -27.3301 -4.84161 -0.309221 -0.656235 -0.688287
-5.01725 11.4573 28.4709 -0.315164 0.0743639 0.946119
-4.87157 5.87037 -17.8697 0.0151184 -0.892528 -0.450739
5.21712 4.74571 29.1615 0.113876 -0.17225 0.978449
12.7033 -19.0407 -12.4199 0.697422 -0.586775 -0.411458
-4.60544 9.48259 -23.1975 -0.0969021 -0.654684 -0.749665
-23.2098 8.78438 19.8767 -0.760641 -0.172038 0.625961
5.41015 6.80823 -14.965 0.179501 -0.967922 -0.175805
16.7389 -11.4891 0.869645 0.936103 -0.0924759 0.339353
-25.9111 19.1331 2.23218 -0.896016 0.418798 0.147527
11.7403 1.46302 -11.3589 0.645605 0.691313 -0.32447
-21.1995 5.60123 -8.18932 -0.438618 -0.843547 -0.309908
-11.3395 24.6134 11.4234 -0.382781 0.854404 0.351388
11.6474 -1.80665 14.5742 -0.28222 -0.736698 -0.614514
20.2473 23.3898 14.0072 0.503003 0.748243 0.432573
8.47485 -1.6148 -18.4045 0.518082 0.470042 -0.714599
-3.8232 -16.7147 10.0223 -0.30496 -0.409185 0.859981
20.4959 -3.88832 15.0409 0.380438 -0.84172 -0.383112
-24.8 21.5416 -1.66601 -0.809752 0.586422 0.0202718
23.9988 2.60726 5.37253 0.410268 -0.806269 -0.426157
4.84925 28.3441 -8.17149 0.0987974 0.970907 -0.218125
-5.5871 22.8244 19.389 -0.0601627 0.960586 0.271396
11.543 21.3962 -21.889 0.467919 0.358441 -0.807819
11.7609 2.27278 8.67428 -0.240937 -0.847614 -0.472758
-7.99284 8.1351 26.8175 -0.48588 -0.204758 0.849703
8.24775 -4.81202 21.1785 -0.351924 -0.897053 -0.267292
13.602 0.746484 -8.15491 0.76818 0.617788 -0.16804
-24.1243 5.41829 1.60326 -0.664753 -0.746671 -0.0241982
18.1835 2.47632 5.02609 -0.160375 -0.892583 -0.421397
-12.638 -8.08305 5.9686 -0.737933 0.106908 0.666353
-0.738161 8.64596 29.5743 -0.133399 -0.0224932 0.990807
27.4173 11.3462 -8.31364 0.879001 -0.420607 -0.224604
4.86906 -26.5624 0.431565 -0.0556419 -0.713348 0.698597
-4.91582 0.682323 14.7196 -0.0482325 -0.956563 -0.287507
18.0549 -1.35877 11.3085 -0.175123 -0.787663 -0.590693
16.4653 -13.5114 -10.315 0.913093 -0.255566 -0.317722
21.2854 10.276 -11.805 0.132675 -0.91941 -0.370246
14.7483 14.8352 25.1905 0.449265 0.250483 0.857566
-26.6588 17.6025 1.53354 -0.931522 0.328763 0.155507
-7.13329 -23.1702 -13.6602 -0.403792 -0.79522 -0.452303
-14.675 2.43331 21.4338 -0.0636762 -0.965156 0.253808
17.0149 -1.13226 23.3261 0.516051 -0.27094 0.812578
8.13754 8.03855 28.8665 0.246699 0.011254 0.969027
-10.7959 -20.6423 1.47366 -0.63524 -0.669712 0.38465
7.97342 25.0191 14.5624 0.220293 0.850641 0.477368
14.411 -1.7634 -11.423 0.798908 0.499637 -0.334827
-8.33915 -11.4758 -27.9297 0.529471 -0.820083 -0.217081
-14.4039 -13.2955 -21.7007 -0.108189 -0.97019 0.216855
-12.0328 18.8533 22.2806 -0.449526 0.512574 0.73157
-20.7692 14.823 -17.5665 -0.703516 -0.0812112 -0.706024
-26.9447 13.9091 11.4081 -0.778794 0.624103 0.0630409
-18.3362 -11.2531 -18.145 -0.629331 -0.747331 0.213166
20.5628 -4.05051 18.0613 0.748293 -0.604186 0.273892
26.8584 11.3477 -1.59039 0.924556 -0.200208 -0.324212
-1.56864 11.3326 -24.6593 -0.000129412 -0.524225 -0.85158
20.3657 17.4496 20.1565 0.579956 0.421428 0.697172
7.70928 -11.4737 10.4451 0.39389 -0.0689204 0.91657
-15.9439 -14.5575 -8.21121 -0.942703 -0.283241 -0.176313
25.8306 8.12109 15.8445 0.897568 -0.0828928 0.433013
12.0335 -1.41141 -14.9554 0.653588 0.519956 -0.549971
-19.6765 9.74057 -16.4278 -0.587976 -0.480442 -0.650739
1.70943 -8.1707 -22.3961 0.0932007 -0.078421 -0.992554
14.3759 -2.3893 14.0113 -0.276492 -0.736262 -0.617633
26.3238 5.48079 13.5832 0.93595 -0.223364 0.272224
21.3766 4.89267 21.4037 0.680588 -0.108165 0.724638
17.9318 26.6039 4.92049 -0.0102931 0.983748 0.179257
14.1976 -1.90303 1.50063 0.811588 0.460151 0.35998
16.902 -5.33433 -1.82973 0.933626 0.304353 0.188977
-8.17557 -14.8339 8.66913 -0.488521 -0.294833 0.821231
-18.183 -7.89097 -14.7737 -0.973202 0.0807833 -0.215293
14.6822 26.0454 5.75818 0.00996903 0.986068 0.166045
8.23895 -24.1394 -8.20502 0.423626 -0.854207 -0.301449
-1.64501 21.0275 24.6176 -0.111468 0.751749 0.64996
15.5662 -4.94982 1.76751 0.86814 0.314871 0.383651
11.2338 -5.0517 -17.9971 0.644059 0.253808 -0.721644
-5.37229 -22.4354 -15.8311 -0.313434 -0.729065 -0.60846
-17.1157 20.3609 17.1169 -0.543349 0.606282 0.580683
24.5373 21.3834 -11.398 0.600845 0.796671 -0.065582
-10.9963 -21.3819 -11.4578 -0.675842 -0.649792 -0.347863
-11.1841 -1.64963 -26.6181 -0.252307 -0.152064 -0.955624
11.774 -21.7547 -8.41168 0.61771 -0.747086 -0.245555
25.382 21.4741 -1.78011 0.863027 0.46991 -0.185389
-11.5537 22.4237 18.3686 -0.206279 0.905802 0.370098
15.5575 -14.8377 1.89089 0.866737 -0.29566 0.401687
23.5356 -0.58102 11.7094 0.673911 -0.710113 -0.203918
20.9901 1.80125 21.1077 0.686583 -0.207648 0.696768
8.06347 23.1438 20.747 -0.0382891 0.970857 0.236579
4.62929 -23.4734 4.19531 0.200022 -0.764547 0.612747
16.8263 -14.6923 -1.89378 0.94008 -0.289209 0.180579
-5.14555 18.7747 25.6438 -0.27182 0.54524 0.792987
-11.5799 27.0472 -8.28779 0.00355949 0.968107 0.250514
-8.77508 -11.4475 9.16049 -0.526029 -0.0947946 0.845167
-13.5824 -14.2443 -13.9833 -0.815612 -0.277803 -0.507546
16.7648 -8.33402 -10.9287 0.93474 0.0547692 -0.351086
-18.2142 -5.06744 -11.8992 -0.712091 0.683739 -0.159459
11.4784 28.4499 -8.16105 -0.0671965 0.979388 0.190481
-17.5934 8.8913 -17.3054 -0.475777 -0.60717 -0.636381
-4.78901 20.7758 24.1201 -0.215928 0.686234 0.694592
4.89041 29.1593 -14.7218 0.0250348 0.999282 0.028426
-11.276 -1.86005 4.65463 -0.651264 0.470876 0.595089
17.8732 20.8605 -21.0091 0.297547 0.651962 -0.697432
21.5333 3.92713 1.35434 0.117496 -0.90515 -0.408531
-14.8517 2.24317 4.76759 -0.0988161 -0.995079 -0.00729183
20.3263 23.6229 -11.1083 0.641971 0.688877 -0.336633
-14.1483 -17.6701 -11.1452 -0.796549 -0.394528 -0.458102
-8.31648 5.99396 -17.6443 -0.103829 -0.89508 -0.433649
4.88857 -14.7682 10.8243 0.245358 -0.266823 0.93199
14.3872 -4.36559 23.5023 0.372267 -0.458631 0.806892
14.8917 5.92057 -5.04965 0.0171562 -0.975776 -0.218096
-1.72061 28.4435 -8.22677 -0.0861763 0.960538 -0.264464
-26.724 13.9311 8.25966 -0.824017 0.562184 -0.0703151
-14.5696 -11.924 -14.7548 -0.650458 -0.756832 -0.0641028
-11.164 1.59603 4.62824 -0.38525 -0.861976 0.329516
-5.91855 -15.7494 9.58802 -0.403643 -0.364834 0.839028
-8.84683 1.01569 5.7042 -0.593795 -0.483617 0.643057
-8.10654 28.006 1.62802 -0.231778 0.968922 0.086428
-15.3288 -11.4739 1.81603 -0.904324 -0.121216 0.409273
-11.1697 -14.4393 -17.912 -0.611236 -0.70537 -0.358947
-17.8686 14.5191 21.1689 -0.293607 0.700299 0.650674
-7.95735 -20.6793 4.77203 -0.482241 -0.658481 0.577795
-14.5792 -12.3896 -17.8984 -0.313773 -0.926078 0.209587
20.9603 14.7205 21.0126 0.643672 0.270137 0.716039
-1.68736 -25.3187 -11.5321 -0.0524704 -0.955504 -0.290275
-8.21268 -24.2572 -4.85572 -0.444715 -0.893126 0.0674908
-1.8556 11.8692 29.2086 -0.146065 0.121073 0.981838
1.65864 -26.3861 -4.91969 -0.00196119 -0.998807 -0.0487915
14.615 23.7736 17.8104 0.177763 0.900963 0.395811
-1.91664 -22.3749 5.88691 -0.159826 -0.760066 0.629885
8.62166 -25.2663 -5.52532 0.531382 -0.646508 -0.547413
1.46633 -2.48181 21.2818 -0.293999 -0.940043 -0.172868
24.5186 1.76258 8.03782 0.603844 -0.735727 -0.306721
8.2011 7.21337 -14.8524 0.148692 -0.975191 -0.163994
-25.6973 7.23595 1.57823 -0.840827 -0.540922 0.0203298
1.313 -11.4694 -22.4008 -0.047454 -0.119701 -0.991675
7.21479 -20.1576 -16.9877 0.439402 -0.64714 -0.623005
13.7097 11.2976 26.526 0.437274 0.151713 0.886439
14.8904 5.18073 -1.52267 -0.0918793 -0.973334 -0.21019
1.45272 24.3667 -24.1755 0.0926552 0.536499 -0.838799
14.0294 -14.6229 -14.3617 0.792057 -0.299697 -0.531816
9.94646 -10.7574 -19.7038 0.598528 -0.0678313 -0.798225
-26.6673 5.7896 11.1963 -0.776101 -0.56597 0.278109
24.6057 18.0199 14.8092 0.77137 0.417137 0.48061
17.5132 -8.19378 -8.14077 0.980743 0.0763708 -0.179753
26.95 8.27899 1.64417 0.894107 -0.356928 -0.27051
-1.72386 -1.49271 21.4492 -0.311841 -0.948834 -0.0496859
-25.6509 15.5688 8.39501 -0.881585 0.393563 0.260609
5.16791 -5.12787 -21.723 0.565923 -0.0944365 -0.819032
-27.6297 14.6975 -1.58735 -0.997432 0.0685364 0.0207821
-13.8679 9.25625 -20.0552 -0.365834 -0.607943 -0.704678
-8.80441 -8.25152 9.16194 -0.535318 0.0823682 0.840625
-18.5905 -8.5547 -7.63911 -0.733169 -0.209928 0.646833
-8.19518 21.8558 21.2577 -0.212652 0.857432 0.468605
1.7711 29.0895 -14.6896 -0.046984 0.990515 0.12912
21.0447 24.1007 11.3484 0.517265 0.794902 0.317125
-10.9521 -11.3257 7.58541 -0.645642 -0.0938438 0.757852
-22.3824 14.7018 -15.8132 -0.766647 -0.0839048 -0.636563
11.4437 -11.5273 -18.2874 0.660343 -0.13276 -0.739136
15.158 -5.57563 22.1467 0.356464 -0.640774 0.679957
-27.3808 11.4009 -1.80151 -0.974669 -0.219409 -0.0433585
28.1447 11.3471 4.85751 0.995515 -0.0643765 -0.0693274
-16.688 -5.34376 -5.00656 -0.94469 0.279526 0.171538
-14.6579 21.3366 18.001 -0.417076 0.731729 0.539091
-4.81401 -24.2128 1.51821 -0.305629 -0.879572 0.364616
-14.6703 25.0697 4.88656 -0.304416 0.937845 0.166668
-10.3575 26.3836 7.57101 -0.329519 0.912247 0.243355
11.6805 21.9922 21.9133 0.270543 0.720814 0.638148
11.5867 7.84349 -14.8069 0.247933 -0.920825 -0.301016
17.4579 -11.3529 -1.5823 0.970071 -0.106678 0.218132
-8.22646 -5.07764 -21.4709 -0.420655 -0.544191 -0.725882
-8.07093 14.6021 -24.9425 -0.277063 -0.185191 -0.942836
-11.291 -17.9817 -14.7731 -0.706963 -0.418726 -0.569975
-27.3123 11.4901 1.51895 -0.981171 -0.162255 0.104774
-25.7037 7.89397 15.4557 -0.832778 -0.304446 0.462379
4.97486 -2.08568 18.0264 -0.235796 -0.828904 -0.507265
-21.1319 24.5979 1.62948 -0.447851 0.878226 0.167775
-21.577 4.3369 18.1243 -0.552985 -0.760257 0.340907
11.3577 -20.8988 -11.346 0.604588 -0.716219 -0.348575
-26.8158 18.0329 -1.73909 -0.925217 0.378171 0.0310002
20.3991 26.5567 1.52697 0.417796 0.906693 0.057924
-4.52635 -1.82803 -25.5344 0.379934 -0.227153 -0.896689
-17.769 -10.332 -11.2432 -0.337905 -0.935004 -0.107644
14.8767 25.235 11.6375 -0.0677273 0.982269 0.174814
18.4142 18.2414 -22.1716 0.500789 0.217139 -0.837891
-13.953 -8.2595 4.35589 -0.802576 0.100515 0.58802
8.28378 -21.2869 4.8655 0.428863 -0.667747 0.608433
-1.60775 28.8819 -14.5915 -0.0554798 0.981838 0.181429
-21.1138 21.0878 11.2388 -0.64458 0.63933 0.419254
-1.66378 27.8879 8.21192 -0.0724419 0.973215 0.218187
-17.7094 26.4569 -4.77523 -0.0625559 0.986586 0.150782
4.30652 5.48319 -14.1245 0.535797 -0.306213 -0.786864
-15.5867 6.7888 -15.9626 -0.30768 -0.827665 -0.469365
-8.4151 4.49783 -15.2804 -0.357097 -0.487936 -0.796492
17.7983 -8.11504 -4.83387 0.992411 0.122633 0.00902735
4.93471 21.303 -24.9738 0.261406 0.289299 -0.920855
-18.192 21.3958 -18.267 -0.615925 0.42014 -0.666423
-23.6812 14.7967 -14.1373 -0.814984 -0.0493282 -0.57738
9.30048 -25.3751 -1.10261 0.760244 -0.526206 0.380967
28.1344 11.3252 8.07259 0.996151 -0.031153 0.0819356
7.90748 -14.4089 -20.1242 0.441422 -0.269964 -0.855725
8.21687 28.6112 1.6851 0.183693 0.979616 0.0812943
7.86281 -5.08742 -20.3813 0.435985 0.217345 -0.873314
-14.7708 8.06233 -18.2126 -0.356611 -0.715809 -0.600372
-8.46126 4.71988 25.3083 -0.50105 -0.388857 0.773136
-8.32034 27.874 -11.5364 0.0062768 0.96828 0.249789
11.4809 27.7642 1.60391 0.333325 0.941457 0.0505274
-27.4192 14.6031 -4.91647 -0.987727 0.02736 -0.153774
24.41 21.0752 11.3363 0.723794 0.597949 0.344352
17.9657 27.1319 1.65834 0.0586435 0.988486 0.139489
-17.1051 26.6552 -11.2904 -0.413172 0.89611 -0.1621
21.2195 21.2231 -17.9063 0.611336 0.577778 -0.540779
-4.88755 23.4714 17.6642 -0.138583 0.894258 0.425555
-8.13232 -8.2334 -27.9553 -0.483232 0.717773 -0.501287
15.6991 -4.89009 -11.8798 0.876482 0.281947 -0.390237
24.4051 8.2135 -4.77019 0.588886 -0.790397 -0.16878
20.785 6.18591 -4.20245 0.217291 -0.892986 -0.394157
1.57437 26.3824 13.4908 -0.0136796 0.915452 0.402195
-14.6931 21.0769 -21.1807 -0.509179 0.368599 -0.777735
17.9975 25.9099 8.64154 0.0305686 0.979909 0.197089
26.7555 18.0175 -1.51036 0.95063 0.230861 -0.207379
-14.5607 -3.76742 -23.7345 -0.164125 -0.839774 -0.517534
-5.45427 -10.7096 -24.1375 0.553481 -0.73011 -0.400746
15.4938 -1.59674 -4.90871 0.852842 0.521761 0.0206414
15.5918 19.1095 22.3991 0.446526 0.524823 0.72469
4.87484 -5.01955 10.6155 0.263333 0.288814 0.920458
-24.8182 18.038 -11.4832 -0.867696 0.2799 -0.410804
26.4713 14.3495 13.7064 0.907702 0.176903 0.380502
26.8739 5.10187 8.18462 0.918844 -0.391831 -0.0468509
12.7987 -3.98508 -16.0069 0.700741 0.329272 -0.632884
-18.9299 18.0202 -19.0737 -0.649889 0.182697 -0.737744
4.43244 8.34514 29.5807 0.107089 0.00319429 0.994244
1.66248 -14.6845 11.3725 0.0612353 -0.265154 0.96226
11.4376 -21.2511 1.66166 0.645859 -0.635981 0.422368
-1.68638 28.7429 -18.1302 -0.0658771 0.970646 -0.231313
-4.91788 21.1988 -25.3037 -0.192384 0.313271 -0.929973
-17.2179 23.6978 -17.296 -0.55927 0.614362 -0.556576
-4.55826 -20.3208 7.18072 -0.290509 -0.63477 0.716011
1.66742 8.25822 -21.3914 0.150117 -0.819046 -0.553741
11.1209 -14.5653 -17.7097 0.650671 -0.289616 -0.701961
-1.71937 -25.9866 -8.51033 -0.0780913 -0.986123 -0.146506
-4.73145 -11.9316 -22.0429 0.276108 -0.542596 -0.793318
8.12281 28.8447 -11.4672 -0.0407583 0.986668 0.157559
17.9285 0.95292 7.97828 -0.186072 -0.840217 -0.509326
18.1632 10.5865 -14.7148 0.331867 -0.860303 -0.386967
-5.15866 4.35202 -16.0357 -0.118768 -0.0633444 -0.990899
17.984 27.4817 -1.67024 0.203186 0.977219 0.0613025
24.6999 1.59055 14.7568 0.898873 -0.367507 0.238676
4.84452 28.5692 -11.4666 -0.0974544 0.957134 0.272759
1.72536 25.5421 15.2164 0.0215206 0.881351 0.471972
-7.91879 23.1225 17.3931 -0.0899858 0.96027 0.264168
1.77146 21.3682 -25.5951 0.111257 0.321628 -0.940307
11.8217 -1.81191 4.98215 0.662855 0.443856 0.603005
-11.7154 25.5577 8.45085 -0.396049 0.874301 0.280611
-7.09819 -8.24021 10.1232 -0.422591 0.0926692 0.90157
11.1697 -5.06687 7.42879 0.598126 0.323479 0.733216
-11.3221 5.35556 23.8285 -0.375467 -0.394709 0.838588
15.4317 -14.8536 -11.7022 0.85881 -0.319258 -0.400649
4.59037 26.2832 13.3818 0.0971636 0.907122 0.409498
12.0951 18.1047 -22.4953 0.265286 0.149416 -0.952522
4.94792 1.55831 -17.9469 0.306939 0.685197 -0.660525
-5.00374 -25.439 -8.11564 -0.261275 -0.960532 -0.0954709
14.2326 18.5781 -22.4973 -0.280242 0.365229 -0.887734
-26.8616 8.28563 5.31578 -0.852557 -0.215589 -0.476097
-4.87961 28.439 -18.1349 -0.136304 0.949367 -0.28306
-4.89831 28.6338 1.5676 -0.140455 0.985746 0.0926184
-8.67808 2.41072 -15.3585 -0.550541 0.519577 -0.65341
-13.8358 20.1287 20.098 -0.45005 0.600877 0.660608
-1.21276 -26.2888 -5.02334 -0.0962238 -0.995358 0.00169103
10.2968 -23.2067 -7.52594 0.544962 -0.792522 -0.273724
-1.73113 9.41143 -23.281 0.0174285 -0.671782 -0.740544
-11.9214 -21.7007 -4.9468 -0.692756 -0.718106 0.0664305
2.46684 -6.26439 -22.6229 0.273658 -0.668546 -0.691489
17.7126 1.74949 23.7082 0.551988 -0.201134 0.809231
-21.1378 3.78644 8.19279 -0.278719 -0.956896 0.0816397
14.6586 -8.11749 -14.8702 0.824415 0.0567704 -0.563132
21.991 22.4621 -14.9213 0.454992 0.859522 -0.232819
-17.6901 23.4026 11.075 -0.306512 0.909796 0.279862
21.6754 25.0112 -5.19435 0.668793 0.707071 -0.229712
-17.9752 5.51121 -11.5128 -0.314574 -0.881567 -0.351969
4.91941 8.79342 -21.1082 0.231553 -0.790404 -0.567137
-15.0103 -1.6402 -8.42609 -0.857621 0.504691 -0.0988617
-7.73171 23.669 -23.357 -0.298469 0.503174 -0.811007
22.0679 18.1038 -18.6883 0.750525 0.123616 -0.649177
-4.99138 -25.5375 -4.88375 -0.286086 -0.957221 0.043393
-9.52272 -22.6633 -0.614971 -0.511665 -0.816497 0.267455
-24.7548 11.4399 18.0344 -0.808981 0.0769346 0.582778
-21.6242 3.83138 1.45228 -0.434428 -0.899596 -0.0447061
-11.1405 26.8051 -4.81661 -0.332821 0.93899 -0.0867612
-25.9975 11.3895 16.1253 -0.869116 0.0608799 0.490847
-1.63116 -17.7611 -20.3429 -0.141294 -0.400212 -0.905465
9.11071 -15.1438 -19.1391 0.544268 -0.320046 -0.775463
5.01459 -25.3982 -8.19353 0.260316 -0.934331 -0.243437
-8.25333 28.0963 -1.71174 -0.264821 0.964164 -0.0160354
7.84781 17.5489 26.8743 0.223801 0.464731 0.856702
11.4892 24.4703 14.8011 -0.018936 0.974799 0.222281
-18.972 14.3891 -19.133 -0.631401 -0.149722 -0.760866
-1.61092 -21.3145 -18.0708 -0.114239 -0.65654 -0.74559
14.8183 10.683 -17.9641 0.323948 -0.856998 -0.400765
14.5327 24.3299 -17.6767 0.522533 0.612881 -0.592736
17.7825 -11.4483 -4.86968 0.993049 -0.11726 -0.0101881
1.65132 24.0424 17.6587 0.0118041 0.858145 0.513272
1.63136 -25.2969 1.80011 -0.0823443 -0.887937 0.452534
-21.3753 15.1693 18.115 -0.332052 0.844126 0.420942
16.1457 -15.8663 -0.641598 0.894126 -0.370118 0.252095
-21.3568 4.70653 -5.00514 -0.406125 -0.885566 -0.225466
4.52382 -23.3975 -14.1063 0.306794 -0.845413 -0.437212
24.5211 4.97298 1.62192 0.557609 -0.725038 -0.404219
-7.83353 2.24694 24.0342 -0.479423 -0.618183 0.622899
14.1404 -17.8285 -11.3271 0.778807 -0.505724 -0.371085
-11.4074 11.6343 25.2488 -0.502593 0.0160975 0.864373
-14.7952 -14.4058 -11.7061 -0.874655 -0.230929 -0.426205
-1.61019 17.8533 27.1865 -0.14841 0.529563 0.835187
-24.8398 21.3128 -5.0647 -0.817299 0.569296 -0.0890173
-11.0719 17.5545 23.6953 -0.449016 0.463098 0.76415
-25.6002 18.3201 5.08139 -0.897506 0.376953 0.228885
19.1172 1.15379 22.5448 0.583385 -0.211149 0.784269
9.21413 5.53405 -8.68826 0.791926 -0.362833 -0.491127
4.91482 -24.4186 -11.4351 0.30341 -0.891785 -0.335651
8.11184 -24.3474 1.40082 0.467371 -0.660871 0.587209
-5.0007 -18.1278 8.66314 -0.326237 -0.507634 0.797419
1.64075 29.2966 -1.76647 0.00165924 0.999999 0.000454529
-17.2747 2.80185 20.8977 -0.322191 -0.917399 0.233608
-4.92392 25.1638 14.7485 -0.18097 0.872835 0.45322
-17.9253 24.0548 8.07343 -0.177119 0.961001 0.21238
-21.0761 17.9866 14.548 -0.726543 0.425818 0.539272
-12.6088 26.0526 -4.58429 -0.109972 0.991747 0.0659096
-14.7123 11.5585 24.0387 -0.020757 0.364362 0.931026
11.3141 -5.96175 21.3799 -0.288534 -0.956986 -0.0304283
-14.7668 2.20148 11.4611 -0.204857 -0.978488 0.0244093
4.75108 23.8617 17.7681 0.0658233 0.890663 0.449875
-8.74617 -15.5591 -18.8514 -0.492477 -0.525761 -0.693572
4.97624 -11.3408 11.3668 0.242992 -0.0516775 0.968651
22.0228 25.6101 1.71441 0.572591 0.819364 0.0279753
-14.6604 27.4479 -11.5133 -0.239472 0.969935 -0.043341
25.6172 4.5958 14.9449 0.916895 -0.222828 0.331136
-7.74225 14.6167 26.7961 -0.396989 0.271673 0.876695
25.4745 22.0202 1.6552 0.824027 0.566101 -0.0225531
-23.5795 17.637 10.9969 -0.804313 0.378509 0.458052
-16.15 -11.8106 -0.738594 -0.966962 -0.123054 0.223255
-19.3832 22.6851 -16.1019 -0.626511 0.565917 -0.535931
23.0694 10.9395 19.8571 0.731798 0.106179 0.673199
27.1519 14.711 -1.74278 0.98131 0.0245084 -0.190867
-8.16451 11.4596 27.1101 -0.465002 0.030299 0.884791
-1.67569 4.80388 28.6482 -0.261041 -0.293287 0.919696
-5.00491 -4.3625 -24.4007 -0.539217 0.0581498 -0.840157
-2.6946 -26.0784 -4.44117 -0.170274 -0.983849 0.0552057
11.1955 4.68628 -1.66931 0.807793 -0.583315 -0.0849378
27.1113 17.6656 -5.05956 0.736623 0.528811 0.421599
18.209 21.6713 18.2477 0.470181 0.657468 0.588783
7.77082 9.21394 -20.4085 0.30057 -0.77829 -0.551292
-1.60122 -24.9599 1.66981 -0.154052 -0.90943 0.386272
-1.61534 -14.6602 11.2395 -0.142705 -0.250074 0.957652
-14.8137 -4.80332 1.60634 -0.870467 0.268573 0.412499
23.5102 20.4452 14.0467 0.695035 0.573977 0.432987
15.0601 -18.0619 -8.27076 0.835357 -0.51262 -0.198493
11.5684 11.5083 27.4315 0.368836 0.154176 0.916619
-17.5931 -4.39985 -21.1055 -0.471495 -0.731263 -0.492896
25.9075 6.84834 0.66313 0.787548 -0.514202 -0.339654
15.4931 -18.1149 -4.94149 0.855 -0.517077 -0.040077
-11.5002 23.4955 14.652 -0.137099 0.957162 0.255038
26.5993 17.5148 11.0737 0.902849 0.311642 0.296214
15.0763 6.82323 -8.7765 0.142309 -0.953789 -0.264642
-14.9017 14.6177 -21.9724 -0.501712 -0.154663 -0.851096
20.5954 20.5682 17.391 0.558853 0.602741 0.56955
17.9675 3.90562 1.60034 -0.108804 -0.938574 -0.327477
-21.6403 3.78746 4.97255 -0.3848 -0.92299 0.00422889
12.2683 -21.899 -1.48577 0.723152 -0.662492 0.195334
20.3349 26.6312 -1.63169 0.48298 0.875086 -0.0308878
22.0128 25.4756 -1.78724 0.619352 0.77852 -0.101535
18.0053 24.1577 14.7654 0.336109 0.853934 0.397275
-12.8683 -12.9708 -17.445 -0.458365 -0.884218 0.089784
24.3879 11.4636 18.0765 0.806919 0.0972932 0.582594
-15.9307 -15.245 -4.7626 -0.935338 -0.352132 0.0338478
21.606 21.672 14.9578 0.573652 0.661156 0.483525
8.19664 14.6453 27.8877 0.261178 0.266937 0.927648
4.9102 27.9464 8.15511 0.0692474 0.968302 0.239992
23.1212 -0.645234 16.9418 0.862846 -0.368289 0.346209
-15.2259 -12.528 -20.6071 -0.216948 -0.95296 0.211663
17.9513 4.8822 24.129 0.566012 -0.0895599 0.819518
21.884 22.5988 -11.5889 0.226309 0.970291 0.085554
-17.4007 14.9421 -20.4099 -0.582494 -0.108816 -0.805518
1.53366 4.37576 29.1505 -0.10752 -0.25892 0.959896
-14.967 -13.8799 -24.4805 -0.0957944 -0.99443 0.0439576
11.6221 18.1592 25.1597 0.345092 0.519002 0.782016
-8.1158 24.3038 14.661 -0.290389 0.840948 0.456598
7.09587 -5.84873 10.1357 0.386247 0.264546 0.883645
-1.57468 -0.909715 24.4939 -0.34287 -0.834176 0.431961
-7.14088 -11.3559 10.1158 -0.438614 -0.0986765 0.893242
-16.9027 3.1221 -3.953 -0.210781 -0.954727 -0.209923
10.6182 -23.9001 -1.70608 0.775007 -0.599185 0.200852
11.2908 9.02276 -17.7964 0.35263 -0.815887 -0.458236
-25.2567 7.8932 -5.10289 -0.791447 -0.566616 -0.229254
-17.3081 17.7801 -20.4255 -0.589522 0.132252 -0.796852
-4.93581 0.528167 -21.3455 0.0151737 0.983125 -0.182306
11.2189 -14.5705 7.64 0.602208 -0.286769 0.745056
15.1861 -1.52091 -8.24085 0.844491 0.516288 -0.142413
-4.82204 24.3062 -23.7957 -0.198706 0.540937 -0.817254
-4.88248 22.3956 21.2554 -0.0800791 0.957588 0.276791
25.1954 1.68437 11.3797 0.849615 -0.5274 0.00196596
-14.7593 -1.80944 -24.5887 -0.611213 0.240583 -0.754015
23.4301 14.9216 -16.9592 0.765764 -0.187357 -0.615226
8.11152 -17.9782 -18.1811 0.480837 -0.502303 -0.718671
-18.0352 18.0649 18.0788 -0.637183 0.436758 0.635012
1.78603 6.90185 -18.4501 0.159022 -0.949535 -0.270361
1.66774 -20.7806 7.73083 0.0566972 -0.683175 0.72805
1.39094 -2.54023 10.3883 0.0625539 0.330416 0.94176
-8.15184 27.8439 -4.98164 -0.294404 0.94426 -0.147306
-24.3707 8.19312 -8.17291 -0.738397 -0.589928 -0.326734
14.5308 -8.35706 4.89466 0.800328 0.0820506 0.593921
18.0398 25.2791 11.4497 0.134909 0.9603 0.244177
-1.55872 24.514 -24.1169 -0.0541177 0.551006 -0.832745
28.0746 14.6771 4.86923 0.992992 0.111154 -0.0401354
11.4493 23.8575 17.9209 -0.0453478 0.980063 0.193443
-14.6618 -1.68909 -1.595 -0.858095 0.453275 0.241277
-18.3011 3.69384 -5.04528 -0.231813 -0.948219 -0.217124
-18.1114 -11.2497 -21.2514 -0.832261 0.363037 -0.418982
5.49787 10.176 -22.5722 0.279466 -0.673971 -0.683858
-11.3957 -11.3944 -28.1166 -0.492489 0.339333 -0.801441
1.15766 -26.2354 -7.21537 0.044141 -0.991658 -0.121105
-17.7329 3.40352 16.6979 -0.0462628 -0.971536 -0.232331
23.4298 17.357 17.0355 0.727102 0.398466 0.55906
7.53479 -23.4307 -11.2167 0.417079 -0.846155 -0.331763
14.2199 26.9257 -14.528 0.4661 0.791781 -0.394757
10.5489 0.762636 -14.4078 0.594069 0.641967 -0.484727
11.3722 27.8239 -1.52632 0.327796 0.943709 -0.0443142
-19.0643 12.769 22.6627 -0.380034 0.530732 0.75756
11.9905 2.55358 -4.88558 0.634933 0.77152 0.0402199
15.2076 -1.8287 -1.61053 0.852308 0.486838 0.191205
-1.6125 -23.914 -14.8797 -0.05367 -0.862175 -0.50376
4.72515 -20.5863 7.33998 0.214889 -0.673617 0.707152
8.20098 -1.19818 26.9067 0.0964509 -0.436204 0.894664
-10.448 -20.3802 -13.8365 -0.654523 -0.545646 -0.523326
11.4792 8.04127 27.7856 0.368557 0.012141 0.929526
-24.6378 4.28162 8.18124 -0.272716 -0.951759 -0.140641
25.5058 21.8195 4.90026 0.78195 0.617432 0.0856263
-1.91046 -25.8444 -1.46486 -0.160866 -0.968538 0.189884
-14.6752 11.5781 -21.0677 -0.454923 -0.391781 -0.79972
23.7338 23.8587 -1.67193 0.739604 0.65815 -0.140799
-4.93654 -24.8744 -11.3215 -0.249324 -0.931433 -0.265086
-11.1222 26.7059 4.71953 -0.359558 0.915954 0.178174
21.3022 -1.49699 11.3125 0.203701 -0.842518 -0.498667
1.65324 18.0385 27.3591 -0.0105432 0.527551 0.849458
-1.26388 -4.82832 -24.9813 0.416886 0.238391 -0.877141
-8.32871 0.974618 14.8425 -0.127875 -0.979447 -0.155986
14.8174 26.8725 1.5991 -0.0170813 0.988218 0.152095
-4.77174 -14.5923 10.4506 -0.342625 -0.268396 0.900318
1.54175 -23.8007 -14.7783 0.147267 -0.868254 -0.473758
4.89691 23.0774 20.4013 -0.0393246 0.97018 0.239176
-8.24889 26.8601 8.16544 -0.247576 0.937219 0.245615
11.5279 6.64911 -9.24815 0.0699054 -0.97822 -0.195446
1.84988 14.6037 -25.8111 0.128774 -0.24619 -0.960629
14.1787 13.9664 -22.5876 -0.169229 -0.373974 -0.911869
-25.2994 14.8218 -11.4293 -0.886944 -0.0125508 -0.461707
8.25057 5.01574 28.6524 0.237101 -0.125946 0.963286
9.2531 -4.22489 -19.2861 0.547117 0.306346 -0.778984
18.1956 -5.69197 18.1057 0.332892 -0.929195 -0.160559
25.0272 17.774 -14.7731 0.836216 0.145499 -0.528746
-11.3603 14.7622 24.7901 -0.496902 0.261966 0.827322
-4.79784 -20.943 -17.4894 -0.297346 -0.592115 -0.748989
-11.4236 -13.7753 -21.1799 -0.19993 -0.97832 -0.0540186
-18.2634 11.2085 -18.5129 -0.549098 -0.39793 -0.734945
-14.8651 24.7089 -18.257 -0.491733 0.66859 -0.55784
19.0874 15.2178 22.4028 0.570896 0.304724 0.762379
18.0573 8.21941 24.2251 0.558481 0.0143986 0.829392
-4.87179 28.7198 -14.6083 -0.0483001 0.985461 0.162889
-11.3514 20.9633 20.8019 -0.382455 0.692988 0.611143
1.63143 28.6067 -8.04065 0.0111611 0.969247 -0.245837
-15.6107 -11.7287 -11.6692 -0.832214 -0.435262 -0.343463
24.9505 14.6517 -14.8002 0.803073 -0.19403 -0.563406
8.40606 24.722 -21.6662 0.401125 0.562547 -0.722938
5.25147 11.728 29.1727 0.15282 0.145055 0.977551
-4.91429 28.2032 4.88293 -0.140309 0.977656 0.156532
5.55644 19.4968 26.015 0.0713943 0.656364 0.751059
21.2936 11.193 -14.6981 0.154287 -0.942884 -0.295237
10.6734 -23.7534 -4.93337 0.703143 -0.687881 -0.180027
4.78279 -20.8977 -17.5888 0.315573 -0.685771 -0.655844
23.5493 23.4901 7.86597 0.654632 0.719881 0.230712
-20.1394 20.2892 13.7923 -0.653943 0.566091 0.501895
-17.9906 2.77224 8.17033 -0.2488 -0.966296 0.0661049
-11.2583 6.22914 -17.1363 -0.209788 -0.86629 -0.453354
-10.5491 -14.4913 7.14526 -0.625363 -0.288395 0.725086
-24.3508 4.94557 14.5789 -0.632436 -0.694687 0.342686
-20.7637 8.73228 -14.3037 -0.588491 -0.598773 -0.543276
4.98083 29.1619 -1.62896 0.0840718 0.996454 0.00331119
-14.6243 8.12507 24.5246 0.171829 -0.156443 0.972626
-10.7576 12.1607 -23.2853 -0.342591 -0.372882 -0.862317
-19.8829 -8.24241 -9.21402 -0.898571 -0.0757816 0.432235
-21.6468 7.54665 -11.6702 -0.561072 -0.697975 -0.445005
-10.1348 -23.1476 -8.05472 -0.571148 -0.816871 -0.0806996
26.4754 20.3231 1.50242 0.90109 0.430607 -0.05113
-1.6431 -14.6806 -21.3983 -0.123425 -0.268494 -0.955341
8.2214 14.6861 -24.0397 0.382924 -0.210451 -0.899488
-5.04795 -8.36854 10.9125 -0.298819 0.0745931 0.95139
-14.7933 4.59711 -11.557 -0.243229 -0.905999 -0.346418
-21.4146 24.8899 -1.63103 -0.535459 0.841256 0.074643
-17.0862 -12.0037 -23.8266 -0.726475 0.374776 -0.576
17.8932 26.9417 -8.09361 0.477862 0.852677 -0.211163
23.9502 14.6505 17.7955 0.778247 0.231577 0.583698
-21.284 24.6535 -8.14824 -0.627111 0.765878 -0.141994
-8.33799 25.1322 -21.9512 -0.31318 0.645042 -0.697022
-8.36196 -21.3155 -14.9407 -0.514277 -0.627029 -0.58511
4.86927 17.8599 27.2667 0.131218 0.504692 0.853269
-15.2252 -1.71244 -5.02482 -0.894417 0.446134 0.0313612
11.7194 -18.105 -14.7788 0.655506 -0.525329 -0.542533
4.94639 -1.08558 26.9463 -0.106259 -0.561068 0.820921
24.5443 8.13699 18.0426 0.831311 -0.0293815 0.555031
11.4901 4.99149 27.624 0.369452 -0.107684 0.922989
-8.18463 8.34158 -21.3259 -0.170903 -0.728109 -0.663815
9.97541 -8.47177 -19.7215 0.563709 0.017935 -0.825779
-1.82055 21.403 -25.6693 -0.0715867 0.330707 -0.941014
14.7811 -6.67863 20.7839 0.0439664 -0.990305 0.131768
-1.71321 28.9662 1.6373 -0.0776734 0.991628 0.103152
-1.67103 14.6899 28.6118 -0.131297 0.299053 0.945161
5.30863 -22.303 -15.4857 0.338405 -0.796682 -0.50078
8.14433 28.4231 -4.89854 0.228686 0.962115 -0.148449
1.56453 -4.91494 -24.4882 0.231013 -0.554146 -0.799722
24.7762 10.9047 -11.6012 0.414749 -0.776073 -0.475073
14.8492 1.61575 8.2416 -0.239839 -0.844354 -0.479108
4.89774 26.9551 11.5095 0.0905419 0.940067 0.328748
-1.65491 -18.7535 9.24879 -0.13397 -0.581924 0.802132
9.42643 -11.4103 9.58576 0.497868 -0.0670715 0.864655
8.15284 27.5239 8.18328 0.182487 0.949427 0.255512
-14.6669 5.82361 -14.5413 -0.233519 -0.882827 -0.407536
8.12461 -17.9618 7.98336 0.427314 -0.506336 0.749017
-27.0109 11.3426 4.90913 -0.996016 -0.0115191 -0.0884255
-8.19908 27.5544 4.95777 -0.224386 0.960857 0.162496
-23.4629 17.9076 -13.9444 -0.814618 0.231396 -0.531839
-14.529 4.92159 23.647 0.149361 -0.296607 0.943247
14.045 -14.585 4.63415 0.778809 -0.284745 0.558907
2.12734 5.99555 29.5409 -0.0164711 -0.160654 0.986873
15.1424 2.91593 5.5895 -0.226287 -0.884303 -0.408414
-12.9625 26.0849 -3.1303 -0.552917 0.829748 -0.0761602
7.80054 -27.5899 -4.54955 0.563689 -0.510016 -0.649722
-21.3397 24.9866 -4.99865 -0.576306 0.816423 -0.036415
5.07528 25.3989 14.9596 0.129992 0.867271 0.480565
25.1456 7.72141 -1.89392 0.734073 -0.551111 -0.396755
-4.84824 26.6721 11.2582 -0.156879 0.937199 0.311524
17.0802 -14.6511 -4.82177 0.950726 -0.309518 -0.0178459
-7.9278 -12.1011 -24.6458 0.466239 -0.811762 -0.351659
-24.5967 14.9849 14.8131 -0.506981 0.815966 0.277794
-1.60817 27.423 -21.2663 -0.0666283 0.83307 -0.549141
-1.57594 28.0886 -11.5058 -0.0482935 0.982286 0.181058
11.4779 27.3622 4.96732 0.324995 0.932014 0.160399
8.18628 8.10521 -18.0601 0.245358 -0.895983 -0.370153
-14.7079 23.7883 11.2817 -0.0684899 0.984865 0.159218
-26.5358 8.8836 -1.48865 -0.904765 -0.419438 -0.0739722
11.4377 -8.2885 8.11783 0.624787 0.0915397 0.775411
4.74639 28.6928 -18.0318 0.127377 0.946837 -0.295425
5.37504 -11.2941 -21.8463 0.272187 -0.0753248 -0.959292
17.1091 -4.9873 -4.94416 0.948256 0.317495 -0.00291365
-11.3319 -4.6794 -21.3921 0.000420026 -0.906133 -0.422994
1.73596 -25.1946 -11.4424 0.139755 -0.940193 -0.310653
27.5487 11.4032 11.4068 0.966624 0.0195455 0.255451
1.60457 11.4028 -24.4584 0.143447 -0.517955 -0.843294
-14.9526 26.4576 -5.21869 0.0714232 0.969999 0.23238
21.8466 14.5219 -18.6548 0.722554 -0.266581 -0.637848
11.5882 -11.4953 8.05187 0.631018 -0.0840338 0.771203
-26.0322 19.3678 -5.26567 -0.880015 0.461882 -0.11063
13.9588 -5.15467 4.59923 0.773544 0.291445 0.562752
16.9242 -5.09073 -7.95054 0.944405 0.294864 -0.145447
17.4489 -8.13867 -1.72038 0.975235 0.0965839 0.198968
-15.6858 -14.8494 -1.72266 -0.930712 -0.310919 0.192623
11.0508 5.20908 -4.96398 0.747422 -0.61711 -0.24604
8.18516 11.4106 28.59 0.264184 0.147882 0.953067
-11.3759 24.3646 -21.0685 -0.38935 0.597821 -0.700726
14.7416 28.0357 -4.88104 0.00590561 0.992393 0.122965
-19.3093 26.0279 -8.40615 -0.494449 0.862454 -0.108135
15.3325 -17.8965 -1.61397 0.845452 -0.50125 0.18428
14.9399 1.44164 25.3421 0.4655 -0.228862 0.854946
-8.12855 -17.8981 -17.7793 -0.497574 -0.450271 -0.741402
-4.83338 27.9383 -11.5095 -0.0402821 0.967874 0.248189
14.0187 8.17706 26.6531 0.443879 0.0153299 0.895956
-7.98141 -23.6992 -11.3675 -0.443509 -0.85137 -0.280122
-11.2635 -11.6259 -25.7161 0.08494 -0.509486 -0.856276
10.5279 -20.1566 -13.8912 0.55997 -0.683827 -0.467776
-8.81306 -7.31336 -25.2738 -0.501022 0.816355 -0.2873
-1.69441 26.9901 11.4399 -0.0714802 0.948606 0.30828
-18.1032 21.38 14.7601 -0.532074 0.691639 0.488398
1.18072 0.563964 -20.2557 0.186872 0.735234 -0.651545
4.94684 7.39001 -18.1787 0.18821 -0.94109 -0.280939
18.1952 4.9787 -1.64238 -0.0216557 -0.948657 -0.315563
4.31628 -16.936 10.1682 0.218577 -0.457302 0.862032
-8.50951 22.7031 18.8958 -0.0902355 0.966867 0.238803
11.2489 11.5925 -21.1866 0.315139 -0.633012 -0.707094
-24.5951 11.5196 -11.5537 -0.819319 -0.312904 -0.480424
-16.1659 -3.80768 -4.59122 -0.946032 0.313534 0.0819756
-24.8246 4.30066 11.595 -0.459484 -0.879313 0.125233
27.9069 14.616 8.29701 0.979661 0.136556 0.147026
1.98543 5.4931 -15.2433 0.454399 -0.398442 -0.796722
3.97392 -4.43437 -23.645 0.664621 -0.448065 -0.597927
-17.8859 11.495 23.7773 -0.309004 0.39136 0.866807
14.6976 25.7624 8.21147 0.0191165 0.982435 0.185622
-17.3838 -2.43526 -18.1623 -0.496807 0.849736 0.176443
-1.35495 -0.783743 17.9679 -0.147331 -0.932212 -0.330567
-23.4324 12.1957 -13.804 -0.783512 -0.301947 -0.543081
-27.3479 14.6228 1.61483 -0.979729 0.12013 0.160312
21.6948 18.1675 18.4189 0.628425 0.457475 0.629125
7.7299 -8.33833 10.3766 0.409626 0.1079 0.90585
-11.6053 -21.2736 -1.71177 -0.677979 -0.697499 0.232032
15.3286 17.3824 -23.1467 -0.114293 0.157887 -0.98082
-8.14354 18.0657 -25.0958 -0.305632 0.0851707 -0.948333
-18.8828 15.7438 18.843 -0.502819 0.609388 0.613041
-14.8984 18.0459 -22.0156 -0.523992 0.135374 -0.840896
1.71812 21.2955 24.6439 -0.0231658 0.776053 0.630242
17.6887 12.433 -20.5138 0.284688 -0.816432 -0.502387
-15.1093 -11.0679 -24.9286 -0.521567 0.64896 -0.553912
27.6114 8.16992 4.89563 0.951726 -0.2744 -0.13756
4.73884 23.9006 -23.846 0.235163 0.509485 -0.827722
11.5854 -8.16707 -18.3526 0.66648 0.0653656 -0.742652
21.1412 -0.262394 9.29936 0.075896 -0.844686 -0.529855
17.5214 14.4625 23.6903 0.521709 0.216035 0.825317
21.1443 8.33527 -8.13173 0.32032 -0.829957 -0.45669
21.3926 11.4143 21.3812 0.661484 0.109588 0.741909
-14.6022 -14.7084 1.64696 -0.860367 -0.317251 0.398898
11.1361 20.5311 23.548 0.285571 0.641504 0.711984
21.5151 5.27085 -1.67922 0.228346 -0.885955 -0.40366
-8.07891 27.7246 -18.3311 -0.25082 0.891357 -0.377588
-11.2204 26.8344 -18.056 -0.331736 0.84043 -0.428519
1.60743 22.6465 21.7614 -0.0439175 0.973932 0.222549
14.6731 28.1969 -8.10569 0.21873 0.975566 -0.0206858
-4.82984 4.84732 27.4683 -0.3988 -0.338208 0.852393
-21.2954 3.97456 -1.65107 -0.400165 -0.904708 -0.146191
14.5161 17.746 23.9685 0.407848 0.506773 0.7595
-4.89287 -14.8531 -20.7493 -0.202478 -0.341894 -0.917666
18.1139 7.28314 -8.23023 0.258718 -0.891625 -0.371577
-20.0226 3.13119 1.98082 -0.307182 -0.951066 -0.033368
-27.9728 11.2542 11.5156 -0.965379 0.111327 0.235901
-1.5432 23.8821 17.7378 -0.0765152 0.83986 0.537383
-14.1317 -12.1654 -26.8617 -0.582116 0.39549 -0.710443
11.295 26.7494 7.93511 0.323368 0.909692 0.260565
17.865 24.0195 -14.6819 0.483881 0.800732 -0.353112
1.69496 -11.5022 11.8568 0.0661558 -0.0556889 0.996254
-4.90086 28.8071 -1.66256 -0.157153 0.987554 0.00636853
-4.90526 7.9717 -21.4442 -0.0513642 -0.786387 -0.615595
11.3771 27.797 -4.84711 0.0501445 0.995077 0.085482
-21.8154 11.1678 -15.1919 -0.699534 -0.368556 -0.612224
14.9125 15.2871 -23.1087 -0.0978023 -0.161011 -0.982095
-28.0021 8.13992 8.07989 -0.957048 -0.236745 -0.167365
-1.788 22.5208 21.6037 -0.0468445 0.974085 0.221279
26.9864 14.7492 -11.5446 0.877713 -0.105298 -0.467474
8.12118 21.167 -23.7963 0.400305 0.294916 -0.867629
-5.10782 -25.1052 -1.67804 -0.307878 -0.93187 0.191911
-4.96877 28.6733 -4.94621 -0.203121 0.971944 -0.118602
-1.69974 17.9046 -26.3598 -0.0478419 0.0328635 -0.998314
-8.45254 25.6025 11.8029 -0.282883 0.88774 0.363174
-21.1142 23.852 4.74672 -0.453555 0.855589 0.24951
-20.7729 14.0063 20.4791 -0.384468 0.682942 0.621107
18.0301 6.00854 -4.85572 0.0766901 -0.947002 -0.311938
-12.2222 25.7808 -19.0619 -0.399821 0.735669 -0.546749
-18.2611 7.54663 -15.1552 -0.429772 -0.732497 -0.527962
-1.3679 1.78789 27.3315 -0.281851 -0.511592 0.811686
-11.5499 -13.5402 -24.5258 0.203508 -0.977531 -0.0549418
-4.81383 28.0397 -8.08524 -0.18772 0.948336 -0.255774
-22.047 15.8943 15.472 -0.421501 0.847858 0.321673
1.64684 -23.6648 4.48584 0.0352225 -0.806891 0.589649
-23.8767 14.074 17.7119 -0.590567 0.623087 0.512828
-11.7385 10.8595 -22.1743 -0.352643 -0.480486 -0.802979
-19.964 3.12537 4.69377 -0.332258 -0.942856 0.0250507
23.8486 5.94863 -1.16851 0.504825 -0.752615 -0.422756
26.568 8.16012 14.0899 0.929196 -0.107414 0.353634
1.50997 28.6631 4.94115 -0.0185 0.987679 0.155398
-21.2755 21.3536 -14.8084 -0.716125 0.475413 -0.511025
27.7298 11.4116 1.68368 0.976163 -0.115822 -0.18355
-14.5698 27.0747 -7.96376 0.0380646 0.976277 0.213153
8.15454 20.9708 24.1498 0.196065 0.662981 0.722506
-4.87376 14.7222 27.8838 -0.278022 0.282447 0.918111
17.9319 11.421 24.0348 0.545924 0.124644 0.828511
-15.2677 22.521 15.7041 -0.345809 0.837436 0.423222
-18.4495 -5.18919 -14.4937 -0.983712 0.0555039 0.170971
-17.9645 26.6269 -8.05885 -0.335018 0.941694 -0.0312255
-20.9342 24.0724 -11.3099 -0.657425 0.695712 -0.289443
-14.7886 25.4733 1.72384 -0.233899 0.966362 0.106937
-19.9494 9.11954 22.9967 -0.611131 -0.0794394 0.787533
1.70585 -18.8883 9.32202 0.0476336 -0.593493 0.803428
11.3832 28.6863 -11.2816 0.142544 0.989031 -0.0387169
8.05783 28.7379 -1.65773 0.180641 0.983253 -0.0241357
5.85514 -0.509586 -19.3459 0.384392 0.549192 -0.742045
21.1794 25.0472 8.18441 0.480201 0.846286 0.230668
24.5523 21.4212 -4.89475 0.834591 0.497013 -0.237563
1.68235 -2.04687 24.7205 -0.323451 -0.834429 0.446215
14.8265 27.6542 -11.5333 0.39034 0.892542 -0.225841
7.90233 -27.4458 -1.53896 0.598846 -0.623988 0.502018
21.6439 7.0641 -5.39841 0.332015 -0.835056 -0.438688
1.73573 10.9498 29.579 0.00285748 0.113287 0.993558
-12.2607 -18.6045 2.01423 -0.724713 -0.543698 0.423301
11.8533 -1.94649 25.6977 0.313911 -0.364482 0.876706
-23.6006 5.91318 -4.59109 -0.612191 -0.761446 -0.213127
1.68375 -5.0476 11.1719 0.0558553 0.25121 0.96632
18.0474 18.175 21.5291 0.504123 0.494049 0.708361
25.1087 21.5238 8.33771 0.767194 0.605217 0.212427
27.3163 17.8651 1.75504 0.96582 0.236872 -0.105276
20.0601 26.4629 -4.69373 0.519712 0.83456 -0.182781
12.2445 -22.1386 -5.11433 0.70465 -0.703651 -0.0913395
21.7784 25.3601 5.05202 0.531933 0.831974 0.157695
4.96378 -8.13111 -21.8806 0.236152 0.0652483 -0.969523
-8.1027 11.5559 -23.8657 -0.242647 -0.442077 -0.863534
-16.8601 3.07467 14.0215 -0.42206 -0.88369 0.202378
-18.0949 2.65898 4.87358 -0.192494 -0.981284 0.00520027
-14.5604 1.79114 -1.52752 -0.643173 -0.763922 0.0524509
14.6004 -11.4235 -14.7287 0.822096 -0.130017 -0.554305
-14.6081 18.032 21.0534 -0.53657 0.449445 0.714207
1.64618 29.1487 -4.99138 0.0115741 0.995604 -0.0929482
1.60795 27.4312 -21.2615 0.0650449 0.818569 -0.570714
-11.358 -8.6781 -24.8478 -0.462995 0.816289 -0.345409
-8.11231 27.3661 -7.91071 -0.245232 0.962555 -0.115538
-27.8434 11.5993 8.07111 -0.908765 0.313231 -0.275738
1.65389 27.0914 11.5478 0.00454764 0.949832 0.312728
4.94672 -22.1205 5.66907 0.230493 -0.726253 0.647634
-17.8454 2.93513 -1.49426 -0.212512 -0.967719 -0.135495
-16.0574 10.2085 -19.4834 -0.461206 -0.462057 -0.757491
8.24642 -11.3948 -20.5636 0.458822 -0.110338 -0.881651
-24.5326 5.24131 4.8954 -0.560649 -0.765082 -0.316735
4.79551 21.1639 24.6136 0.0876137 0.734018 0.673455
-8.40041 -10.7071 -29.6355 -0.0527564 -0.0775413 -0.995592
13.644 -2.49114 -13.8519 0.767057 0.424443 -0.481115
-20.6721 5.34304 20.7229 -0.658602 -0.479058 0.580299
11.3932 25.4233 11.527 0.301365 0.880848 0.365083
4.82273 11.6566 -23.9336 0.236939 -0.530407 -0.813958
-1.5576 29.1731 -1.61178 -0.06928 0.997519 0.0125262
-10.1693 -23.2007 -5.298 -0.558766 -0.827325 0.0575676
-14.6564 -18.0836 -4.83572 -0.872873 -0.48532 0.0505754
4.91247 -25.0688 2.12127 0.12887 -0.755888 0.641892
-18.1048 24.6462 5.00745 -0.101749 0.975162 0.196738
-11.4232 27.8306 -11.4569 -0.0315569 0.981604 0.188304
14.7865 7.59839 -11.4743 0.230342 -0.916613 -0.326746
-1.60359 29.0611 -4.89505 -0.0561555 0.993513 -0.0988867
-17.9139 25.8595 -1.50806 0.0140067 0.980442 0.196309
14.6994 26.4443 4.59964 0.067731 0.982571 0.173108
27.8187 14.6962 1.77952 0.987787 0.0715097 -0.138428
-14.6035 24.3906 8.176 -0.215646 0.957495 0.191574
1.57423 -21.2866 -18.1328 0.105303 -0.693517 -0.712703
1.50301 -17.3508 10.3389 0.0418878 -0.489403 0.871051
-21.3344 7.95511 21.4568 -0.66848 -0.234437 0.705814
20.492 23.014 -14.4168 0.102388 0.994723 0.00658875
-1.63409 -11.5524 -22.0447 -0.0924867 -0.172143 -0.980721
21.8351 -2.6075 14.3708 0.611329 -0.758161 -0.226868
-20.337 11.7501 -17.0699 -0.636267 -0.344625 -0.690216
-8.11184 -14.1915 -21.0814 0.0391285 -0.834142 -0.55016
-7.78059 -17.7059 7.50914 -0.46 -0.479073 0.747588
-12.1284 -0.428488 -18.0978 -0.271294 0.957788 0.0950881
7.19063 -14.3177 10.217 0.37444 -0.249686 0.893001
27.1103 18.0423 8.17064 0.932078 0.329286 0.151
-11.3305 -3.68214 -24.1893 0.0268331 -0.934836 -0.354065
4.89888 17.9218 -25.5516 0.270711 0.0258643 -0.962313
-4.16211 2.45982 26.6222 -0.391907 -0.506268 0.768181
-11.4599 14.753 -23.7693 -0.39123 -0.157305 -0.906749
-1.67757 -1.69998 -24.3232 0.308287 0.104764 -0.945507
1.64542 1.62782 28.0538 -0.172986 -0.453351 0.874385
8.40923 10.8415 -21.9434 0.326715 -0.643254 -0.692446
-11.7188 -21.7622 -8.10567 -0.692174 -0.710995 -0.124021
1.62998 28.8788 -18.0827 0.00291068 0.972625 -0.232364
-8.71616 -22.0791 1.95271 -0.520275 -0.758022 0.39334
-14.4201 2.03639 1.41658 -0.303815 -0.948729 0.0872308
17.4324 -11.4172 -8.10671 0.972046 -0.131897 -0.194239
17.7961 -4.55759 21.1345 0.582773 -0.466576 0.665344
-4.95914 14.5585 -25.6771 -0.163628 -0.21203 -0.963467
-4.87611 -8.19987 -28.1346 0.593887 -0.285855 -0.752054
-11.395 26.9787 1.58208 -0.381234 0.923656 0.0389828
4.8985 14.6246 -25.188 0.255315 -0.232016 -0.938607
14.5347 8.81331 -14.6353 0.36994 -0.831959 -0.413507
27.7744 8.10383 8.03038 0.981317 -0.189267 0.034559
-16.8477 -11.5245 -4.88087 -0.986412 -0.149144 0.0688984
14.5648 12.0574 -20.9297 0.0680949 -0.828076 -0.556465
-3.14564 19.3593 -26.1275 -0.199502 0.166853 -0.965588
-8.23618 21.1078 -24.3831 -0.31967 0.325737 -0.889779
17.9185 8.69725 -11.3755 0.38021 -0.816886 -0.433749
-10.8968 -8.30602 7.64514 -0.646299 0.0968921 0.756908
-24.0142 21.2136 4.8156 -0.7739 0.590411 0.229116
-8.31251 -1.57163 -26.8531 0.0340011 -0.189512 -0.981289
-8.29521 -24.1763 -8.22913 -0.451467 -0.88764 -0.0909496
-1.61176 7.94794 -21.4582 0.0453074 -0.822183 -0.567417
-7.38327 -9.37336 -29.5994 -0.237823 0.385086 -0.891712
14.2931 -5.17098 -14.5932 0.802321 0.24126 -0.545961
10.9572 24.0392 -20.6781 0.459392 0.53242 -0.710977
-8.05479 28.4853 -14.6004 -0.0914125 0.994809 0.0446985
-4.64238 -0.276441 18.3278 -0.210758 -0.962224 -0.172353
8.15304 -21.3513 -14.5844 0.475232 -0.739132 -0.477324
-26.5035 17.2542 -7.59429 -0.933902 0.263826 -0.241294
-9.14307 10.1144 -22.7182 -0.293679 -0.584128 -0.756668
1.52354 -1.8023 -24.3938 -0.0292982 0.560589 -0.827576
13.6093 -20.1459 -8.00406 0.736158 -0.644984 -0.205103
16.7706 -14.4767 -8.05258 0.932365 -0.301218 -0.199909
-11.3897 27 -1.64624 -0.400458 0.915096 -0.047252
26.8861 17.847 -11.2886 0.886027 0.220607 -0.407785
5.2774 -18.9306 -19.0787 0.31581 -0.520462 -0.793337
-18.3853 -5.32134 -18.089 -0.628073 -0.708153 -0.322557
24.1195 4.92872 18.133 0.834101 -0.155081 0.529363
-11.5221 1.59259 18.0303 -0.3105 -0.946152 0.0915815
-14.4836 -1.59792 -11.335 -0.78387 0.604641 -0.141271
4.83826 27.1734 -20.9145 0.197943 0.779268 -0.594608
-18.5673 4.51954 22.0924 -0.525465 -0.521568 0.672201
-1.60956 28.5419 4.82965 -0.079894 0.984472 0.15631
